<?xml version="1.0" encoding="UTF-8"?> <svg xmlns="http://www.w3.org/2000/svg" width="24" height="24" viewBox="0 0 24 24" fill="none"><path d="M9.99474 11.2731C11.2276 10.6837 11.8712 9.79202 11.8712 8.40404C11.8712 5.66685 9.8319 5 7.47854 5H1V18.7402H7.66076C10.1576 18.7402 12.5032 17.5422 12.5032 14.7508C12.5032 13.0255 11.6851 11.7499 9.99474 11.2731ZM4.02022 7.34561H6.85433C7.94378 7.34561 8.92467 7.6519 8.92467 8.91581C8.92467 10.0828 8.1609 10.5519 7.08308 10.5519H4.02022V7.34561ZM7.24979 16.4063H4.02022V12.6223H7.31182C8.64165 12.6223 9.48297 13.1767 9.48297 14.584C9.48297 15.972 8.47881 16.4063 7.24979 16.4063ZM21.149 7.07422H15.5777V5.72113H21.149V7.07422ZM23.3318 13.9094C23.3318 10.9668 21.6104 8.5126 18.4893 8.5126C15.4575 8.5126 13.3988 10.7923 13.3988 13.7776C13.3988 16.8754 15.3489 19 18.4893 19C20.866 19 22.4052 17.9299 23.1457 15.6541H20.7341C20.4744 16.5032 19.4043 16.9529 18.5746 16.9529C16.9734 16.9529 16.1321 16.0147 16.1321 14.4212H23.3085C23.3201 14.2584 23.3318 14.0839 23.3318 13.9094ZM16.136 12.6998C16.2251 11.3932 17.0936 10.5752 18.404 10.5752C19.7765 10.5752 20.4666 11.3816 20.5829 12.6998H16.136Z" fill="#1A1A1A"></path></svg> 