<?xml version="1.0" standalone="no"?>
<!DOCTYPE svg PUBLIC "-//W3C//DTD SVG 20010904//EN"
 "http://www.w3.org/TR/2001/REC-SVG-20010904/DTD/svg10.dtd">
<svg version="1.0" xmlns="http://www.w3.org/2000/svg"
 width="360.000000pt" height="360.000000pt" viewBox="0 0 360.000000 360.000000"
 preserveAspectRatio="xMidYMid meet">

<g transform="translate(0.000000,360.000000) scale(0.100000,-0.100000)"
fill="#000000" stroke="none">
<path d="M825 2401 c11 -10 153 -128 315 -263 162 -134 375 -310 473 -392 98
-81 184 -145 190 -143 7 3 221 179 477 392 256 213 473 393 483 399 9 6 17 14
17 18 0 5 -444 8 -987 8 -965 0 -987 0 -968 -19z"/>
<path d="M740 1759 l0 -594 286 285 c157 157 292 299 300 316 10 23 11 41 3
67 -10 39 -32 59 -309 287 -96 79 -199 164 -227 188 l-53 44 0 -593z"/>
<path d="M2690 2217 c-85 -71 -210 -174 -278 -230 -131 -107 -152 -134 -152
-193 0 -36 14 -52 292 -331 161 -161 296 -293 300 -293 10 0 9 1139 0 1161 -5
12 -41 -13 -162 -114z"/>
<path d="M1135 1420 l-330 -330 994 0 994 0 -332 331 c-301 299 -334 329 -349
316 -115 -101 -301 -247 -313 -247 -19 0 -34 11 -189 140 -63 52 -122 101
-130 107 -14 10 -67 -39 -345 -317z"/>
</g>
</svg>
