<?xml version="1.0" standalone="no"?>
<!DOCTYPE svg PUBLIC "-//W3C//DTD SVG 20010904//EN"
 "http://www.w3.org/TR/2001/REC-SVG-20010904/DTD/svg10.dtd">
<svg version="1.0" xmlns="http://www.w3.org/2000/svg"
 width="52.000000pt" height="28.000000pt" viewBox="0 0 52.000000 28.000000"
 preserveAspectRatio="xMidYMid meet">

<g transform="translate(0.000000,28.000000) scale(0.100000,-0.100000)"
fill="#000000" stroke="none">
<path d="M210 243 c-95 -49 -83 -183 20 -214 53 -16 107 10 134 65 17 36 18
43 5 79 -25 71 -96 102 -159 70z m124 -33 c65 -63 18 -173 -74 -173 -91 0
-138 107 -75 173 45 47 100 47 149 0z"/>
<path d="M204 215 c-12 -9 -15 -17 -9 -22 6 -5 17 -28 24 -52 9 -33 15 -41 22
-30 13 21 11 67 -3 72 -7 3 -2 6 12 6 23 1 28 -5 39 -46 10 -39 14 -45 22 -31
12 21 8 100 -6 110 -17 13 -80 9 -101 -7z"/>
<path d="M170 139 c0 -34 23 -79 40 -79 7 0 -25 98 -36 109 -2 2 -4 -11 -4
-30z"/>
<path d="M332 126 c-7 -27 -11 -51 -8 -53 10 -10 27 40 24 70 -3 30 -4 29 -16
-17z"/>
<path d="M251 97 c-16 -41 -14 -47 14 -47 29 0 29 -2 11 41 l-14 34 -11 -28z"/>
</g>
</svg>
