<?xml version="1.0" encoding="UTF-8"?> <svg xmlns="http://www.w3.org/2000/svg" width="24" height="24" viewBox="0 0 24 24" fill="none"><path d="M11.997 8.33177C9.97722 8.33177 8.32888 9.98013 8.32888 12C8.32888 14.0199 9.97722 15.6682 11.997 15.6682C14.0169 15.6682 15.6652 14.0199 15.6652 12C15.6652 9.98013 14.0169 8.33177 11.997 8.33177ZM22.9988 12C22.9988 10.481 23.0125 8.97571 22.9272 7.45943C22.8419 5.69824 22.4402 4.13519 21.1523 2.84732C19.8617 1.55669 18.3014 1.15767 16.5403 1.07237C15.0213 0.987059 13.516 1.00082 11.9998 1.00082C10.4808 1.00082 8.97556 0.987059 7.45931 1.07237C5.69815 1.15767 4.13513 1.55945 2.84728 2.84732C1.55668 4.13794 1.15767 5.69824 1.07237 7.45943C0.987059 8.97846 1.00082 10.4837 1.00082 12C1.00082 13.5163 0.987059 15.0243 1.07237 16.5406C1.15767 18.3018 1.55944 19.8648 2.84728 21.1527C4.13788 22.4433 5.69815 22.8423 7.45931 22.9276C8.97831 23.0129 10.4835 22.9992 11.9998 22.9992C13.5188 22.9992 15.024 23.0129 16.5403 22.9276C18.3014 22.8423 19.8645 22.4406 21.1523 21.1527C22.4429 19.8621 22.8419 18.3018 22.9272 16.5406C23.0153 15.0243 22.9988 13.519 22.9988 12ZM11.997 17.6441C8.87374 17.6441 6.35309 15.1234 6.35309 12C6.35309 8.87664 8.87374 6.35594 11.997 6.35594C15.1203 6.35594 17.641 8.87664 17.641 12C17.641 15.1234 15.1203 17.6441 11.997 17.6441ZM17.8722 7.44292C17.1429 7.44292 16.554 6.85402 16.554 6.12478C16.554 5.39554 17.1429 4.80664 17.8722 4.80664C18.6014 4.80664 19.1903 5.39554 19.1903 6.12478C19.1905 6.29794 19.1565 6.46945 19.0904 6.62947C19.0242 6.78949 18.9271 6.93489 18.8047 7.05733C18.6822 7.17978 18.5369 7.27686 18.3768 7.34303C18.2168 7.40919 18.0453 7.44314 17.8722 7.44292Z" fill="#1A1A1A"></path></svg> 