<?xml version="1.0" encoding="UTF-8"?> <svg xmlns="http://www.w3.org/2000/svg" width="84" height="37" viewBox="0 0 84 37" fill="none"><path d="M78.1279 1.16805C80.1879 1.16805 81.8679 2.82805 81.8679 4.88805C81.8879 6.94805 80.1879 8.62805 78.1279 8.62805C76.0679 8.62805 74.4079 6.94805 74.4079 4.88805C74.4079 2.84805 76.0679 1.16805 78.1279 1.16805ZM78.1279 1.80805C76.4279 1.80805 75.0479 3.18805 75.0479 4.88805C75.0479 6.58805 76.4279 7.98805 78.1279 7.98805C79.8279 7.98805 81.2079 6.58805 81.2079 4.88805C81.2079 3.18805 79.8279 1.80805 78.1279 1.80805ZM76.5879 2.82805H78.0479C78.8879 2.82805 79.8679 2.96805 79.8679 4.02805C79.8679 4.54805 79.6479 4.82805 79.1279 5.00805C79.6479 5.20805 79.7879 5.50805 79.8079 6.36805C79.8079 6.66805 79.8279 6.72805 79.9079 6.92805H78.9879C78.9279 6.74805 78.9079 6.68805 78.9079 6.36805C78.8879 5.54805 78.7279 5.38805 77.9479 5.38805H77.5079V6.92805H76.5879V2.82805ZM77.5079 4.66805H78.0079C78.6679 4.66805 78.9279 4.50805 78.9279 4.10805C78.9279 3.72805 78.6679 3.56805 78.0079 3.56805H77.5079V4.66805Z" fill="#1A1A1A"></path><path d="M10.2806 34.3658L10.3384 34.2915C10.198 34.1429 10.0577 34.0026 9.93388 33.8457C9.50433 33.3764 9.11238 32.8741 8.76166 32.3433C8.61105 32.1224 8.50714 31.873 8.45628 31.6105C8.40542 31.3479 8.40868 31.0778 8.46587 30.8166C8.52306 30.5554 8.63297 30.3086 8.78887 30.0913C8.94477 29.8741 9.14338 29.6909 9.37253 29.5531C9.85004 29.2328 10.3695 28.98 10.9162 28.8019C12.4757 28.3318 14.1009 28.1171 15.7289 28.1662C17.9955 28.1624 20.2207 28.7729 22.1679 29.9328C25.4525 31.8402 28.9171 33.419 32.5115 34.6465C35.475 35.6879 38.5457 36.394 41.6664 36.7515C44.3536 37.0213 47.061 37.0213 49.7481 36.7515C52.2899 36.5096 54.8131 36.1015 57.3016 35.5298L58.7792 35.1913C56.868 34.2333 55.1932 32.863 53.8757 31.1793C54.5278 31.2289 55.114 31.2949 55.7083 31.3197C57.0457 31.4079 58.3884 31.2683 59.679 30.9069C60.1746 30.7771 60.6345 30.5373 61.0246 30.2052C58.593 29.7919 56.3303 28.6921 54.5031 27.0353C54.5621 27.0163 54.6256 27.0163 54.6847 27.0353C59.0206 27.6231 63.2594 28.7834 67.2902 30.4859C67.1267 30.1106 66.9334 29.749 66.7123 29.4045C66.0238 28.4744 65.213 27.6414 64.3019 26.928C63.4763 26.2263 62.6921 25.5164 61.8996 24.7982C61.8099 24.6927 61.7297 24.5795 61.6602 24.4597H61.8501C64.2057 24.719 66.5141 25.3024 68.7101 26.1933C70.7986 27.0188 72.8376 27.9516 74.9262 28.8266L76.1479 29.4128C73.1904 25.1072 69.3804 21.4546 64.954 18.6811C65.1123 18.6227 65.2809 18.5974 65.4493 18.6069C66.3244 18.7307 67.1911 18.871 68.0662 19.0031C68.2973 19.0031 68.5367 19.0444 68.8917 19.0691C63.7818 12.9521 57.8712 8.32927 50.1857 6.29852V6.19946L54.4288 6.00959L54.2389 5.91053C53.5702 5.59684 52.9016 5.26664 52.2329 4.9612C48.7144 3.24733 44.9527 2.08624 41.0803 1.51883C38.6259 1.1964 36.1332 1.32509 33.725 1.89856C33.0894 2.05541 32.4703 2.25353 31.8098 2.4434C31.8098 1.84078 32.4042 1.79124 32.7014 1.37849C32.4703 1.37849 32.3134 1.37849 32.1566 1.37849C29.5952 1.47286 27.0422 1.7265 24.5124 2.13796C22.3036 2.47928 20.1461 3.09491 18.0899 3.97059C16.3376 4.65783 14.7675 5.74013 13.5018 7.13327C12.2361 8.5264 11.3089 10.1928 10.7924 12.0028C10.7454 12.1243 10.6617 12.2282 10.553 12.3C9.8018 12.8365 9.03407 13.3649 8.28286 13.9015C6.36535 15.2063 4.62548 16.7547 3.10692 18.5078C1.51287 20.2954 0.562647 22.5649 0.407512 24.955C0.268059 26.6419 0.68878 28.3277 1.6045 29.7512C2.51046 31.0369 3.74096 32.0594 5.17069 32.7148C6.79639 33.4814 8.5137 34.0362 10.2806 34.3658Z" fill="#1A1A1A"></path><path d="M10.2806 34.3659C8.51091 34.037 6.79078 33.4821 5.16247 32.7149C3.73969 32.0674 2.51254 31.0567 1.60453 29.7843C0.681687 28.3516 0.260667 26.653 0.40754 24.9551C0.55675 22.5602 1.50425 20.2845 3.0987 18.4913C4.61725 16.7382 6.35713 15.1898 8.27463 13.885C9.02585 13.3402 9.79357 12.8201 10.5448 12.2835C10.6535 12.2117 10.7372 12.1079 10.7842 11.9863C11.3007 10.1763 12.2279 8.50995 13.4936 7.11682C14.7593 5.72368 16.3294 4.64138 18.0817 3.95414C20.1379 3.07846 22.2954 2.46283 24.5041 2.12151C27.0336 1.70452 29.5866 1.44536 32.1483 1.34553C32.3052 1.34553 32.462 1.34553 32.6932 1.34553C32.396 1.75829 31.7769 1.80782 31.8016 2.41044C32.462 2.22057 33.0812 2.02245 33.7168 1.8656C36.125 1.29214 38.6177 1.16344 41.0721 1.48587C44.9609 2.06219 48.7369 3.23734 52.266 4.96951C52.9429 5.27495 53.6033 5.5969 54.272 5.91885L54.4618 6.01791L50.2187 6.20778V6.30684C57.9042 8.32933 63.8148 12.9522 68.8835 18.9949C68.5698 18.9949 68.3304 18.9949 68.058 18.9289C67.1829 18.7968 66.3161 18.6564 65.4411 18.5326C65.2726 18.5232 65.104 18.5484 64.9458 18.6069C69.3825 21.4011 73.1958 25.0796 76.1479 29.4128L74.9344 28.9175C72.8624 28.0342 70.8069 27.1179 68.7184 26.2841C66.5224 25.3932 64.2139 24.8099 61.8584 24.5506H61.6603C61.7272 24.6498 61.8017 24.7436 61.8832 24.8312C62.7087 25.5412 63.4764 26.2594 64.2854 26.9611C65.1965 27.6745 66.0073 28.5075 66.6959 29.4376C66.917 29.7821 67.1102 30.1437 67.2737 30.519C63.2449 28.8023 59.0061 27.6281 54.6682 27.0271C54.6092 27.0081 54.5457 27.0081 54.4866 27.0271C56.3138 28.6839 58.5765 29.7837 61.0081 30.1971C60.618 30.5291 60.1581 30.7689 59.6625 30.8987C58.3719 31.2601 57.0292 31.3997 55.6918 31.3115C55.0975 31.3115 54.5114 31.2207 53.8592 31.1712C55.1806 32.8597 56.8612 34.233 58.7792 35.1914L57.2851 35.5546C54.7966 36.1263 52.2734 36.5345 49.7317 36.7764C47.0445 37.0461 44.3371 37.0461 41.6499 36.7764C38.5293 36.4188 35.4585 35.7127 32.4951 34.6713C28.9006 33.4438 25.436 31.865 22.1514 29.9577C20.2042 28.7977 17.979 28.1872 15.7125 28.1911C14.0844 28.142 12.4592 28.3566 10.8998 28.8267C10.353 29.0048 9.83356 29.2576 9.35605 29.5779C9.13173 29.7172 8.93777 29.9002 8.78576 30.1161C8.63375 30.3319 8.52681 30.5762 8.47133 30.8344C8.41585 31.0925 8.41297 31.3592 8.46286 31.6184C8.51275 31.8777 8.61438 32.1243 8.76169 32.3434C9.11417 32.8599 9.50608 33.3484 9.93391 33.8045C10.066 33.9614 10.2063 34.1017 10.3384 34.2503L10.2806 34.3659ZM39.9081 31.9719L39.9494 31.8646C36.5566 29.3881 32.7592 27.6462 29.0527 25.7311C31.5499 26.0101 34.068 26.0516 36.5731 25.8549C36.5173 25.6889 36.4244 25.538 36.3014 25.4135C36.1783 25.289 36.0284 25.1943 35.8631 25.1367C35.5412 25.0046 35.1945 24.9221 34.8725 24.7982C34.5506 24.6744 34.2616 24.5341 33.9562 24.402V24.2286C34.4763 23.9975 34.9881 23.7333 35.5247 23.5517C38.1902 22.7538 41.0164 22.6572 43.7302 23.271C44.3081 23.3866 44.8777 23.5517 45.5051 23.7168C45.3977 23.5682 45.3235 23.4609 45.2326 23.3618C44.7428 22.7742 44.128 22.3032 43.433 21.9832C42.6075 21.587 41.6912 21.2403 40.8244 20.8688L39.4541 20.3322C41.7544 19.5661 44.1619 19.1704 46.5865 19.16C44.8055 17.7438 42.8663 16.5388 40.8079 15.569C42.6985 14.9787 44.7043 14.8569 46.6525 15.2141C46.5966 15.1256 46.536 15.0401 46.4709 14.9582C45.6454 14.0336 44.8199 13.076 43.9036 12.201C41.7337 10.0443 38.9678 8.58659 35.9622 8.01564C35.4421 7.91658 34.922 7.84228 34.3112 7.74322L36.4823 5.90234L36.086 5.81979C35.1202 5.68771 34.1543 5.54737 33.1802 5.42354C30.7018 5.07317 28.1791 5.20492 25.7507 5.81153C23.6377 6.29742 21.6498 7.21971 19.9143 8.5192C18.8531 9.27099 18.0765 10.3588 17.7102 11.6066C17.6194 11.9698 17.5946 12.3413 17.5286 12.721C18.5914 12.8424 19.6598 12.5465 20.5087 11.8955C21.1635 11.4141 21.7791 10.8813 22.3496 10.3023C23.5367 9.04827 25.0769 8.1846 26.766 7.82577C30.0079 7.15337 33.3812 7.57431 36.3584 9.02276C36.829 9.31994 37.2252 9.60062 37.6545 9.86478V9.95558L36.1686 9.60062C34.322 9.08352 32.4045 8.86613 30.4891 8.95672C29.6167 9.0132 28.7692 9.27028 28.0125 9.70793C27.9758 9.72304 27.9426 9.74555 27.915 9.77407C27.8873 9.80259 27.8659 9.8365 27.8519 9.87368C27.838 9.91087 27.8319 9.95053 27.8339 9.99018C27.836 10.0298 27.8462 10.0686 27.8639 10.1042C27.9615 10.4516 28.0387 10.8044 28.0951 11.1608C28.1776 11.6231 28.1694 11.6314 28.6234 11.6231C28.8498 11.6185 29.0757 11.602 29.3003 11.5736C29.5893 11.5736 29.8782 11.491 30.2249 11.4332C30.1341 11.5736 30.0846 11.6561 30.0268 11.7387C29.5269 12.4096 28.8803 12.9574 28.1364 13.3402C26.561 14.1369 24.8384 14.6006 23.076 14.7023C22.589 14.7435 22.1102 14.76 21.6231 14.7931V14.8839C26.1717 16.8238 30.8523 17.9217 35.8796 17.1623C34.9858 18.0211 33.9192 18.6796 32.751 19.094C30.8607 19.7334 28.9065 20.1652 26.9229 20.3818C24.3103 20.7301 21.7423 21.3555 19.2622 22.2474C16.2664 23.2975 13.4739 24.8557 11.0071 26.8537L10.7016 27.1344H10.9328C12.5838 27.1344 14.2348 27.0601 15.8858 27.0849C17.5723 27.1752 19.2631 27.1504 20.9462 27.0106C22.161 26.8969 23.3291 26.4858 24.3473 25.8136C24.449 25.7633 24.5368 25.6889 24.603 25.5967C24.6692 25.5046 24.7118 25.3977 24.727 25.2853C24.727 24.8725 24.727 24.4598 24.7766 24.0553C24.8261 23.6508 24.8591 23.271 24.9004 22.883H25.0077C25.2657 23.2913 25.4331 23.7502 25.4986 24.2287C25.5641 24.7072 25.5262 25.1942 25.3874 25.6568C25.1932 26.325 24.7817 26.9095 24.2181 27.3176C23.6544 27.7258 22.9708 27.9344 22.2753 27.9104C22.4981 28.0755 22.6467 28.1993 22.8118 28.3066C23.4524 28.7222 24.1627 29.0186 24.9086 29.1817C26.5856 29.5159 28.2921 29.6791 30.002 29.6687C31.5881 29.6413 33.1722 29.7936 34.7239 30.1228C35.9209 30.4447 37.0684 30.9483 38.2406 31.3528L39.9081 31.9719ZM31.8759 18.4748V18.4005H31.6778C30.324 18.2685 28.9701 18.1942 27.6246 18.0043C25.9635 17.8071 24.3381 17.3792 22.7953 16.733C21.6644 16.2377 20.5747 15.6598 19.4933 15.1398C18.7918 14.7495 18.0011 14.5476 17.1984 14.5537C16.7957 14.5831 16.3914 14.5244 16.0136 14.3819C15.6359 14.2393 15.2937 14.0163 15.0108 13.7282C14.8878 13.616 14.7583 13.5112 14.6228 13.4145C14.3188 13.1804 13.9409 13.0632 13.5579 13.0843C12.0935 13.1473 10.6708 13.5912 9.43035 14.3721C7.5343 15.4991 5.92185 17.0457 4.7169 18.8932C3.51195 20.7407 2.74657 22.8399 2.47957 25.0294C2.25622 26.5444 2.54685 28.0906 3.30507 29.4211C3.75741 30.1922 4.36159 30.8634 5.08102 31.3941C5.80044 31.9248 6.62013 32.3039 7.4904 32.5085C7.68027 32.5663 7.87839 32.6075 8.11779 32.6653C8.11779 32.5497 8.06826 32.4837 8.04349 32.4177C7.77145 31.786 7.64785 31.1003 7.68219 30.4134C7.71654 29.7265 7.90792 29.0566 8.24161 28.4552C8.87967 27.2692 9.77355 26.24 10.8585 25.4421C14.1931 22.7919 18.1038 20.9624 22.2753 20.1011C24.7518 19.6058 27.3274 19.2756 29.8534 18.8463C30.4973 18.739 31.1825 18.5987 31.8759 18.4748ZM28.739 2.48473C28.5574 2.48473 28.4666 2.48473 28.3758 2.48473C27.7484 2.55903 27.1292 2.61681 26.5101 2.71588C24.5796 2.97232 22.7083 3.56166 20.9792 4.4577C19.9856 4.94206 19.1004 5.62257 18.3768 6.4582C17.6533 7.29383 17.1064 8.2673 16.7691 9.31994C16.6205 9.81525 16.5297 10.3353 16.4141 10.8471C16.959 10.261 17.413 9.6584 17.9331 9.10531C19.323 7.72477 20.9256 6.57644 22.6798 5.70422C24.5537 4.6971 26.4441 3.723 28.3262 2.73239C28.4418 2.6746 28.5739 2.6003 28.739 2.48473ZM16.4884 6.55449L16.3646 6.51321C14.7136 7.85054 12.9883 9.10531 12.4435 11.4002L14.92 10.9792C14.9051 10.1228 15.1372 9.28017 15.5886 8.55222C15.7703 8.22202 15.9766 7.90007 16.1335 7.55336C16.2903 7.20664 16.3729 6.88469 16.4884 6.55449ZM25.3957 13.4145L25.4535 13.5135C25.8034 13.3636 26.1427 13.1898 26.4688 12.9935C26.6726 12.8627 26.8175 12.6578 26.873 12.4221C26.9285 12.1864 26.8901 11.9384 26.766 11.7304C26.63 11.44 26.4276 11.1856 26.1753 10.9877C25.9229 10.7899 25.6276 10.654 25.3131 10.5912C25.1063 10.5345 24.8855 10.5606 24.6976 10.6638C24.5096 10.767 24.3692 10.9394 24.306 11.1443C24.2281 11.4125 24.1892 11.6905 24.1904 11.9698C24.1904 12.3413 24.3225 12.4569 24.6775 12.3496C24.8422 12.2786 24.9848 12.1645 25.0902 12.0194C25.1959 11.8687 25.2871 11.7084 25.3627 11.5406C25.6097 12.1358 25.6215 12.8026 25.3957 13.4062V13.4145ZM22.2835 12.5312C22.0993 12.5318 21.9188 12.5829 21.7616 12.6789C21.6044 12.775 21.4765 12.9123 21.392 13.076L22.5064 13.4475L22.589 13.3897L22.2835 12.5312Z" fill="#1A1A1A"></path><path d="M39.9082 31.9388L38.2572 31.3527C37.085 30.9399 35.9375 30.4446 34.7406 30.1227C33.1888 29.7935 31.6047 29.6412 30.0186 29.6686C28.3087 29.679 26.6022 29.5158 24.9253 29.1816C24.1673 29.0198 23.4454 28.7204 22.7954 28.2983C22.6386 28.191 22.4818 28.0671 22.2589 27.902C22.9544 27.926 23.638 27.7174 24.2017 27.3093C24.7653 26.9011 25.1768 26.3167 25.371 25.6484C25.5098 25.1858 25.5477 24.6988 25.4822 24.2203C25.4167 23.7418 25.2493 23.283 24.9913 22.8747H24.9005C24.9005 23.2627 24.8097 23.6589 24.7767 24.0469C24.7436 24.4349 24.7767 24.8724 24.7271 25.2769C24.7179 25.3891 24.6815 25.4972 24.6211 25.5922C24.5607 25.6871 24.4781 25.7659 24.3804 25.8218C23.3622 26.494 22.1941 26.9051 20.9793 27.0187C19.2962 27.1585 17.6055 27.1833 15.919 27.093C14.2679 27.093 12.6169 27.093 10.9659 27.1426H10.7183L11.0237 26.8619C13.4905 24.8639 16.283 23.3057 19.2788 22.2556C21.7533 21.362 24.3158 20.7338 26.923 20.3817C28.9098 20.163 30.8668 19.7285 32.7593 19.0856C33.9276 18.6713 34.9942 18.0127 35.888 17.1539C30.8689 17.9216 26.18 16.8155 21.6315 14.8755V14.793C22.1185 14.793 22.6056 14.7434 23.0844 14.7022C24.8468 14.6005 26.5694 14.1368 28.1447 13.3401C28.8887 12.9573 29.5353 12.4095 30.0352 11.7386C30.0929 11.656 30.1425 11.5735 30.2333 11.4332C29.8866 11.4827 29.5976 11.5405 29.3087 11.5735C29.0841 11.6019 28.8581 11.6184 28.6318 11.623C28.1778 11.623 28.186 11.623 28.1035 11.1607C28.0471 10.8043 27.9699 10.4515 27.8723 10.1041C27.8546 10.0686 27.8444 10.0297 27.8423 9.99009C27.8402 9.95043 27.8464 9.91078 27.8603 9.87359C27.8742 9.83641 27.8957 9.8025 27.9233 9.77398C27.951 9.74546 27.9842 9.72295 28.0209 9.70784C28.7776 9.27019 29.6251 9.01311 30.4974 8.95663C32.4101 8.86692 34.3248 9.08431 36.1687 9.60052L37.6546 9.95549V9.86469C37.2171 9.60052 36.8291 9.31159 36.342 9.08045C33.3687 7.63847 30.0018 7.22052 26.7661 7.89172C25.077 8.25055 23.5368 9.11422 22.3497 10.3682C21.7792 10.9473 21.1637 11.48 20.5088 11.9615C19.6599 12.6124 18.5915 12.9084 17.5287 12.787C17.5865 12.4073 17.6113 12.0275 17.7103 11.6725C18.0767 10.4247 18.8532 9.33694 19.9144 8.58515C21.6411 7.26026 23.6266 6.31251 25.7425 5.80318C28.1709 5.19657 30.6937 5.06483 33.1721 5.4152C34.1379 5.53902 35.112 5.67936 36.0779 5.81144L36.4741 5.89399L34.2865 7.72662C34.9057 7.82568 35.434 7.89998 35.9375 7.99904C38.9432 8.56999 41.709 10.0277 43.8789 12.1844C44.7787 13.0594 45.596 14.017 46.4463 14.9416C46.5114 15.0235 46.572 15.109 46.6279 15.1975C44.6797 14.8403 42.6739 14.9621 40.7833 15.5524C42.8417 16.5222 44.7808 17.7272 46.5618 19.1434C44.1447 19.1618 41.7458 19.563 39.4542 20.3321L40.8411 20.9017C41.7078 21.2484 42.6076 21.5952 43.4332 21.9831C44.1303 22.2997 44.7479 22.7678 45.241 23.3535C45.3236 23.4526 45.3979 23.5599 45.5134 23.7085C44.8861 23.5516 44.3165 23.3783 43.7386 23.2627C41.0248 22.6488 38.1985 22.7455 35.533 23.5434C34.9965 23.7167 34.4846 23.9891 33.9646 24.2203V24.3771C34.27 24.5092 34.5672 24.6495 34.8809 24.7734C35.1946 24.8972 35.5496 24.9797 35.8715 25.1118C36.0368 25.1695 36.1867 25.2641 36.3097 25.3886C36.4328 25.5131 36.5257 25.6641 36.5814 25.83C34.0764 26.0267 31.5583 25.9853 29.0611 25.7062C32.7676 27.6214 36.5567 29.3797 39.9578 31.8397L39.9082 31.9388Z" fill="#1A1A1A"></path><path d="M31.8762 18.475C31.191 18.5988 30.5141 18.7391 29.8289 18.8464C27.3029 19.2675 24.7603 19.6142 22.2508 20.1012C18.0764 20.9613 14.1627 22.7909 10.8257 25.4423C9.74079 26.2401 8.84692 27.2694 8.20886 28.4554C7.87516 29.0568 7.68378 29.7267 7.64944 30.4136C7.61509 31.1005 7.73869 31.7861 8.01074 32.4178C8.01074 32.4838 8.01074 32.5499 8.08503 32.6655C7.84563 32.6077 7.64751 32.5664 7.45764 32.5086C6.58668 32.3031 5.76656 31.9227 5.04709 31.3906C4.32762 30.8584 3.72381 30.1856 3.27232 29.413C2.5141 28.0824 2.22346 26.5363 2.44681 25.0212C2.71563 22.8303 3.48353 20.7302 4.69142 18.8826C5.89931 17.035 7.51498 15.4891 9.4141 14.3639C10.6546 13.5831 12.0772 13.1392 13.5416 13.0761C13.9247 13.0551 14.3026 13.1723 14.6065 13.4063C14.742 13.5031 14.8716 13.6078 14.9945 13.72C15.2774 14.0081 15.6196 14.2312 15.9974 14.3738C16.3752 14.5163 16.7794 14.5749 17.1821 14.5455C17.9794 14.5538 18.7612 14.767 19.4523 15.1647C20.575 15.6765 21.6646 16.2626 22.7543 16.7579C24.2887 17.387 25.9027 17.801 27.5505 17.9879C28.8961 18.1778 30.2499 18.2603 31.6038 18.3842H31.8019V18.4585L31.8762 18.475ZM9.29853 22.8089H8.86926C8.30792 22.7263 8.09329 22.4209 8.33268 21.9091C8.49997 21.5829 8.71722 21.2849 8.97658 21.0258C9.24074 20.7451 9.57095 20.5222 9.85162 20.2416C9.98358 20.0755 10.0971 19.8956 10.1901 19.705C9.25037 19.9569 8.36386 20.3763 7.57322 20.9432C6.98114 21.4027 6.57862 22.0637 6.44227 22.8006C6.40962 22.872 6.39303 22.9498 6.3937 23.0283C6.39436 23.1068 6.41225 23.1842 6.4461 23.2551C6.47995 23.3259 6.52894 23.3885 6.58962 23.4383C6.65029 23.4882 6.72116 23.5241 6.79724 23.5436C7.23997 23.6836 7.71438 23.6884 8.15989 23.5576C8.60541 23.4267 9.00182 23.1661 9.29853 22.8089Z" fill="#1A1A1A"></path><path d="M28.7389 2.48463C28.5491 2.6002 28.4418 2.67449 28.3344 2.73228C26.4523 3.72289 24.5619 4.69699 22.688 5.70411C20.9338 6.57633 19.3312 7.72466 17.9413 9.1052C17.4212 9.65004 16.9672 10.2609 16.4224 10.847C16.5379 10.3352 16.6205 9.81514 16.7773 9.31984C17.1146 8.26719 17.6615 7.29373 18.3851 6.45809C19.1086 5.62246 19.9938 4.94196 20.9874 4.45759C22.7165 3.56155 24.5878 2.97221 26.5183 2.71577C27.1375 2.61671 27.7648 2.55892 28.384 2.48463C28.4665 2.47637 28.5738 2.48463 28.7389 2.48463Z" fill="#1A1A1A"></path><path d="M16.4883 6.55441C16.3727 6.88462 16.2737 7.22308 16.1251 7.54502C15.9765 7.86697 15.7619 8.21369 15.5802 8.54389C15.1288 9.27184 14.8967 10.1144 14.9116 10.9709L12.4351 11.3919C12.9799 9.09698 14.7217 7.84221 16.3562 6.50488L16.4883 6.55441Z" fill="#1A1A1A"></path><path d="M25.3957 13.4062C25.6278 12.8117 25.6278 12.1516 25.3957 11.5571C25.3202 11.7249 25.229 11.8852 25.1233 12.0359C25.0179 12.181 24.8753 12.2951 24.7106 12.3661C24.3473 12.4651 24.2153 12.3661 24.2235 11.9863C24.2223 11.707 24.2612 11.429 24.3391 11.1608C24.4022 10.9559 24.5426 10.7835 24.7306 10.6803C24.9186 10.5771 25.1394 10.551 25.3462 10.6077C25.6607 10.6706 25.956 10.8064 26.2084 11.0043C26.4607 11.2021 26.6631 11.4565 26.7991 11.7469C26.9232 11.9549 26.9615 12.2029 26.9061 12.4386C26.8506 12.6743 26.7057 12.8792 26.5019 13.01C26.1757 13.2063 25.8365 13.3801 25.4865 13.53L25.3957 13.4062Z" fill="#1A1A1A"></path><path d="M22.2836 12.5229L22.5891 13.3485L22.5065 13.4062L21.3921 13.0678C21.4767 12.9041 21.6045 12.7668 21.7617 12.6707C21.9189 12.5746 22.0994 12.5235 22.2836 12.5229Z" fill="#1A1A1A"></path><path d="M9.29805 22.8087C8.99741 23.1525 8.6026 23.4006 8.16245 23.5224C7.7223 23.6441 7.25611 23.6342 6.82153 23.4939C6.74545 23.4744 6.67458 23.4385 6.61391 23.3886C6.55323 23.3388 6.50424 23.2762 6.47039 23.2054C6.43654 23.1345 6.41865 23.0571 6.41799 22.9786C6.41733 22.9001 6.43391 22.8223 6.46656 22.7509C6.60291 22.014 7.00543 21.353 7.59751 20.8935C8.38815 20.3266 9.27466 19.9072 10.2144 19.6553C10.1214 19.8459 10.0079 20.0258 9.87591 20.1919C9.60349 20.4725 9.27329 20.6872 9.00087 20.9761C8.74151 21.2352 8.52426 21.5332 8.35697 21.8594C8.11758 22.3795 8.35697 22.6849 8.89355 22.7592L9.29805 22.8087Z" fill="#1A1A1A"></path></svg> 