<?xml version="1.0" encoding="UTF-8"?> <svg xmlns="http://www.w3.org/2000/svg" width="24" height="24" viewBox="0 0 24 24" fill="none"><path d="M11.5 1C17.2992 1 22 5.70085 22 11.5C22 17.2991 17.2992 22 11.5 22C9.64443 22.003 7.8215 21.5119 6.21851 20.5772L1.00421 22L2.42381 16.7836C1.48836 15.1801 0.996915 13.3564 1.00001 11.5C1.00001 5.70085 5.70086 1 11.5 1ZM7.92161 6.565L7.71161 6.5734C7.57566 6.58168 7.44279 6.61739 7.32101 6.6784C7.20711 6.7429 7.10313 6.82353 7.01231 6.9178C6.88631 7.03645 6.81491 7.13935 6.73826 7.2391C6.34989 7.74404 6.14078 8.36397 6.14396 9.00099C6.14606 9.51549 6.28046 10.0163 6.49046 10.4846C6.91991 11.4317 7.62656 12.4345 8.55896 13.3637C8.78366 13.5874 9.00416 13.8121 9.24146 14.021C10.4 15.0411 11.7806 15.7767 13.2735 16.1693L13.8699 16.2607C14.0641 16.2712 14.2584 16.2565 14.4537 16.247C14.7595 16.2313 15.0581 16.1485 15.3283 16.0045C15.4658 15.9337 15.6 15.8566 15.7305 15.7735C15.7305 15.7735 15.7756 15.7441 15.8617 15.679C16.0035 15.574 16.0906 15.4994 16.2082 15.3766C16.2954 15.2863 16.371 15.1802 16.4287 15.0595C16.5106 14.8883 16.5925 14.5618 16.6261 14.2898C16.6513 14.0819 16.644 13.9685 16.6408 13.8982C16.6366 13.7858 16.5432 13.6693 16.4413 13.6199L15.8302 13.3459C15.8302 13.3459 14.9167 12.9479 14.3581 12.6938C14.2997 12.6683 14.237 12.6537 14.1733 12.6508C14.1015 12.6434 14.0289 12.6515 13.9604 12.6745C13.892 12.6975 13.8292 12.7349 13.7764 12.7841C13.7712 12.782 13.7008 12.8419 12.9417 13.7617C12.8981 13.8202 12.8381 13.8645 12.7692 13.8888C12.7004 13.9131 12.6259 13.9164 12.5553 13.8982C12.4869 13.8799 12.4198 13.8567 12.3547 13.8289C12.2245 13.7743 12.1794 13.7533 12.0901 13.7155C11.4875 13.4525 10.9295 13.0972 10.4364 12.6623C10.3041 12.5468 10.1812 12.4208 10.0552 12.299C9.64213 11.9034 9.28212 11.4559 8.98421 10.9676L8.92226 10.8679C8.87776 10.8009 8.84179 10.7286 8.81516 10.6526C8.77526 10.4983 8.87921 10.3744 8.87921 10.3744C8.87921 10.3744 9.13436 10.0951 9.25301 9.94389C9.36851 9.79689 9.46616 9.6541 9.52916 9.55225C9.65306 9.35275 9.69191 9.14799 9.62681 8.98945C9.33281 8.27125 9.02831 7.5562 8.71541 6.8464C8.65346 6.7057 8.46971 6.6049 8.30276 6.58495C8.24606 6.57865 8.18936 6.57235 8.13266 6.56815C7.99165 6.56114 7.85035 6.56254 7.70951 6.57235L7.92056 6.56395L7.92161 6.565Z" fill="#1A1A1A"></path></svg> 