<svg xmlns="http://www.w3.org/2000/svg" xmlns:xlink="http://www.w3.org/1999/xlink" width="64" zoomAndPan="magnify" viewBox="0 0 48 48" height="64" preserveAspectRatio="xMidYMid meet" version="1.0"><defs><clipPath id="482e745c74"><path d="M 40.394531 14.515625 L 45.535156 14.515625 L 45.535156 20.394531 L 40.394531 20.394531 Z M 40.394531 14.515625 " clip-rule="nonzero"/></clipPath><clipPath id="30e48a9359"><path d="M 43.371094 17.347656 C 43.371094 17.449219 43.320312 17.5 43.214844 17.5 C 43.113281 17.5 43.0625 17.449219 43.0625 17.347656 C 43.0625 17.246094 43.113281 17.195312 43.21875 17.195312 C 43.320312 17.195312 43.371094 17.246094 43.371094 17.347656 Z M 42.910156 17.511719 C 42.816406 17.511719 42.765625 17.558594 42.765625 17.652344 C 42.769531 17.75 42.816406 17.796875 42.910156 17.796875 C 43.007812 17.796875 43.054688 17.75 43.054688 17.652344 C 43.054688 17.558594 43.007812 17.511719 42.910156 17.511719 Z M 42.605469 17.824219 C 42.515625 17.824219 42.472656 17.871094 42.472656 17.960938 C 42.472656 18.050781 42.515625 18.09375 42.605469 18.09375 C 42.695312 18.09375 42.738281 18.050781 42.738281 17.960938 C 42.738281 17.871094 42.695312 17.824219 42.605469 17.824219 Z M 42.300781 18.140625 C 42.21875 18.140625 42.175781 18.183594 42.175781 18.265625 C 42.175781 18.347656 42.21875 18.390625 42.300781 18.390625 C 42.382812 18.390625 42.425781 18.347656 42.425781 18.265625 C 42.425781 18.183594 42.382812 18.140625 42.300781 18.140625 Z M 41.996094 18.457031 C 41.917969 18.457031 41.878906 18.492188 41.878906 18.570312 C 41.878906 18.648438 41.917969 18.683594 41.996094 18.683594 C 42.070312 18.683594 42.109375 18.648438 42.109375 18.570312 C 42.109375 18.492188 42.070312 18.457031 41.992188 18.457031 Z M 41.6875 18.769531 C 41.617188 18.769531 41.582031 18.804688 41.582031 18.875 C 41.582031 18.945312 41.617188 18.980469 41.6875 18.980469 C 41.757812 18.980469 41.792969 18.945312 41.792969 18.875 C 41.792969 18.804688 41.757812 18.769531 41.6875 18.769531 Z M 41.382812 19.085938 C 41.320312 19.085938 41.289062 19.117188 41.289062 19.179688 C 41.289062 19.246094 41.320312 19.277344 41.382812 19.277344 C 41.445312 19.277344 41.476562 19.246094 41.476562 19.179688 C 41.476562 19.117188 41.445312 19.085938 41.382812 19.085938 Z M 41.078125 19.402344 C 41.019531 19.402344 40.992188 19.429688 40.992188 19.488281 C 40.992188 19.546875 41.019531 19.574219 41.078125 19.574219 C 41.132812 19.574219 41.164062 19.542969 41.164062 19.488281 C 41.160156 19.429688 41.132812 19.402344 41.078125 19.402344 Z M 40.769531 19.71875 C 40.71875 19.71875 40.695312 19.742188 40.695312 19.792969 C 40.695312 19.84375 40.71875 19.871094 40.769531 19.871094 C 40.820312 19.871094 40.847656 19.84375 40.847656 19.792969 C 40.847656 19.742188 40.820312 19.71875 40.769531 19.71875 Z M 40.464844 20.03125 C 40.421875 20.03125 40.398438 20.054688 40.398438 20.097656 C 40.398438 20.144531 40.421875 20.164062 40.464844 20.164062 C 40.507812 20.164062 40.53125 20.144531 40.53125 20.097656 C 40.53125 20.054688 40.507812 20.03125 40.464844 20.03125 Z M 43.832031 17.195312 C 43.730469 17.195312 43.679688 17.246094 43.679688 17.347656 C 43.679688 17.449219 43.730469 17.5 43.832031 17.5 C 43.933594 17.5 43.984375 17.449219 43.984375 17.347656 C 43.984375 17.246094 43.933594 17.195312 43.832031 17.195312 Z M 43.527344 17.511719 C 43.429688 17.511719 43.382812 17.558594 43.382812 17.652344 C 43.382812 17.75 43.429688 17.796875 43.527344 17.796875 C 43.621094 17.796875 43.667969 17.75 43.667969 17.652344 C 43.667969 17.558594 43.621094 17.511719 43.527344 17.511719 Z M 43.21875 17.824219 C 43.132812 17.824219 43.085938 17.871094 43.085938 17.960938 C 43.085938 18.046875 43.132812 18.09375 43.21875 18.09375 C 43.308594 18.09375 43.355469 18.046875 43.355469 17.957031 C 43.355469 17.871094 43.308594 17.824219 43.21875 17.824219 Z M 42.914062 18.140625 C 42.832031 18.140625 42.789062 18.183594 42.789062 18.265625 C 42.789062 18.347656 42.832031 18.390625 42.914062 18.390625 C 42.996094 18.390625 43.039062 18.347656 43.039062 18.265625 C 43.039062 18.183594 42.996094 18.140625 42.914062 18.140625 Z M 42.609375 18.457031 C 42.53125 18.457031 42.496094 18.492188 42.496094 18.570312 C 42.496094 18.648438 42.53125 18.683594 42.609375 18.683594 C 42.683594 18.683594 42.722656 18.648438 42.722656 18.570312 C 42.722656 18.492188 42.683594 18.457031 42.609375 18.457031 Z M 42.304688 18.769531 C 42.234375 18.773438 42.199219 18.808594 42.199219 18.875 C 42.199219 18.945312 42.234375 18.980469 42.304688 18.980469 C 42.375 18.980469 42.410156 18.945312 42.410156 18.875 C 42.410156 18.804688 42.375 18.769531 42.304688 18.769531 Z M 41.996094 19.085938 C 41.933594 19.085938 41.902344 19.117188 41.902344 19.179688 C 41.902344 19.246094 41.933594 19.277344 41.996094 19.277344 C 42.0625 19.277344 42.09375 19.246094 42.09375 19.179688 C 42.09375 19.117188 42.0625 19.085938 41.996094 19.085938 Z M 41.691406 19.402344 C 41.632812 19.402344 41.605469 19.429688 41.605469 19.488281 C 41.605469 19.542969 41.632812 19.574219 41.691406 19.574219 C 41.75 19.574219 41.777344 19.542969 41.777344 19.488281 C 41.777344 19.429688 41.75 19.402344 41.691406 19.402344 Z M 41.386719 19.71875 C 41.335938 19.71875 41.308594 19.742188 41.308594 19.792969 C 41.308594 19.84375 41.335938 19.871094 41.386719 19.871094 C 41.4375 19.871094 41.460938 19.84375 41.460938 19.792969 C 41.460938 19.742188 41.4375 19.71875 41.386719 19.71875 Z M 41.082031 20.03125 C 41.035156 20.03125 41.015625 20.054688 41.015625 20.097656 C 41.015625 20.144531 41.035156 20.164062 41.082031 20.164062 C 41.125 20.164062 41.148438 20.144531 41.148438 20.097656 C 41.148438 20.054688 41.125 20.03125 41.082031 20.03125 Z M 44.445312 17.195312 C 44.34375 17.195312 44.292969 17.246094 44.292969 17.347656 C 44.292969 17.449219 44.34375 17.5 44.445312 17.5 C 44.550781 17.5 44.601562 17.449219 44.601562 17.347656 C 44.601562 17.246094 44.550781 17.195312 44.445312 17.195312 Z M 44.140625 17.511719 C 44.046875 17.511719 43.996094 17.558594 43.996094 17.652344 C 43.996094 17.75 44.046875 17.796875 44.140625 17.796875 C 44.238281 17.796875 44.285156 17.75 44.285156 17.652344 C 44.285156 17.558594 44.238281 17.511719 44.140625 17.511719 Z M 43.835938 17.824219 C 43.746094 17.824219 43.699219 17.871094 43.699219 17.960938 C 43.699219 18.046875 43.746094 18.09375 43.835938 18.09375 C 43.925781 18.09375 43.96875 18.046875 43.96875 17.957031 C 43.96875 17.871094 43.925781 17.824219 43.835938 17.824219 Z M 43.53125 18.140625 C 43.445312 18.140625 43.40625 18.183594 43.40625 18.265625 C 43.40625 18.347656 43.445312 18.390625 43.53125 18.390625 C 43.613281 18.390625 43.652344 18.347656 43.652344 18.265625 C 43.652344 18.183594 43.613281 18.140625 43.53125 18.140625 Z M 43.222656 18.457031 C 43.148438 18.457031 43.109375 18.492188 43.109375 18.570312 C 43.109375 18.648438 43.148438 18.683594 43.222656 18.683594 C 43.300781 18.683594 43.339844 18.648438 43.339844 18.570312 C 43.339844 18.492188 43.300781 18.457031 43.222656 18.457031 Z M 42.917969 18.769531 C 42.847656 18.769531 42.8125 18.804688 42.8125 18.875 C 42.8125 18.945312 42.847656 18.980469 42.917969 18.980469 C 42.988281 18.980469 43.023438 18.945312 43.023438 18.875 C 43.023438 18.804688 42.988281 18.769531 42.917969 18.769531 Z M 42.613281 19.085938 C 42.550781 19.085938 42.519531 19.117188 42.519531 19.179688 C 42.519531 19.246094 42.550781 19.277344 42.613281 19.277344 C 42.675781 19.277344 42.707031 19.246094 42.707031 19.179688 C 42.707031 19.117188 42.675781 19.085938 42.613281 19.085938 Z M 42.308594 19.402344 C 42.25 19.402344 42.222656 19.429688 42.222656 19.488281 C 42.222656 19.546875 42.25 19.574219 42.308594 19.574219 C 42.363281 19.574219 42.394531 19.542969 42.394531 19.488281 C 42.390625 19.429688 42.363281 19.402344 42.308594 19.402344 Z M 42 19.71875 C 41.949219 19.71875 41.925781 19.742188 41.925781 19.792969 C 41.925781 19.84375 41.949219 19.871094 42 19.871094 C 42.050781 19.871094 42.078125 19.84375 42.078125 19.792969 C 42.078125 19.742188 42.050781 19.71875 42 19.71875 Z M 41.695312 20.03125 C 41.652344 20.03125 41.628906 20.054688 41.628906 20.097656 C 41.628906 20.144531 41.652344 20.164062 41.695312 20.164062 C 41.738281 20.164062 41.761719 20.144531 41.761719 20.097656 C 41.761719 20.054688 41.738281 20.03125 41.695312 20.03125 Z M 45.0625 17.195312 C 44.960938 17.195312 44.910156 17.246094 44.910156 17.347656 C 44.910156 17.449219 44.960938 17.5 45.0625 17.5 C 45.164062 17.5 45.214844 17.449219 45.214844 17.347656 C 45.214844 17.246094 45.164062 17.195312 45.0625 17.195312 Z M 44.757812 17.511719 C 44.660156 17.511719 44.613281 17.558594 44.613281 17.652344 C 44.613281 17.75 44.660156 17.796875 44.757812 17.796875 C 44.851562 17.796875 44.898438 17.75 44.898438 17.652344 C 44.898438 17.558594 44.851562 17.511719 44.757812 17.511719 Z M 44.449219 17.824219 C 44.363281 17.824219 44.316406 17.871094 44.316406 17.960938 C 44.316406 18.046875 44.363281 18.09375 44.449219 18.09375 C 44.539062 18.09375 44.585938 18.046875 44.585938 17.957031 C 44.585938 17.871094 44.539062 17.824219 44.449219 17.824219 Z M 44.144531 18.140625 C 44.0625 18.140625 44.019531 18.183594 44.019531 18.265625 C 44.023438 18.347656 44.0625 18.390625 44.144531 18.390625 C 44.226562 18.390625 44.269531 18.347656 44.269531 18.265625 C 44.269531 18.179688 44.226562 18.140625 44.144531 18.140625 Z M 43.839844 18.457031 C 43.761719 18.457031 43.726562 18.492188 43.726562 18.570312 C 43.726562 18.648438 43.761719 18.683594 43.839844 18.683594 C 43.914062 18.683594 43.953125 18.648438 43.953125 18.570312 C 43.953125 18.492188 43.914062 18.457031 43.839844 18.457031 Z M 43.535156 18.769531 C 43.464844 18.769531 43.429688 18.804688 43.429688 18.875 C 43.429688 18.945312 43.464844 18.980469 43.535156 18.980469 C 43.601562 18.980469 43.636719 18.945312 43.636719 18.875 C 43.636719 18.804688 43.605469 18.769531 43.535156 18.769531 Z M 43.226562 19.085938 C 43.164062 19.085938 43.132812 19.117188 43.132812 19.179688 C 43.132812 19.246094 43.164062 19.277344 43.226562 19.277344 C 43.292969 19.277344 43.324219 19.246094 43.324219 19.179688 C 43.324219 19.117188 43.292969 19.085938 43.226562 19.085938 Z M 42.921875 19.402344 C 42.863281 19.402344 42.835938 19.429688 42.835938 19.488281 C 42.835938 19.542969 42.863281 19.574219 42.921875 19.574219 C 42.980469 19.574219 43.007812 19.542969 43.007812 19.488281 C 43.007812 19.429688 42.980469 19.402344 42.921875 19.402344 Z M 42.617188 19.71875 C 42.566406 19.71875 42.539062 19.742188 42.539062 19.792969 C 42.539062 19.84375 42.566406 19.871094 42.617188 19.871094 C 42.667969 19.871094 42.691406 19.84375 42.691406 19.792969 C 42.691406 19.742188 42.667969 19.71875 42.617188 19.71875 Z M 42.3125 20.03125 C 42.265625 20.03125 42.246094 20.054688 42.242188 20.097656 C 42.242188 20.144531 42.265625 20.164062 42.3125 20.164062 C 42.355469 20.164062 42.378906 20.144531 42.378906 20.097656 C 42.378906 20.054688 42.355469 20.03125 42.3125 20.03125 Z M 42.910156 16.898438 C 42.816406 16.898438 42.769531 16.945312 42.765625 17.042969 C 42.765625 17.136719 42.816406 17.183594 42.910156 17.183594 C 43.007812 17.1875 43.054688 17.136719 43.054688 17.042969 C 43.054688 16.945312 43.007812 16.898438 42.910156 16.898438 Z M 42.605469 16.601562 C 42.515625 16.601562 42.472656 16.648438 42.472656 16.734375 C 42.472656 16.824219 42.515625 16.871094 42.605469 16.871094 C 42.695312 16.871094 42.738281 16.824219 42.738281 16.734375 C 42.738281 16.648438 42.695312 16.601562 42.605469 16.601562 Z M 42.300781 16.304688 C 42.21875 16.304688 42.175781 16.347656 42.175781 16.429688 C 42.175781 16.511719 42.21875 16.554688 42.300781 16.554688 C 42.382812 16.554688 42.425781 16.511719 42.425781 16.429688 C 42.425781 16.347656 42.382812 16.304688 42.300781 16.304688 Z M 41.992188 16.011719 C 41.917969 16.011719 41.878906 16.046875 41.878906 16.125 C 41.878906 16.199219 41.917969 16.238281 41.992188 16.238281 C 42.070312 16.238281 42.109375 16.199219 42.109375 16.125 C 42.109375 16.046875 42.070312 16.011719 41.992188 16.011719 Z M 41.6875 15.714844 C 41.617188 15.714844 41.582031 15.75 41.582031 15.820312 C 41.582031 15.890625 41.617188 15.925781 41.6875 15.925781 C 41.757812 15.925781 41.792969 15.890625 41.792969 15.820312 C 41.792969 15.75 41.757812 15.714844 41.6875 15.714844 Z M 41.382812 15.417969 C 41.320312 15.417969 41.289062 15.449219 41.289062 15.511719 C 41.289062 15.578125 41.320312 15.609375 41.382812 15.609375 C 41.445312 15.609375 41.476562 15.578125 41.476562 15.511719 C 41.476562 15.449219 41.445312 15.417969 41.382812 15.417969 Z M 41.078125 15.121094 C 41.019531 15.121094 40.992188 15.152344 40.992188 15.207031 C 40.992188 15.265625 41.019531 15.292969 41.078125 15.292969 C 41.132812 15.292969 41.164062 15.265625 41.164062 15.207031 C 41.164062 15.152344 41.132812 15.121094 41.078125 15.121094 Z M 40.769531 14.824219 C 40.71875 14.824219 40.695312 14.851562 40.695312 14.902344 C 40.695312 14.953125 40.71875 14.976562 40.769531 14.976562 C 40.820312 14.976562 40.847656 14.953125 40.847656 14.902344 C 40.847656 14.851562 40.820312 14.824219 40.769531 14.824219 Z M 40.464844 14.53125 C 40.421875 14.53125 40.398438 14.550781 40.398438 14.597656 C 40.398438 14.640625 40.421875 14.664062 40.464844 14.664062 C 40.507812 14.664062 40.53125 14.640625 40.53125 14.597656 C 40.53125 14.550781 40.507812 14.53125 40.464844 14.53125 Z M 43.527344 16.898438 C 43.429688 16.898438 43.382812 16.945312 43.382812 17.042969 C 43.382812 17.136719 43.429688 17.183594 43.527344 17.183594 C 43.621094 17.1875 43.667969 17.136719 43.667969 17.042969 C 43.667969 16.945312 43.621094 16.898438 43.527344 16.898438 Z M 43.21875 16.871094 C 43.308594 16.871094 43.355469 16.824219 43.355469 16.734375 C 43.355469 16.648438 43.308594 16.601562 43.21875 16.601562 C 43.132812 16.601562 43.085938 16.648438 43.085938 16.734375 C 43.085938 16.824219 43.132812 16.871094 43.21875 16.871094 Z M 42.914062 16.554688 C 42.996094 16.554688 43.039062 16.511719 43.039062 16.429688 C 43.039062 16.347656 42.996094 16.304688 42.914062 16.304688 C 42.832031 16.308594 42.789062 16.347656 42.789062 16.429688 C 42.792969 16.511719 42.832031 16.554688 42.914062 16.554688 Z M 42.609375 16.238281 C 42.683594 16.238281 42.722656 16.199219 42.722656 16.125 C 42.722656 16.046875 42.683594 16.011719 42.609375 16.011719 C 42.53125 16.011719 42.496094 16.046875 42.496094 16.125 C 42.496094 16.203125 42.53125 16.238281 42.609375 16.238281 Z M 42.304688 15.925781 C 42.375 15.925781 42.410156 15.890625 42.410156 15.820312 C 42.410156 15.75 42.375 15.714844 42.304688 15.714844 C 42.234375 15.714844 42.199219 15.75 42.199219 15.820312 C 42.199219 15.890625 42.234375 15.925781 42.304688 15.925781 Z M 41.996094 15.609375 C 42.0625 15.609375 42.09375 15.578125 42.09375 15.511719 C 42.09375 15.449219 42.0625 15.417969 41.996094 15.417969 C 41.933594 15.417969 41.902344 15.449219 41.902344 15.511719 C 41.902344 15.578125 41.933594 15.609375 41.996094 15.609375 Z M 41.691406 15.292969 C 41.75 15.292969 41.777344 15.265625 41.777344 15.207031 C 41.777344 15.152344 41.75 15.121094 41.691406 15.121094 C 41.632812 15.121094 41.605469 15.152344 41.605469 15.207031 C 41.605469 15.265625 41.632812 15.292969 41.691406 15.292969 Z M 41.386719 14.976562 C 41.4375 14.976562 41.460938 14.953125 41.460938 14.902344 C 41.460938 14.851562 41.4375 14.824219 41.386719 14.824219 C 41.335938 14.824219 41.308594 14.851562 41.308594 14.902344 C 41.308594 14.953125 41.335938 14.976562 41.386719 14.976562 Z M 41.082031 14.664062 C 41.125 14.664062 41.148438 14.640625 41.148438 14.597656 C 41.148438 14.550781 41.125 14.53125 41.082031 14.53125 C 41.035156 14.53125 41.015625 14.550781 41.015625 14.597656 C 41.015625 14.640625 41.035156 14.664062 41.082031 14.664062 Z M 44.140625 16.898438 C 44.046875 16.898438 43.996094 16.945312 43.996094 17.042969 C 43.996094 17.136719 44.046875 17.183594 44.140625 17.183594 C 44.238281 17.1875 44.285156 17.136719 44.285156 17.042969 C 44.285156 16.945312 44.238281 16.898438 44.140625 16.898438 Z M 43.835938 16.871094 C 43.925781 16.871094 43.96875 16.824219 43.96875 16.734375 C 43.96875 16.648438 43.925781 16.601562 43.835938 16.601562 C 43.746094 16.601562 43.699219 16.648438 43.703125 16.734375 C 43.699219 16.824219 43.746094 16.871094 43.835938 16.871094 Z M 43.53125 16.554688 C 43.613281 16.554688 43.652344 16.511719 43.652344 16.429688 C 43.652344 16.347656 43.613281 16.304688 43.53125 16.304688 C 43.445312 16.304688 43.40625 16.347656 43.40625 16.429688 C 43.40625 16.511719 43.445312 16.554688 43.53125 16.554688 Z M 43.222656 16.238281 C 43.300781 16.238281 43.339844 16.199219 43.339844 16.125 C 43.339844 16.046875 43.300781 16.011719 43.222656 16.011719 C 43.148438 16.011719 43.109375 16.046875 43.109375 16.125 C 43.109375 16.203125 43.148438 16.238281 43.222656 16.238281 Z M 42.917969 15.925781 C 42.988281 15.925781 43.023438 15.890625 43.023438 15.820312 C 43.023438 15.75 42.988281 15.714844 42.917969 15.714844 C 42.847656 15.714844 42.8125 15.75 42.8125 15.820312 C 42.8125 15.890625 42.847656 15.925781 42.917969 15.925781 Z M 42.613281 15.609375 C 42.675781 15.609375 42.707031 15.578125 42.707031 15.511719 C 42.707031 15.449219 42.675781 15.417969 42.613281 15.417969 C 42.550781 15.417969 42.519531 15.449219 42.519531 15.511719 C 42.519531 15.578125 42.550781 15.609375 42.613281 15.609375 Z M 42.308594 15.292969 C 42.363281 15.292969 42.394531 15.265625 42.394531 15.207031 C 42.394531 15.152344 42.363281 15.121094 42.308594 15.121094 C 42.25 15.121094 42.222656 15.152344 42.222656 15.207031 C 42.222656 15.265625 42.25 15.292969 42.308594 15.292969 Z M 42 14.976562 C 42.050781 14.976562 42.078125 14.953125 42.078125 14.902344 C 42.078125 14.851562 42.050781 14.824219 42 14.824219 C 41.949219 14.824219 41.925781 14.851562 41.925781 14.902344 C 41.925781 14.953125 41.949219 14.976562 42 14.976562 Z M 41.695312 14.664062 C 41.738281 14.664062 41.761719 14.640625 41.761719 14.597656 C 41.761719 14.550781 41.738281 14.53125 41.695312 14.53125 C 41.652344 14.53125 41.628906 14.550781 41.628906 14.597656 C 41.628906 14.640625 41.652344 14.664062 41.695312 14.664062 Z M 44.757812 16.898438 C 44.660156 16.898438 44.613281 16.945312 44.613281 17.042969 C 44.613281 17.136719 44.660156 17.183594 44.757812 17.183594 C 44.851562 17.1875 44.898438 17.136719 44.898438 17.042969 C 44.898438 16.945312 44.851562 16.898438 44.757812 16.898438 Z M 44.449219 16.871094 C 44.539062 16.871094 44.585938 16.824219 44.585938 16.734375 C 44.585938 16.648438 44.539062 16.601562 44.449219 16.601562 C 44.363281 16.601562 44.316406 16.648438 44.316406 16.734375 C 44.316406 16.824219 44.363281 16.871094 44.449219 16.871094 Z M 44.144531 16.554688 C 44.226562 16.554688 44.269531 16.511719 44.269531 16.429688 C 44.269531 16.347656 44.226562 16.304688 44.144531 16.304688 C 44.0625 16.304688 44.019531 16.347656 44.019531 16.429688 C 44.019531 16.511719 44.0625 16.554688 44.144531 16.554688 Z M 43.839844 16.238281 C 43.914062 16.238281 43.953125 16.199219 43.953125 16.125 C 43.953125 16.046875 43.914062 16.011719 43.839844 16.011719 C 43.761719 16.011719 43.726562 16.046875 43.726562 16.125 C 43.726562 16.203125 43.761719 16.238281 43.839844 16.238281 Z M 43.535156 15.925781 C 43.605469 15.925781 43.636719 15.890625 43.636719 15.820312 C 43.640625 15.75 43.605469 15.714844 43.535156 15.714844 C 43.464844 15.714844 43.429688 15.75 43.429688 15.820312 C 43.429688 15.890625 43.464844 15.925781 43.535156 15.925781 Z M 43.226562 15.609375 C 43.292969 15.609375 43.324219 15.578125 43.324219 15.511719 C 43.324219 15.449219 43.292969 15.417969 43.226562 15.417969 C 43.164062 15.417969 43.132812 15.449219 43.132812 15.511719 C 43.132812 15.578125 43.164062 15.609375 43.226562 15.609375 Z M 42.921875 15.292969 C 42.980469 15.292969 43.007812 15.265625 43.007812 15.207031 C 43.007812 15.152344 42.980469 15.121094 42.921875 15.121094 C 42.863281 15.121094 42.835938 15.152344 42.835938 15.207031 C 42.835938 15.265625 42.863281 15.292969 42.921875 15.292969 Z M 42.617188 14.976562 C 42.667969 14.976562 42.691406 14.953125 42.691406 14.902344 C 42.691406 14.851562 42.667969 14.824219 42.617188 14.824219 C 42.566406 14.824219 42.539062 14.851562 42.539062 14.902344 C 42.539062 14.953125 42.566406 14.976562 42.617188 14.976562 Z M 42.3125 14.664062 C 42.355469 14.664062 42.378906 14.640625 42.378906 14.597656 C 42.378906 14.550781 42.355469 14.53125 42.3125 14.53125 C 42.265625 14.53125 42.242188 14.550781 42.246094 14.597656 C 42.246094 14.640625 42.265625 14.664062 42.3125 14.664062 Z M 42.3125 14.664062 " clip-rule="nonzero"/></clipPath><linearGradient x1="354.609998" gradientTransform="matrix(0.0135815, 0, 0, 0.0135815, 40.398911, 14.529791)" y1="207.48" x2="-0.0144373" gradientUnits="userSpaceOnUse" y2="207.48" id="fa66597333"><stop stop-opacity="1" stop-color="rgb(10.198975%, 10.198975%, 10.198975%)" offset="0"/><stop stop-opacity="1" stop-color="rgb(10.198975%, 10.198975%, 10.198975%)" offset="0.0625"/><stop stop-opacity="1" stop-color="rgb(10.198975%, 10.198975%, 10.198975%)" offset="0.09375"/><stop stop-opacity="1" stop-color="rgb(10.198975%, 10.198975%, 10.198975%)" offset="0.101562"/><stop stop-opacity="1" stop-color="rgb(10.545349%, 10.545349%, 10.545349%)" offset="0.105469"/><stop stop-opacity="1" stop-color="rgb(10.891724%, 10.891724%, 10.891724%)" offset="0.109375"/><stop stop-opacity="1" stop-color="rgb(11.26709%, 11.26709%, 11.26709%)" offset="0.113281"/><stop stop-opacity="1" stop-color="rgb(11.642456%, 11.642456%, 11.642456%)" offset="0.117187"/><stop stop-opacity="1" stop-color="rgb(12.017822%, 12.017822%, 12.017822%)" offset="0.121094"/><stop stop-opacity="1" stop-color="rgb(12.393188%, 12.393188%, 12.393188%)" offset="0.125"/><stop stop-opacity="1" stop-color="rgb(12.768555%, 12.768555%, 12.768555%)" offset="0.128906"/><stop stop-opacity="1" stop-color="rgb(13.143921%, 13.143921%, 13.143921%)" offset="0.132812"/><stop stop-opacity="1" stop-color="rgb(13.519287%, 13.519287%, 13.519287%)" offset="0.136719"/><stop stop-opacity="1" stop-color="rgb(13.894653%, 13.894653%, 13.894653%)" offset="0.140625"/><stop stop-opacity="1" stop-color="rgb(14.27002%, 14.27002%, 14.27002%)" offset="0.144531"/><stop stop-opacity="1" stop-color="rgb(14.645386%, 14.645386%, 14.645386%)" offset="0.148437"/><stop stop-opacity="1" stop-color="rgb(15.020752%, 15.020752%, 15.020752%)" offset="0.152344"/><stop stop-opacity="1" stop-color="rgb(15.396118%, 15.396118%, 15.396118%)" offset="0.15625"/><stop stop-opacity="1" stop-color="rgb(15.771484%, 15.771484%, 15.771484%)" offset="0.160156"/><stop stop-opacity="1" stop-color="rgb(16.146851%, 16.146851%, 16.146851%)" offset="0.164062"/><stop stop-opacity="1" stop-color="rgb(16.522217%, 16.522217%, 16.522217%)" offset="0.167969"/><stop stop-opacity="1" stop-color="rgb(16.897583%, 16.897583%, 16.897583%)" offset="0.171875"/><stop stop-opacity="1" stop-color="rgb(17.272949%, 17.272949%, 17.272949%)" offset="0.175781"/><stop stop-opacity="1" stop-color="rgb(17.648315%, 17.648315%, 17.648315%)" offset="0.179687"/><stop stop-opacity="1" stop-color="rgb(18.023682%, 18.023682%, 18.023682%)" offset="0.183594"/><stop stop-opacity="1" stop-color="rgb(18.399048%, 18.399048%, 18.399048%)" offset="0.1875"/><stop stop-opacity="1" stop-color="rgb(18.774414%, 18.774414%, 18.774414%)" offset="0.191406"/><stop stop-opacity="1" stop-color="rgb(19.14978%, 19.14978%, 19.14978%)" offset="0.195312"/><stop stop-opacity="1" stop-color="rgb(19.525146%, 19.525146%, 19.525146%)" offset="0.199219"/><stop stop-opacity="1" stop-color="rgb(19.900513%, 19.900513%, 19.900513%)" offset="0.203125"/><stop stop-opacity="1" stop-color="rgb(20.275879%, 20.275879%, 20.275879%)" offset="0.207031"/><stop stop-opacity="1" stop-color="rgb(20.651245%, 20.651245%, 20.651245%)" offset="0.210937"/><stop stop-opacity="1" stop-color="rgb(21.026611%, 21.026611%, 21.026611%)" offset="0.214844"/><stop stop-opacity="1" stop-color="rgb(21.401978%, 21.401978%, 21.401978%)" offset="0.21875"/><stop stop-opacity="1" stop-color="rgb(21.777344%, 21.777344%, 21.777344%)" offset="0.222656"/><stop stop-opacity="1" stop-color="rgb(22.15271%, 22.15271%, 22.15271%)" offset="0.226562"/><stop stop-opacity="1" stop-color="rgb(22.528076%, 22.528076%, 22.528076%)" offset="0.230469"/><stop stop-opacity="1" stop-color="rgb(22.903442%, 22.903442%, 22.903442%)" offset="0.234375"/><stop stop-opacity="1" stop-color="rgb(23.278809%, 23.278809%, 23.278809%)" offset="0.238281"/><stop stop-opacity="1" stop-color="rgb(23.654175%, 23.654175%, 23.654175%)" offset="0.242187"/><stop stop-opacity="1" stop-color="rgb(24.029541%, 24.029541%, 24.029541%)" offset="0.246094"/><stop stop-opacity="1" stop-color="rgb(24.404907%, 24.404907%, 24.404907%)" offset="0.25"/><stop stop-opacity="1" stop-color="rgb(24.780273%, 24.780273%, 24.780273%)" offset="0.253906"/><stop stop-opacity="1" stop-color="rgb(25.15564%, 25.15564%, 25.15564%)" offset="0.257812"/><stop stop-opacity="1" stop-color="rgb(25.531006%, 25.531006%, 25.531006%)" offset="0.261719"/><stop stop-opacity="1" stop-color="rgb(25.906372%, 25.906372%, 25.906372%)" offset="0.265625"/><stop stop-opacity="1" stop-color="rgb(26.281738%, 26.281738%, 26.281738%)" offset="0.269531"/><stop stop-opacity="1" stop-color="rgb(26.657104%, 26.657104%, 26.657104%)" offset="0.273438"/><stop stop-opacity="1" stop-color="rgb(27.032471%, 27.032471%, 27.032471%)" offset="0.277344"/><stop stop-opacity="1" stop-color="rgb(27.407837%, 27.407837%, 27.407837%)" offset="0.28125"/><stop stop-opacity="1" stop-color="rgb(27.783203%, 27.783203%, 27.783203%)" offset="0.285156"/><stop stop-opacity="1" stop-color="rgb(28.158569%, 28.158569%, 28.158569%)" offset="0.289062"/><stop stop-opacity="1" stop-color="rgb(28.533936%, 28.533936%, 28.533936%)" offset="0.292969"/><stop stop-opacity="1" stop-color="rgb(28.909302%, 28.909302%, 28.909302%)" offset="0.296875"/><stop stop-opacity="1" stop-color="rgb(29.284668%, 29.284668%, 29.284668%)" offset="0.300781"/><stop stop-opacity="1" stop-color="rgb(29.660034%, 29.660034%, 29.660034%)" offset="0.304688"/><stop stop-opacity="1" stop-color="rgb(30.0354%, 30.0354%, 30.0354%)" offset="0.308594"/><stop stop-opacity="1" stop-color="rgb(30.410767%, 30.410767%, 30.410767%)" offset="0.3125"/><stop stop-opacity="1" stop-color="rgb(30.786133%, 30.786133%, 30.786133%)" offset="0.316406"/><stop stop-opacity="1" stop-color="rgb(31.161499%, 31.161499%, 31.161499%)" offset="0.320312"/><stop stop-opacity="1" stop-color="rgb(31.536865%, 31.536865%, 31.536865%)" offset="0.324219"/><stop stop-opacity="1" stop-color="rgb(31.912231%, 31.912231%, 31.912231%)" offset="0.328125"/><stop stop-opacity="1" stop-color="rgb(32.287598%, 32.287598%, 32.287598%)" offset="0.332031"/><stop stop-opacity="1" stop-color="rgb(32.662964%, 32.662964%, 32.662964%)" offset="0.335938"/><stop stop-opacity="1" stop-color="rgb(33.03833%, 33.03833%, 33.03833%)" offset="0.339844"/><stop stop-opacity="1" stop-color="rgb(33.413696%, 33.413696%, 33.413696%)" offset="0.34375"/><stop stop-opacity="1" stop-color="rgb(33.789062%, 33.789062%, 33.789062%)" offset="0.347656"/><stop stop-opacity="1" stop-color="rgb(34.164429%, 34.164429%, 34.164429%)" offset="0.351562"/><stop stop-opacity="1" stop-color="rgb(34.539795%, 34.539795%, 34.539795%)" offset="0.355469"/><stop stop-opacity="1" stop-color="rgb(34.915161%, 34.915161%, 34.915161%)" offset="0.359375"/><stop stop-opacity="1" stop-color="rgb(35.290527%, 35.290527%, 35.290527%)" offset="0.363281"/><stop stop-opacity="1" stop-color="rgb(35.665894%, 35.665894%, 35.665894%)" offset="0.367188"/><stop stop-opacity="1" stop-color="rgb(36.04126%, 36.04126%, 36.04126%)" offset="0.371094"/><stop stop-opacity="1" stop-color="rgb(36.416626%, 36.416626%, 36.416626%)" offset="0.375"/><stop stop-opacity="1" stop-color="rgb(36.791992%, 36.791992%, 36.791992%)" offset="0.378906"/><stop stop-opacity="1" stop-color="rgb(37.167358%, 37.167358%, 37.167358%)" offset="0.382812"/><stop stop-opacity="1" stop-color="rgb(37.542725%, 37.542725%, 37.542725%)" offset="0.386719"/><stop stop-opacity="1" stop-color="rgb(37.918091%, 37.918091%, 37.918091%)" offset="0.390625"/><stop stop-opacity="1" stop-color="rgb(38.293457%, 38.293457%, 38.293457%)" offset="0.394531"/><stop stop-opacity="1" stop-color="rgb(38.668823%, 38.668823%, 38.668823%)" offset="0.398438"/><stop stop-opacity="1" stop-color="rgb(39.044189%, 39.044189%, 39.044189%)" offset="0.402344"/><stop stop-opacity="1" stop-color="rgb(39.419556%, 39.419556%, 39.419556%)" offset="0.40625"/><stop stop-opacity="1" stop-color="rgb(39.794922%, 39.794922%, 39.794922%)" offset="0.410156"/><stop stop-opacity="1" stop-color="rgb(40.170288%, 40.170288%, 40.170288%)" offset="0.414062"/><stop stop-opacity="1" stop-color="rgb(40.544128%, 40.544128%, 40.544128%)" offset="0.417969"/><stop stop-opacity="1" stop-color="rgb(40.919495%, 40.919495%, 40.919495%)" offset="0.421875"/><stop stop-opacity="1" stop-color="rgb(41.294861%, 41.294861%, 41.294861%)" offset="0.425781"/><stop stop-opacity="1" stop-color="rgb(41.670227%, 41.670227%, 41.670227%)" offset="0.429688"/><stop stop-opacity="1" stop-color="rgb(42.045593%, 42.045593%, 42.045593%)" offset="0.433594"/><stop stop-opacity="1" stop-color="rgb(42.420959%, 42.420959%, 42.420959%)" offset="0.4375"/><stop stop-opacity="1" stop-color="rgb(42.796326%, 42.796326%, 42.796326%)" offset="0.441406"/><stop stop-opacity="1" stop-color="rgb(43.171692%, 43.171692%, 43.171692%)" offset="0.445312"/><stop stop-opacity="1" stop-color="rgb(43.547058%, 43.547058%, 43.547058%)" offset="0.449219"/><stop stop-opacity="1" stop-color="rgb(43.922424%, 43.922424%, 43.922424%)" offset="0.453125"/><stop stop-opacity="1" stop-color="rgb(44.297791%, 44.297791%, 44.297791%)" offset="0.457031"/><stop stop-opacity="1" stop-color="rgb(44.673157%, 44.673157%, 44.673157%)" offset="0.460938"/><stop stop-opacity="1" stop-color="rgb(45.048523%, 45.048523%, 45.048523%)" offset="0.464844"/><stop stop-opacity="1" stop-color="rgb(45.423889%, 45.423889%, 45.423889%)" offset="0.46875"/><stop stop-opacity="1" stop-color="rgb(45.799255%, 45.799255%, 45.799255%)" offset="0.472656"/><stop stop-opacity="1" stop-color="rgb(46.174622%, 46.174622%, 46.174622%)" offset="0.476562"/><stop stop-opacity="1" stop-color="rgb(46.549988%, 46.549988%, 46.549988%)" offset="0.480469"/><stop stop-opacity="1" stop-color="rgb(46.925354%, 46.925354%, 46.925354%)" offset="0.484375"/><stop stop-opacity="1" stop-color="rgb(47.30072%, 47.30072%, 47.30072%)" offset="0.488281"/><stop stop-opacity="1" stop-color="rgb(47.676086%, 47.676086%, 47.676086%)" offset="0.492188"/><stop stop-opacity="1" stop-color="rgb(48.051453%, 48.051453%, 48.051453%)" offset="0.496094"/><stop stop-opacity="1" stop-color="rgb(48.426819%, 48.426819%, 48.426819%)" offset="0.5"/><stop stop-opacity="1" stop-color="rgb(48.802185%, 48.802185%, 48.802185%)" offset="0.503906"/><stop stop-opacity="1" stop-color="rgb(49.177551%, 49.177551%, 49.177551%)" offset="0.507812"/><stop stop-opacity="1" stop-color="rgb(49.552917%, 49.552917%, 49.552917%)" offset="0.511719"/><stop stop-opacity="1" stop-color="rgb(49.928284%, 49.928284%, 49.928284%)" offset="0.515625"/><stop stop-opacity="1" stop-color="rgb(50.30365%, 50.30365%, 50.30365%)" offset="0.519531"/><stop stop-opacity="1" stop-color="rgb(50.679016%, 50.679016%, 50.679016%)" offset="0.523437"/><stop stop-opacity="1" stop-color="rgb(51.054382%, 51.054382%, 51.054382%)" offset="0.527344"/><stop stop-opacity="1" stop-color="rgb(51.429749%, 51.429749%, 51.429749%)" offset="0.53125"/><stop stop-opacity="1" stop-color="rgb(51.805115%, 51.805115%, 51.805115%)" offset="0.535156"/><stop stop-opacity="1" stop-color="rgb(52.180481%, 52.180481%, 52.180481%)" offset="0.539062"/><stop stop-opacity="1" stop-color="rgb(52.555847%, 52.555847%, 52.555847%)" offset="0.542969"/><stop stop-opacity="1" stop-color="rgb(52.931213%, 52.931213%, 52.931213%)" offset="0.546875"/><stop stop-opacity="1" stop-color="rgb(53.30658%, 53.30658%, 53.30658%)" offset="0.550781"/><stop stop-opacity="1" stop-color="rgb(53.681946%, 53.681946%, 53.681946%)" offset="0.554687"/><stop stop-opacity="1" stop-color="rgb(54.057312%, 54.057312%, 54.057312%)" offset="0.558594"/><stop stop-opacity="1" stop-color="rgb(54.432678%, 54.432678%, 54.432678%)" offset="0.5625"/><stop stop-opacity="1" stop-color="rgb(54.808044%, 54.808044%, 54.808044%)" offset="0.566406"/><stop stop-opacity="1" stop-color="rgb(55.183411%, 55.183411%, 55.183411%)" offset="0.570312"/><stop stop-opacity="1" stop-color="rgb(55.558777%, 55.558777%, 55.558777%)" offset="0.574219"/><stop stop-opacity="1" stop-color="rgb(55.934143%, 55.934143%, 55.934143%)" offset="0.578125"/><stop stop-opacity="1" stop-color="rgb(56.309509%, 56.309509%, 56.309509%)" offset="0.582031"/><stop stop-opacity="1" stop-color="rgb(56.684875%, 56.684875%, 56.684875%)" offset="0.585937"/><stop stop-opacity="1" stop-color="rgb(57.060242%, 57.060242%, 57.060242%)" offset="0.589844"/><stop stop-opacity="1" stop-color="rgb(57.435608%, 57.435608%, 57.435608%)" offset="0.59375"/><stop stop-opacity="1" stop-color="rgb(57.810974%, 57.810974%, 57.810974%)" offset="0.597656"/><stop stop-opacity="1" stop-color="rgb(58.18634%, 58.18634%, 58.18634%)" offset="0.601562"/><stop stop-opacity="1" stop-color="rgb(58.561707%, 58.561707%, 58.561707%)" offset="0.605469"/><stop stop-opacity="1" stop-color="rgb(58.937073%, 58.937073%, 58.937073%)" offset="0.609375"/><stop stop-opacity="1" stop-color="rgb(59.312439%, 59.312439%, 59.312439%)" offset="0.613281"/><stop stop-opacity="1" stop-color="rgb(59.687805%, 59.687805%, 59.687805%)" offset="0.617187"/><stop stop-opacity="1" stop-color="rgb(60.063171%, 60.063171%, 60.063171%)" offset="0.621094"/><stop stop-opacity="1" stop-color="rgb(60.438538%, 60.438538%, 60.438538%)" offset="0.625"/><stop stop-opacity="1" stop-color="rgb(60.813904%, 60.813904%, 60.813904%)" offset="0.628906"/><stop stop-opacity="1" stop-color="rgb(61.18927%, 61.18927%, 61.18927%)" offset="0.632812"/><stop stop-opacity="1" stop-color="rgb(61.564636%, 61.564636%, 61.564636%)" offset="0.636719"/><stop stop-opacity="1" stop-color="rgb(61.940002%, 61.940002%, 61.940002%)" offset="0.640625"/><stop stop-opacity="1" stop-color="rgb(62.315369%, 62.315369%, 62.315369%)" offset="0.644531"/><stop stop-opacity="1" stop-color="rgb(62.690735%, 62.690735%, 62.690735%)" offset="0.648437"/><stop stop-opacity="1" stop-color="rgb(63.066101%, 63.066101%, 63.066101%)" offset="0.652344"/><stop stop-opacity="1" stop-color="rgb(63.441467%, 63.441467%, 63.441467%)" offset="0.65625"/><stop stop-opacity="1" stop-color="rgb(63.816833%, 63.816833%, 63.816833%)" offset="0.660156"/><stop stop-opacity="1" stop-color="rgb(64.1922%, 64.1922%, 64.1922%)" offset="0.664062"/><stop stop-opacity="1" stop-color="rgb(64.567566%, 64.567566%, 64.567566%)" offset="0.667969"/><stop stop-opacity="1" stop-color="rgb(64.942932%, 64.942932%, 64.942932%)" offset="0.671875"/><stop stop-opacity="1" stop-color="rgb(65.318298%, 65.318298%, 65.318298%)" offset="0.675781"/><stop stop-opacity="1" stop-color="rgb(65.693665%, 65.693665%, 65.693665%)" offset="0.679687"/><stop stop-opacity="1" stop-color="rgb(66.069031%, 66.069031%, 66.069031%)" offset="0.683594"/><stop stop-opacity="1" stop-color="rgb(66.444397%, 66.444397%, 66.444397%)" offset="0.6875"/><stop stop-opacity="1" stop-color="rgb(66.819763%, 66.819763%, 66.819763%)" offset="0.691406"/><stop stop-opacity="1" stop-color="rgb(67.195129%, 67.195129%, 67.195129%)" offset="0.695312"/><stop stop-opacity="1" stop-color="rgb(67.570496%, 67.570496%, 67.570496%)" offset="0.699219"/><stop stop-opacity="1" stop-color="rgb(67.945862%, 67.945862%, 67.945862%)" offset="0.703125"/><stop stop-opacity="1" stop-color="rgb(68.321228%, 68.321228%, 68.321228%)" offset="0.707031"/><stop stop-opacity="1" stop-color="rgb(68.696594%, 68.696594%, 68.696594%)" offset="0.710937"/><stop stop-opacity="1" stop-color="rgb(69.07196%, 69.07196%, 69.07196%)" offset="0.714844"/><stop stop-opacity="1" stop-color="rgb(69.447327%, 69.447327%, 69.447327%)" offset="0.71875"/><stop stop-opacity="1" stop-color="rgb(69.822693%, 69.822693%, 69.822693%)" offset="0.722656"/><stop stop-opacity="1" stop-color="rgb(70.198059%, 70.198059%, 70.198059%)" offset="0.726562"/><stop stop-opacity="1" stop-color="rgb(70.573425%, 70.573425%, 70.573425%)" offset="0.730469"/><stop stop-opacity="1" stop-color="rgb(70.948792%, 70.948792%, 70.948792%)" offset="0.734375"/><stop stop-opacity="1" stop-color="rgb(71.324158%, 71.324158%, 71.324158%)" offset="0.738281"/><stop stop-opacity="1" stop-color="rgb(71.699524%, 71.699524%, 71.699524%)" offset="0.742187"/><stop stop-opacity="1" stop-color="rgb(72.07489%, 72.07489%, 72.07489%)" offset="0.746094"/><stop stop-opacity="1" stop-color="rgb(72.450256%, 72.450256%, 72.450256%)" offset="0.75"/><stop stop-opacity="1" stop-color="rgb(72.825623%, 72.825623%, 72.825623%)" offset="0.753906"/><stop stop-opacity="1" stop-color="rgb(73.200989%, 73.200989%, 73.200989%)" offset="0.757812"/><stop stop-opacity="1" stop-color="rgb(73.576355%, 73.576355%, 73.576355%)" offset="0.761719"/><stop stop-opacity="1" stop-color="rgb(73.951721%, 73.951721%, 73.951721%)" offset="0.765625"/><stop stop-opacity="1" stop-color="rgb(74.327087%, 74.327087%, 74.327087%)" offset="0.769531"/><stop stop-opacity="1" stop-color="rgb(74.702454%, 74.702454%, 74.702454%)" offset="0.773437"/><stop stop-opacity="1" stop-color="rgb(75.07782%, 75.07782%, 75.07782%)" offset="0.777344"/><stop stop-opacity="1" stop-color="rgb(75.453186%, 75.453186%, 75.453186%)" offset="0.78125"/><stop stop-opacity="1" stop-color="rgb(75.828552%, 75.828552%, 75.828552%)" offset="0.785156"/><stop stop-opacity="1" stop-color="rgb(76.203918%, 76.203918%, 76.203918%)" offset="0.789062"/><stop stop-opacity="1" stop-color="rgb(76.579285%, 76.579285%, 76.579285%)" offset="0.792969"/><stop stop-opacity="1" stop-color="rgb(76.954651%, 76.954651%, 76.954651%)" offset="0.796875"/><stop stop-opacity="1" stop-color="rgb(77.330017%, 77.330017%, 77.330017%)" offset="0.800781"/><stop stop-opacity="1" stop-color="rgb(77.705383%, 77.705383%, 77.705383%)" offset="0.804687"/><stop stop-opacity="1" stop-color="rgb(78.08075%, 78.08075%, 78.08075%)" offset="0.808594"/><stop stop-opacity="1" stop-color="rgb(78.456116%, 78.456116%, 78.456116%)" offset="0.8125"/><stop stop-opacity="1" stop-color="rgb(78.831482%, 78.831482%, 78.831482%)" offset="0.816406"/><stop stop-opacity="1" stop-color="rgb(79.206848%, 79.206848%, 79.206848%)" offset="0.820312"/><stop stop-opacity="1" stop-color="rgb(79.582214%, 79.582214%, 79.582214%)" offset="0.824219"/><stop stop-opacity="1" stop-color="rgb(79.957581%, 79.957581%, 79.957581%)" offset="0.828125"/><stop stop-opacity="1" stop-color="rgb(80.332947%, 80.332947%, 80.332947%)" offset="0.832031"/><stop stop-opacity="1" stop-color="rgb(80.708313%, 80.708313%, 80.708313%)" offset="0.835937"/><stop stop-opacity="1" stop-color="rgb(81.083679%, 81.083679%, 81.083679%)" offset="0.839844"/><stop stop-opacity="1" stop-color="rgb(81.459045%, 81.459045%, 81.459045%)" offset="0.84375"/><stop stop-opacity="1" stop-color="rgb(81.834412%, 81.834412%, 81.834412%)" offset="0.847656"/><stop stop-opacity="1" stop-color="rgb(82.209778%, 82.209778%, 82.209778%)" offset="0.851562"/><stop stop-opacity="1" stop-color="rgb(82.585144%, 82.585144%, 82.585144%)" offset="0.855469"/><stop stop-opacity="1" stop-color="rgb(82.96051%, 82.96051%, 82.96051%)" offset="0.859375"/><stop stop-opacity="1" stop-color="rgb(83.335876%, 83.335876%, 83.335876%)" offset="0.863281"/><stop stop-opacity="1" stop-color="rgb(83.711243%, 83.711243%, 83.711243%)" offset="0.867187"/><stop stop-opacity="1" stop-color="rgb(84.085083%, 84.085083%, 84.085083%)" offset="0.871094"/><stop stop-opacity="1" stop-color="rgb(84.460449%, 84.460449%, 84.460449%)" offset="0.875"/><stop stop-opacity="1" stop-color="rgb(84.835815%, 84.835815%, 84.835815%)" offset="0.878906"/><stop stop-opacity="1" stop-color="rgb(85.211182%, 85.211182%, 85.211182%)" offset="0.882812"/><stop stop-opacity="1" stop-color="rgb(85.586548%, 85.586548%, 85.586548%)" offset="0.886719"/><stop stop-opacity="1" stop-color="rgb(85.961914%, 85.961914%, 85.961914%)" offset="0.890625"/><stop stop-opacity="1" stop-color="rgb(86.33728%, 86.33728%, 86.33728%)" offset="0.894531"/><stop stop-opacity="1" stop-color="rgb(86.712646%, 86.712646%, 86.712646%)" offset="0.898437"/><stop stop-opacity="1" stop-color="rgb(87.088013%, 87.088013%, 87.088013%)" offset="0.902344"/><stop stop-opacity="1" stop-color="rgb(87.463379%, 87.463379%, 87.463379%)" offset="0.90625"/><stop stop-opacity="1" stop-color="rgb(87.838745%, 87.838745%, 87.838745%)" offset="0.910156"/><stop stop-opacity="1" stop-color="rgb(88.214111%, 88.214111%, 88.214111%)" offset="0.914062"/><stop stop-opacity="1" stop-color="rgb(88.589478%, 88.589478%, 88.589478%)" offset="0.917969"/><stop stop-opacity="1" stop-color="rgb(88.964844%, 88.964844%, 88.964844%)" offset="0.921875"/><stop stop-opacity="1" stop-color="rgb(89.34021%, 89.34021%, 89.34021%)" offset="0.925781"/><stop stop-opacity="1" stop-color="rgb(89.715576%, 89.715576%, 89.715576%)" offset="0.929687"/><stop stop-opacity="1" stop-color="rgb(90.090942%, 90.090942%, 90.090942%)" offset="0.933594"/><stop stop-opacity="1" stop-color="rgb(90.466309%, 90.466309%, 90.466309%)" offset="0.9375"/><stop stop-opacity="1" stop-color="rgb(90.841675%, 90.841675%, 90.841675%)" offset="0.941406"/><stop stop-opacity="1" stop-color="rgb(91.217041%, 91.217041%, 91.217041%)" offset="0.945312"/><stop stop-opacity="1" stop-color="rgb(91.592407%, 91.592407%, 91.592407%)" offset="0.949219"/><stop stop-opacity="1" stop-color="rgb(91.967773%, 91.967773%, 91.967773%)" offset="0.953125"/><stop stop-opacity="1" stop-color="rgb(92.34314%, 92.34314%, 92.34314%)" offset="0.957031"/><stop stop-opacity="1" stop-color="rgb(92.718506%, 92.718506%, 92.718506%)" offset="0.960937"/><stop stop-opacity="1" stop-color="rgb(93.093872%, 93.093872%, 93.093872%)" offset="0.964844"/><stop stop-opacity="1" stop-color="rgb(93.469238%, 93.469238%, 93.469238%)" offset="0.96875"/><stop stop-opacity="1" stop-color="rgb(93.844604%, 93.844604%, 93.844604%)" offset="0.972656"/><stop stop-opacity="1" stop-color="rgb(94.219971%, 94.219971%, 94.219971%)" offset="0.976563"/><stop stop-opacity="1" stop-color="rgb(94.595337%, 94.595337%, 94.595337%)" offset="0.980469"/><stop stop-opacity="1" stop-color="rgb(94.970703%, 94.970703%, 94.970703%)" offset="0.984375"/><stop stop-opacity="1" stop-color="rgb(95.346069%, 95.346069%, 95.346069%)" offset="0.988281"/><stop stop-opacity="1" stop-color="rgb(95.721436%, 95.721436%, 95.721436%)" offset="0.992187"/><stop stop-opacity="1" stop-color="rgb(96.096802%, 96.096802%, 96.096802%)" offset="0.996094"/><stop stop-opacity="1" stop-color="rgb(96.472168%, 96.472168%, 96.472168%)" offset="1"/></linearGradient><clipPath id="a7d1051cae"><path d="M 4.566406 3.753906 L 43.507812 3.753906 L 43.507812 43.429688 L 4.566406 43.429688 Z M 4.566406 3.753906 " clip-rule="nonzero"/></clipPath><clipPath id="eab182a089"><path d="M 29 27 L 43 27 L 43 43.429688 L 29 43.429688 Z M 29 27 " clip-rule="nonzero"/></clipPath><clipPath id="e9702545fe"><path d="M 4.566406 4 L 43.507812 4 L 43.507812 43.429688 L 4.566406 43.429688 Z M 4.566406 4 " clip-rule="nonzero"/></clipPath><clipPath id="7da70c2a00"><path d="M 6 3.753906 L 42 3.753906 L 42 43 L 6 43 Z M 6 3.753906 " clip-rule="nonzero"/></clipPath></defs><g clip-path="url(#482e745c74)"><g clip-path="url(#30e48a9359)"><path fill="url(#fa66597333)" d="M 40.398438 14.53125 L 40.398438 20.164062 L 45.214844 20.164062 L 45.214844 14.53125 Z M 40.398438 14.53125 " fill-rule="nonzero"/></g></g><g clip-path="url(#a7d1051cae)"><path fill="#d4f6c8" d="M 36.585938 37.136719 C 37.894531 39.484375 38.40625 40.367188 38.582031 40.640625 C 38.777344 40.949219 38.957031 41.265625 39.144531 41.574219 C 39.164062 41.605469 39.183594 41.640625 39.199219 41.671875 C 39.242188 41.753906 39.308594 41.824219 39.308594 41.917969 C 39.304688 42.035156 39.175781 42.015625 39.109375 42.070312 C 38.6875 42.414062 38.199219 42.671875 37.78125 43.019531 C 37.570312 43.195312 37.539062 43.195312 37.496094 43.199219 C 37.148438 43.21875 36.945312 42.539062 36.417969 41.453125 C 35.710938 39.996094 34.90625 38.8125 34.519531 38.242188 C 34.503906 38.214844 34.488281 38.195312 34.480469 38.183594 C 34.410156 38.195312 34.394531 38.261719 34.363281 38.308594 C 33.816406 39.15625 33.300781 40.023438 32.824219 40.914062 C 32.457031 41.601562 32.078125 42.28125 31.703125 42.960938 C 31.632812 43.085938 31.558594 43.207031 31.445312 43.296875 C 31.28125 43.425781 31.113281 43.382812 31.046875 43.183594 C 31.003906 43.050781 31 42.9375 31 42.917969 C 31.015625 42.664062 30.773438 42.453125 30.433594 37.683594 C 30.390625 37.101562 30.402344 37.230469 30.347656 36.464844 C 30.242188 34.960938 30.191406 34.207031 30.097656 33.390625 C 30.003906 32.539062 29.949219 32.304688 29.855469 31.320312 C 29.671875 29.464844 29.734375 29.734375 29.695312 29.351562 C 29.644531 28.867188 29.59375 28.386719 29.613281 27.898438 C 29.617188 27.75 29.660156 27.699219 29.796875 27.742188 C 29.917969 27.78125 30.03125 27.839844 30.140625 27.90625 C 30.648438 28.195312 31.132812 28.515625 31.621094 28.835938 C 32.378906 29.332031 33.097656 29.878906 33.882812 30.332031 C 35.746094 31.414062 37.523438 32.625 39.253906 33.910156 C 40.015625 34.472656 40.785156 35.03125 41.550781 35.59375 C 41.660156 35.671875 41.773438 35.75 41.902344 35.789062 C 41.984375 35.816406 42.042969 35.875 42.105469 35.925781 C 42.207031 36.007812 42.195312 36.109375 42.085938 36.179688 C 42 36.230469 41.902344 36.25 41.808594 36.273438 C 40.628906 36.542969 39.4375 36.75 38.246094 36.949219 C 37.707031 37.039062 37.167969 37.101562 36.585938 37.136719 Z M 38.1875 16.488281 C 39.285156 16.519531 40.378906 16.453125 41.476562 16.449219 C 41.707031 16.488281 42.058594 16.398438 42.203125 16.628906 C 42.671875 17.992188 43.117188 19.742188 43.28125 21.796875 C 43.496094 24.507812 42.957031 24.476562 43.066406 26.863281 C 43.066406 26.863281 43.125 28.128906 42.421875 29.75 C 42.40625 29.785156 42.382812 29.804688 42.382812 29.804688 C 42.34375 29.835938 42.285156 29.832031 42.230469 29.835938 C 41.300781 29.921875 40.378906 29.933594 39.449219 29.835938 C 34.414062 29.691406 35.957031 30.859375 36.164062 26.109375 C 36.355469 22.984375 36.230469 19.851562 35.855469 16.75 C 35.847656 16.71875 35.847656 16.6875 35.855469 16.664062 C 35.953125 16.304688 37.421875 16.410156 38.1875 16.488281 Z M 20.59375 14.601562 C 20.71875 14.625 20.847656 14.597656 20.976562 14.597656 C 21.0625 14.597656 21.117188 14.5625 21.136719 14.476562 C 21.179688 14.292969 21.222656 14.113281 21.222656 13.925781 C 21.222656 13.230469 21.210938 12.535156 21.269531 11.839844 C 21.289062 11.65625 21.300781 11.46875 21.324219 11.285156 C 21.359375 10.972656 21.402344 10.664062 21.398438 10.351562 C 21.386719 9.3125 21.425781 8.273438 21.367188 7.230469 C 21.332031 6.554688 21.328125 5.871094 21.398438 5.191406 C 21.429688 4.886719 21.34375 4.585938 21.351562 4.277344 C 21.355469 4.167969 21.34375 4.101562 21.304688 4.066406 C 21.238281 4.007812 21.117188 4.042969 21.089844 4.050781 C 20.738281 4.140625 20.277344 3.917969 18.78125 4.261719 C 17.039062 4.660156 16.089844 5.316406 15.828125 5.574219 C 15.726562 5.671875 15.636719 5.777344 15.636719 5.777344 C 15.472656 6.007812 15.316406 6.242188 15.167969 6.488281 C 14.753906 7.1875 14.332031 7.886719 13.96875 8.613281 C 13.539062 9.472656 13.125 10.347656 12.761719 11.238281 C 12.441406 12.019531 12.109375 12.796875 11.890625 13.613281 C 11.824219 13.863281 11.757812 14.117188 11.761719 14.382812 C 11.761719 14.488281 11.796875 14.554688 11.914062 14.554688 C 12.179688 14.558594 12.445312 14.609375 12.714844 14.605469 C 13.351562 14.59375 13.984375 14.609375 14.621094 14.597656 C 15.066406 14.589844 15.515625 14.640625 15.960938 14.558594 C 16.003906 14.554688 16.054688 14.550781 16.09375 14.566406 C 16.242188 14.613281 16.390625 14.597656 16.539062 14.597656 C 17.226562 14.601562 17.914062 14.597656 18.601562 14.597656 C 19.996094 14.558594 20.460938 14.574219 20.59375 14.601562 Z M 23.65625 31.992188 C 23.636719 31.988281 23.570312 31.984375 23.5 32 C 23.40625 32.015625 23.355469 32.097656 23.359375 32.1875 C 23.390625 32.785156 23.429688 33.378906 23.457031 33.972656 C 23.492188 34.832031 23.453125 35.695312 23.507812 36.554688 C 23.523438 36.804688 23.539062 37.058594 23.566406 37.3125 C 23.605469 37.71875 23.652344 38.125 23.695312 38.53125 C 23.714844 38.722656 23.710938 38.921875 23.742188 39.109375 C 23.804688 39.496094 23.773438 39.882812 23.8125 40.269531 C 23.847656 40.589844 23.808594 40.914062 23.828125 41.234375 C 23.84375 41.507812 23.871094 41.785156 23.898438 42.058594 C 23.921875 42.316406 23.988281 42.570312 24.003906 42.832031 C 24.011719 43.003906 24.046875 43.042969 24.214844 43.046875 C 24.730469 43.050781 25.253906 43.105469 25.757812 42.996094 C 26.347656 42.871094 26.007812 43.015625 28.140625 42.738281 C 28.140625 42.738281 29.410156 42.574219 29.484375 42.234375 C 29.523438 42.039062 29.511719 41.84375 29.511719 41.84375 C 29.511719 41.835938 29.511719 41.828125 29.511719 41.820312 C 29.429688 41.460938 29.476562 41.09375 29.441406 40.726562 C 29.40625 40.375 29.382812 40.015625 29.371094 39.65625 C 29.363281 39.457031 29.359375 39.253906 29.328125 39.054688 C 29.28125 38.746094 29.253906 38.429688 29.253906 38.121094 C 29.257812 37.648438 29.222656 37.179688 29.191406 36.710938 C 29.164062 36.242188 29.101562 35.773438 29.113281 35.304688 C 29.121094 34.882812 29.042969 34.46875 29.066406 34.050781 C 29.066406 34.035156 29.066406 34.019531 29.0625 34.003906 C 29.003906 33.554688 28.972656 33.101562 28.976562 32.644531 C 28.980469 32.449219 28.976562 32.253906 28.980469 32.058594 C 28.984375 31.941406 28.9375 31.902344 28.824219 31.90625 C 28.578125 31.910156 28.332031 31.925781 28.085938 31.9375 C 27.566406 31.96875 27.042969 31.957031 26.523438 31.988281 C 26.085938 32.015625 25.640625 31.992188 25.199219 31.992188 C 24.167969 32.039062 23.773438 32.023438 23.65625 31.992188 Z M 6.4375 16.355469 C 6.292969 16.351562 6.164062 16.351562 6.042969 16.433594 C 5.957031 16.492188 5.898438 16.597656 5.828125 16.78125 C 5.65625 17.222656 5.617188 17.324219 5.617188 17.324219 C 5.238281 18.71875 5.050781 19.417969 4.976562 19.8125 C 4.8125 20.738281 4.613281 21.847656 4.59375 23.359375 C 4.582031 24.230469 4.648438 24.90625 4.785156 26.257812 C 5.023438 28.625 5.101562 27.429688 5.53125 29.109375 C 5.546875 29.164062 5.585938 29.320312 5.722656 29.414062 C 5.796875 29.464844 5.894531 29.476562 6.0625 29.476562 C 6.628906 29.476562 7.195312 29.476562 7.765625 29.476562 C 7.832031 29.476562 7.898438 29.476562 7.964844 29.484375 C 8.484375 29.539062 9.003906 29.570312 9.523438 29.566406 C 9.757812 29.5625 9.8125 29.484375 9.769531 29.257812 C 9.6875 28.824219 9.578125 28.398438 9.511719 27.964844 C 9.460938 27.628906 9.410156 27.289062 9.371094 26.949219 C 9.335938 26.628906 9.285156 26.316406 9.253906 25.996094 C 9.214844 25.640625 9.195312 25.285156 9.15625 24.929688 C 9.109375 24.542969 9.070312 24.160156 9.070312 23.769531 C 9.070312 23.734375 9.070312 23.695312 9.0625 23.660156 C 8.992188 23.289062 9 22.914062 8.992188 22.542969 C 8.972656 21.605469 8.945312 20.660156 9.019531 19.71875 C 9.042969 19.421875 9.0625 19.125 9.082031 18.828125 C 9.105469 18.425781 9.144531 18.023438 9.160156 17.621094 C 9.164062 17.554688 9.175781 17.488281 9.183594 17.421875 C 9.207031 17.140625 9.269531 16.863281 9.253906 16.578125 C 9.242188 16.433594 9.21875 16.402344 9.078125 16.402344 C 8.71875 16.402344 8.363281 16.386719 8.007812 16.359375 C 7.761719 16.339844 7.515625 16.355469 7.269531 16.355469 C 6.898438 16.359375 6.625 16.359375 6.4375 16.355469 Z M 33.828125 28.609375 C 33.683594 28.570312 33.558594 28.476562 33.421875 28.402344 C 33.050781 28.207031 32.679688 28.015625 32.308594 27.820312 C 31.253906 27.261719 30.195312 26.703125 29.136719 26.144531 C 29.066406 26.109375 28.996094 26.0625 28.917969 26.03125 C 28.785156 25.980469 28.714844 26.011719 28.65625 26.148438 C 28.636719 26.195312 28.617188 26.242188 28.613281 26.296875 C 28.574219 27.03125 28.578125 27.761719 28.699219 28.488281 C 28.703125 28.507812 28.703125 28.53125 28.703125 28.554688 C 28.71875 28.949219 28.738281 29.347656 28.75 29.742188 C 28.753906 29.914062 28.742188 29.925781 28.578125 29.917969 C 27.128906 29.847656 25.679688 29.886719 24.230469 29.886719 C 23.984375 29.886719 23.738281 29.886719 23.496094 29.84375 C 23.375 29.820312 23.308594 29.769531 23.269531 29.660156 C 23.238281 29.558594 23.203125 29.464844 23.195312 29.355469 C 23.121094 27.925781 23.132812 26.496094 23.164062 25.066406 C 23.175781 24.507812 23.203125 23.945312 23.179688 23.386719 C 23.152344 22.703125 23.144531 22.023438 23.164062 21.34375 C 23.199219 19.996094 23.191406 18.648438 23.199219 17.300781 C 23.199219 17.128906 23.253906 16.960938 23.242188 16.789062 C 23.234375 16.703125 23.28125 16.667969 23.363281 16.664062 C 24.042969 16.632812 24.71875 16.605469 25.398438 16.648438 C 25.964844 16.683594 26.53125 16.695312 27.097656 16.636719 C 27.296875 16.613281 27.5 16.609375 27.699219 16.585938 C 28.011719 16.554688 28.324219 16.546875 28.636719 16.53125 C 29.34375 16.488281 30.050781 16.441406 30.761719 16.441406 C 31.234375 16.445312 31.703125 16.511719 32.171875 16.476562 C 32.546875 16.449219 32.917969 16.488281 33.289062 16.488281 C 33.566406 16.488281 33.621094 16.539062 33.664062 16.820312 C 33.707031 17.085938 33.726562 17.355469 33.769531 17.621094 C 33.832031 18.046875 33.910156 18.476562 33.972656 18.902344 C 34.007812 19.132812 34.035156 19.359375 34.046875 19.59375 C 34.128906 21.5625 34.082031 23.53125 34.082031 25.5 C 34.082031 26.132812 34.046875 26.769531 33.96875 27.398438 C 33.921875 27.761719 33.898438 28.128906 33.867188 28.492188 C 33.863281 28.53125 33.871094 28.566406 33.828125 28.609375 Z M 21 29.828125 C 21.140625 29.828125 21.175781 29.796875 21.179688 29.65625 C 21.179688 29.453125 21.222656 29.253906 21.222656 29.054688 C 21.222656 28.15625 21.242188 27.257812 21.191406 26.359375 C 21.160156 25.859375 21.160156 25.359375 21.167969 24.859375 C 21.179688 23.714844 21.183594 22.570312 21.101562 21.425781 C 21.046875 20.636719 21.074219 19.839844 21.101562 19.046875 C 21.109375 18.835938 21.144531 18.625 21.121094 18.417969 C 21.078125 17.992188 21.097656 17.566406 21.085938 17.140625 C 21.082031 17.066406 21.082031 16.992188 21.070312 16.917969 C 21.058594 16.820312 21.023438 16.753906 20.90625 16.742188 C 20.8125 16.734375 20.714844 16.722656 20.617188 16.714844 C 20.03125 16.683594 19.445312 16.777344 18.851562 16.726562 C 18.324219 16.679688 17.796875 16.636719 17.269531 16.636719 C 16.238281 16.632812 15.207031 16.59375 14.175781 16.574219 C 13.472656 16.5625 12.777344 16.664062 12.078125 16.664062 C 11.90625 16.664062 11.734375 16.664062 11.5625 16.664062 C 11.390625 16.664062 11.359375 16.6875 11.304688 16.855469 C 11.289062 16.902344 11.277344 16.957031 11.269531 17.007812 C 11.210938 17.277344 11.179688 17.550781 11.164062 17.828125 C 11.132812 18.347656 11.066406 18.871094 11.050781 19.390625 C 11.027344 20.332031 11.066406 21.273438 11.121094 22.21875 C 11.167969 22.976562 11.121094 23.742188 11.179688 24.503906 C 11.199219 24.757812 11.195312 25.015625 11.234375 25.265625 C 11.328125 25.898438 11.378906 26.539062 11.488281 27.175781 C 11.617188 27.925781 11.808594 28.664062 11.929688 29.414062 C 11.976562 29.707031 12.039062 29.742188 12.335938 29.746094 C 13.203125 29.757812 14.070312 29.730469 14.933594 29.785156 C 15.433594 29.816406 15.933594 29.800781 16.433594 29.824219 C 17.320312 29.863281 18.210938 29.867188 19.3125 29.890625 C 19.734375 29.914062 20.367188 29.824219 21 29.828125 Z M 23.554688 3.902344 C 23.535156 3.898438 23.449219 3.882812 23.402344 3.929688 C 23.378906 3.953125 23.378906 4 23.378906 4.082031 C 23.378906 4.277344 23.398438 4.46875 23.40625 4.664062 C 23.425781 5.34375 23.480469 6.019531 23.496094 6.699219 C 23.519531 7.558594 23.523438 8.421875 23.472656 9.28125 C 23.445312 9.699219 23.457031 10.117188 23.429688 10.535156 C 23.390625 11.074219 23.394531 11.613281 23.378906 12.148438 C 23.371094 12.496094 23.390625 12.839844 23.359375 13.183594 C 23.324219 13.59375 23.332031 14.003906 23.324219 14.414062 C 23.324219 14.59375 23.335938 14.613281 23.519531 14.59375 C 23.753906 14.570312 23.980469 14.597656 24.210938 14.597656 C 24.480469 14.59375 24.746094 14.570312 25.015625 14.566406 C 26.105469 14.554688 27.195312 14.5625 28.285156 14.5625 C 28.414062 14.5625 28.535156 14.59375 28.664062 14.582031 C 29.207031 14.539062 29.753906 14.550781 30.296875 14.523438 C 30.484375 14.515625 30.679688 14.546875 30.875 14.554688 C 31.171875 14.566406 31.472656 14.539062 31.769531 14.589844 C 31.863281 14.605469 31.964844 14.59375 32.058594 14.589844 C 32.421875 14.5625 32.785156 14.53125 33.152344 14.507812 C 33.355469 14.496094 33.382812 14.472656 33.367188 14.269531 C 33.367188 14.222656 33.355469 14.179688 33.347656 14.136719 C 33.28125 13.722656 33.214844 13.3125 33.152344 12.898438 C 33.082031 12.410156 32.988281 11.925781 32.839844 11.453125 C 32.636719 10.789062 32.425781 10.128906 32.222656 9.464844 C 32.074219 8.960938 31.957031 8.453125 31.792969 7.957031 C 31.523438 7.144531 31.234375 6.34375 30.949219 5.542969 C 30.941406 5.527344 30.929688 5.488281 30.910156 5.4375 C 30.910156 5.4375 30.796875 5.171875 30.59375 4.945312 C 30.085938 4.386719 27.308594 3.996094 27.308594 3.996094 C 26.226562 3.84375 25.539062 3.75 24.902344 3.765625 C 24.1875 3.78125 23.753906 3.929688 23.554688 3.902344 Z M 12.683594 31.816406 C 12.480469 31.816406 12.449219 31.851562 12.492188 32.054688 C 12.507812 32.128906 12.527344 32.199219 12.546875 32.273438 C 12.808594 33.183594 13.0625 34.101562 13.394531 34.992188 C 13.679688 35.761719 13.957031 36.535156 14.289062 37.289062 C 14.609375 38.011719 14.96875 38.71875 15.335938 39.425781 C 15.65625 40.050781 16.023438 40.648438 16.441406 41.214844 C 16.617188 41.453125 16.796875 41.566406 16.878906 41.632812 C 17.132812 41.835938 17.53125 42.109375 18.226562 42.34375 C 19.179688 42.664062 19.207031 42.414062 20.53125 42.71875 C 21.121094 42.851562 21.753906 43.050781 21.875 42.847656 C 21.882812 42.828125 21.898438 42.777344 21.890625 42.683594 C 21.855469 42.386719 21.859375 42.085938 21.84375 41.789062 C 21.84375 41.78125 21.84375 41.773438 21.839844 41.765625 C 21.765625 41.15625 21.722656 40.546875 21.679688 39.9375 C 21.648438 39.460938 21.640625 38.980469 21.621094 38.503906 C 21.621094 38.472656 21.621094 38.441406 21.617188 38.414062 C 21.550781 37.824219 21.53125 37.234375 21.503906 36.644531 C 21.472656 35.847656 21.472656 35.046875 21.410156 34.25 C 21.363281 33.660156 21.339844 33.070312 21.304688 32.480469 C 21.296875 32.347656 21.28125 32.214844 21.265625 32.078125 C 21.261719 32 21.222656 31.957031 21.140625 31.953125 C 20.894531 31.9375 20.648438 31.910156 20.402344 31.910156 C 19.671875 31.90625 18.941406 31.90625 18.210938 31.933594 C 17.351562 31.96875 16.496094 31.898438 15.636719 31.867188 C 14.734375 31.835938 13.832031 31.894531 12.929688 31.816406 C 12.847656 31.816406 12.765625 31.816406 12.683594 31.816406 Z M 41.074219 14.332031 C 41.09375 14.285156 41.082031 14.167969 41.046875 14.078125 C 41.039062 14.054688 41.027344 14.035156 41.019531 14.015625 C 40.835938 13.628906 40.628906 13.257812 40.402344 12.898438 C 39.804688 11.953125 39.476562 11.472656 38.96875 10.890625 C 38.515625 10.375 38.640625 10.621094 36.984375 9.078125 C 36.074219 8.230469 35.886719 8.019531 35.394531 7.679688 C 34.984375 7.398438 34.691406 7.195312 34.273438 6.914062 C 34.050781 6.761719 33.828125 6.605469 33.613281 6.4375 C 33.542969 6.382812 33.460938 6.34375 33.378906 6.300781 C 33.347656 6.285156 33.308594 6.277344 33.273438 6.304688 C 33.234375 6.335938 33.261719 6.371094 33.273438 6.40625 C 33.292969 6.445312 33.3125 6.484375 33.332031 6.527344 C 33.449219 6.761719 33.578125 6.988281 33.679688 7.230469 C 33.898438 7.738281 34.035156 8.273438 34.183594 8.808594 C 34.324219 9.335938 34.410156 9.875 34.550781 10.402344 C 34.789062 11.265625 35.019531 12.128906 35.175781 13.015625 C 35.246094 13.402344 35.316406 13.792969 35.386719 14.179688 C 35.414062 14.328125 35.476562 14.421875 35.644531 14.433594 C 35.75 14.441406 35.851562 14.460938 35.957031 14.46875 C 36.203125 14.480469 36.445312 14.4375 36.691406 14.429688 C 37.535156 14.414062 38.378906 14.367188 39.222656 14.382812 C 39.476562 14.386719 39.730469 14.367188 39.984375 14.378906 C 40.53125 14.402344 41.023438 14.476562 41.074219 14.332031 Z M 6.570312 31.835938 C 6.332031 32.34375 6.824219 33.015625 7.402344 33.835938 C 8.695312 35.671875 8.347656 35.289062 8.78125 35.832031 C 9.304688 36.492188 10.300781 37.742188 11.300781 38.425781 C 11.742188 38.722656 12.265625 38.972656 12.5 39.222656 C 12.640625 39.367188 12.832031 39.453125 13.007812 39.550781 C 13.035156 39.566406 13.0625 39.578125 13.085938 39.550781 C 13.109375 39.523438 13.101562 39.496094 13.089844 39.464844 C 13.078125 39.445312 13.070312 39.425781 13.058594 39.40625 C 12.734375 38.808594 12.496094 38.167969 12.25 37.535156 C 11.894531 36.605469 11.539062 35.679688 11.191406 34.75 C 10.835938 33.8125 10.546875 32.855469 10.328125 31.875 C 10.300781 31.742188 10.230469 31.730469 10.125 31.726562 C 9.820312 31.722656 9.511719 31.65625 9.207031 31.691406 C 8.921875 31.726562 8.261719 31.730469 6.714844 31.628906 C 6.671875 31.671875 6.613281 31.742188 6.570312 31.835938 Z M 12.007812 7.230469 C 11.601562 7.507812 11.339844 7.679688 11.132812 7.832031 C 10.726562 8.128906 10.441406 8.386719 10.15625 8.648438 C 9.628906 9.128906 8.898438 9.800781 8.128906 10.84375 C 8.015625 10.996094 7.636719 11.691406 6.886719 13.070312 C 6.886719 13.070312 6.75 13.320312 6.628906 13.929688 C 6.597656 14.078125 6.566406 14.289062 6.664062 14.359375 C 6.710938 14.390625 6.765625 14.382812 6.789062 14.382812 C 7.371094 14.359375 7.953125 14.4375 8.535156 14.429688 C 8.5625 14.429688 8.59375 14.4375 8.621094 14.441406 C 8.910156 14.480469 9.203125 14.457031 9.492188 14.464844 C 9.582031 14.46875 9.632812 14.425781 9.652344 14.339844 C 9.679688 14.214844 9.714844 14.09375 9.738281 13.96875 C 9.882812 13.226562 10.097656 12.503906 10.378906 11.800781 C 10.601562 11.253906 10.847656 10.71875 11.058594 10.167969 C 11.449219 9.136719 11.875 8.125 12.417969 7.167969 C 12.453125 7.105469 12.503906 7.042969 12.457031 6.929688 C 12.351562 7 12.195312 7.105469 12.007812 7.230469 Z M 39.003906 31.726562 C 38.945312 31.726562 38.882812 31.730469 38.828125 31.746094 C 38.71875 31.769531 38.621094 31.828125 38.59375 31.933594 C 38.566406 32.050781 38.683594 32.097656 38.761719 32.144531 C 38.980469 32.277344 39.191406 32.414062 39.394531 32.566406 C 39.789062 32.851562 40.1875 33.128906 40.582031 33.40625 C 40.746094 33.519531 40.816406 33.507812 40.941406 33.351562 C 41.109375 33.140625 41.257812 32.917969 41.378906 32.675781 C 41.488281 32.453125 41.539062 32.210938 41.636719 31.984375 C 41.738281 31.753906 41.628906 31.628906 41.371094 31.652344 C 40.859375 31.707031 40.347656 31.742188 39.832031 31.722656 C 39.554688 31.722656 39.28125 31.722656 39.003906 31.726562 Z M 39.003906 31.726562 " fill-opacity="1" fill-rule="nonzero"/></g><g clip-path="url(#eab182a089)"><path fill="#2f3c36" d="M 36.585938 37.136719 C 37.894531 39.484375 38.40625 40.367188 38.582031 40.640625 C 38.777344 40.949219 38.957031 41.265625 39.144531 41.574219 C 39.164062 41.605469 39.183594 41.640625 39.199219 41.671875 C 39.242188 41.753906 39.308594 41.824219 39.308594 41.917969 C 39.304688 42.035156 39.175781 42.015625 39.109375 42.070312 C 38.6875 42.414062 38.199219 42.671875 37.78125 43.019531 C 37.570312 43.195312 37.539062 43.195312 37.496094 43.199219 C 37.148438 43.21875 36.945312 42.539062 36.417969 41.453125 C 35.710938 39.996094 34.90625 38.8125 34.519531 38.242188 C 34.503906 38.214844 34.488281 38.195312 34.480469 38.183594 C 34.410156 38.195312 34.394531 38.261719 34.363281 38.308594 C 33.816406 39.15625 33.300781 40.023438 32.824219 40.914062 C 32.457031 41.601562 32.078125 42.28125 31.703125 42.960938 C 31.632812 43.085938 31.558594 43.207031 31.445312 43.296875 C 31.28125 43.425781 31.113281 43.382812 31.046875 43.183594 C 31.003906 43.050781 31 42.9375 31 42.917969 C 31.015625 42.664062 30.773438 42.453125 30.433594 37.683594 C 30.390625 37.101562 30.402344 37.230469 30.347656 36.464844 C 30.242188 34.960938 30.191406 34.207031 30.097656 33.390625 C 30.003906 32.539062 29.949219 32.304688 29.855469 31.320312 C 29.671875 29.464844 29.734375 29.734375 29.695312 29.351562 C 29.644531 28.867188 29.59375 28.386719 29.613281 27.898438 C 29.617188 27.75 29.660156 27.699219 29.796875 27.742188 C 29.917969 27.78125 30.03125 27.839844 30.140625 27.90625 C 30.648438 28.195312 31.132812 28.515625 31.621094 28.835938 C 32.378906 29.332031 33.097656 29.878906 33.882812 30.332031 C 35.746094 31.414062 37.523438 32.625 39.253906 33.910156 C 40.015625 34.472656 40.785156 35.03125 41.550781 35.59375 C 41.660156 35.671875 41.773438 35.75 41.902344 35.789062 C 41.984375 35.816406 42.042969 35.875 42.105469 35.925781 C 42.207031 36.007812 42.195312 36.109375 42.085938 36.179688 C 42 36.230469 41.902344 36.25 41.808594 36.273438 C 40.628906 36.542969 39.4375 36.75 38.246094 36.949219 C 37.707031 37.039062 37.167969 37.101562 36.585938 37.136719 Z M 36.585938 37.136719 " fill-opacity="1" fill-rule="nonzero"/></g><g clip-path="url(#e9702545fe)"><path fill="#d4f6c8" d="M 38.1875 16.488281 C 39.285156 16.519531 40.378906 16.453125 41.476562 16.449219 C 41.707031 16.488281 42.058594 16.398438 42.203125 16.628906 C 42.671875 17.992188 43.117188 19.742188 43.28125 21.796875 C 43.496094 24.507812 42.957031 24.476562 43.066406 26.863281 C 43.066406 26.863281 43.125 28.128906 42.421875 29.75 C 42.40625 29.785156 42.382812 29.804688 42.382812 29.804688 C 42.34375 29.835938 42.285156 29.832031 42.230469 29.835938 C 41.300781 29.921875 40.378906 29.933594 39.449219 29.835938 C 34.414062 29.691406 35.957031 30.859375 36.164062 26.109375 C 36.355469 22.984375 36.230469 19.851562 35.855469 16.75 C 35.847656 16.71875 35.847656 16.6875 35.855469 16.664062 C 35.953125 16.304688 37.421875 16.410156 38.1875 16.488281 Z M 20.59375 14.601562 C 20.71875 14.625 20.847656 14.597656 20.976562 14.597656 C 21.0625 14.597656 21.117188 14.5625 21.136719 14.476562 C 21.179688 14.292969 21.222656 14.113281 21.222656 13.925781 C 21.222656 13.230469 21.210938 12.535156 21.269531 11.839844 C 21.289062 11.65625 21.300781 11.46875 21.324219 11.285156 C 21.359375 10.972656 21.402344 10.664062 21.398438 10.351562 C 21.386719 9.3125 21.425781 8.273438 21.367188 7.230469 C 21.332031 6.554688 21.328125 5.871094 21.398438 5.191406 C 21.429688 4.886719 21.34375 4.585938 21.351562 4.277344 C 21.355469 4.167969 21.34375 4.101562 21.304688 4.066406 C 21.238281 4.007812 21.117188 4.042969 21.089844 4.050781 C 20.738281 4.140625 20.277344 3.917969 18.78125 4.261719 C 17.039062 4.660156 16.089844 5.316406 15.828125 5.574219 C 15.726562 5.671875 15.636719 5.777344 15.636719 5.777344 C 15.472656 6.007812 15.316406 6.242188 15.167969 6.488281 C 14.753906 7.1875 14.332031 7.886719 13.96875 8.613281 C 13.539062 9.472656 13.125 10.347656 12.761719 11.238281 C 12.441406 12.019531 12.109375 12.796875 11.890625 13.613281 C 11.824219 13.863281 11.757812 14.117188 11.761719 14.382812 C 11.761719 14.488281 11.796875 14.554688 11.914062 14.554688 C 12.179688 14.558594 12.445312 14.609375 12.714844 14.605469 C 13.351562 14.59375 13.984375 14.609375 14.621094 14.597656 C 15.066406 14.589844 15.515625 14.640625 15.960938 14.558594 C 16.003906 14.554688 16.054688 14.550781 16.09375 14.566406 C 16.242188 14.613281 16.390625 14.597656 16.539062 14.597656 C 17.226562 14.601562 17.914062 14.597656 18.601562 14.597656 C 19.996094 14.558594 20.460938 14.574219 20.59375 14.601562 Z M 23.65625 31.992188 C 23.636719 31.988281 23.570312 31.984375 23.5 32 C 23.40625 32.015625 23.355469 32.097656 23.359375 32.1875 C 23.390625 32.785156 23.429688 33.378906 23.457031 33.972656 C 23.492188 34.832031 23.453125 35.695312 23.507812 36.554688 C 23.523438 36.804688 23.539062 37.058594 23.566406 37.3125 C 23.605469 37.71875 23.652344 38.125 23.695312 38.53125 C 23.714844 38.722656 23.710938 38.921875 23.742188 39.109375 C 23.804688 39.496094 23.773438 39.882812 23.8125 40.269531 C 23.847656 40.589844 23.808594 40.914062 23.828125 41.234375 C 23.84375 41.507812 23.871094 41.785156 23.898438 42.058594 C 23.921875 42.316406 23.988281 42.570312 24.003906 42.832031 C 24.011719 43.003906 24.046875 43.042969 24.214844 43.046875 C 24.730469 43.050781 25.253906 43.105469 25.757812 42.996094 C 26.347656 42.871094 26.007812 43.015625 28.140625 42.738281 C 28.140625 42.738281 29.410156 42.574219 29.484375 42.234375 C 29.523438 42.039062 29.511719 41.84375 29.511719 41.84375 C 29.511719 41.835938 29.511719 41.828125 29.511719 41.820312 C 29.429688 41.460938 29.476562 41.09375 29.441406 40.726562 C 29.40625 40.375 29.382812 40.015625 29.371094 39.65625 C 29.363281 39.457031 29.359375 39.253906 29.328125 39.054688 C 29.28125 38.746094 29.253906 38.429688 29.253906 38.121094 C 29.257812 37.648438 29.222656 37.179688 29.191406 36.710938 C 29.164062 36.242188 29.101562 35.773438 29.113281 35.304688 C 29.121094 34.882812 29.042969 34.46875 29.066406 34.050781 C 29.066406 34.035156 29.066406 34.019531 29.0625 34.003906 C 29.003906 33.554688 28.972656 33.101562 28.976562 32.644531 C 28.980469 32.449219 28.976562 32.253906 28.980469 32.058594 C 28.984375 31.941406 28.9375 31.902344 28.824219 31.90625 C 28.578125 31.910156 28.332031 31.925781 28.085938 31.9375 C 27.566406 31.96875 27.042969 31.957031 26.523438 31.988281 C 26.085938 32.015625 25.640625 31.992188 25.199219 31.992188 C 24.167969 32.039062 23.773438 32.023438 23.65625 31.992188 Z M 6.4375 16.355469 C 6.292969 16.351562 6.164062 16.351562 6.042969 16.433594 C 5.957031 16.492188 5.898438 16.597656 5.828125 16.78125 C 5.65625 17.222656 5.617188 17.324219 5.617188 17.324219 C 5.238281 18.71875 5.050781 19.417969 4.976562 19.8125 C 4.8125 20.738281 4.613281 21.847656 4.59375 23.359375 C 4.582031 24.230469 4.648438 24.90625 4.785156 26.257812 C 5.023438 28.625 5.101562 27.429688 5.53125 29.109375 C 5.546875 29.164062 5.585938 29.320312 5.722656 29.414062 C 5.796875 29.464844 5.894531 29.476562 6.0625 29.476562 C 6.628906 29.476562 7.195312 29.476562 7.765625 29.476562 C 7.832031 29.476562 7.898438 29.476562 7.964844 29.484375 C 8.484375 29.539062 9.003906 29.570312 9.523438 29.566406 C 9.757812 29.5625 9.8125 29.484375 9.769531 29.257812 C 9.6875 28.824219 9.578125 28.398438 9.511719 27.964844 C 9.460938 27.628906 9.410156 27.289062 9.371094 26.949219 C 9.335938 26.628906 9.285156 26.316406 9.253906 25.996094 C 9.214844 25.640625 9.195312 25.285156 9.15625 24.929688 C 9.109375 24.542969 9.070312 24.160156 9.070312 23.769531 C 9.070312 23.734375 9.070312 23.695312 9.0625 23.660156 C 8.992188 23.289062 9 22.914062 8.992188 22.542969 C 8.972656 21.605469 8.945312 20.660156 9.019531 19.71875 C 9.042969 19.421875 9.0625 19.125 9.082031 18.828125 C 9.105469 18.425781 9.144531 18.023438 9.160156 17.621094 C 9.164062 17.554688 9.175781 17.488281 9.183594 17.421875 C 9.207031 17.140625 9.269531 16.863281 9.253906 16.578125 C 9.242188 16.433594 9.21875 16.402344 9.078125 16.402344 C 8.71875 16.402344 8.363281 16.386719 8.007812 16.359375 C 7.761719 16.339844 7.515625 16.355469 7.269531 16.355469 C 6.898438 16.359375 6.625 16.359375 6.4375 16.355469 Z M 6.4375 16.355469 " fill-opacity="1" fill-rule="nonzero"/></g><g clip-path="url(#7da70c2a00)"><path fill="#75d0df" d="M 33.828125 28.609375 C 33.683594 28.570312 33.558594 28.476562 33.421875 28.402344 C 33.050781 28.207031 32.679688 28.015625 32.308594 27.820312 C 31.253906 27.261719 30.195312 26.703125 29.136719 26.144531 C 29.066406 26.109375 28.996094 26.0625 28.917969 26.03125 C 28.785156 25.980469 28.714844 26.011719 28.65625 26.148438 C 28.636719 26.195312 28.617188 26.242188 28.613281 26.296875 C 28.574219 27.03125 28.578125 27.761719 28.699219 28.488281 C 28.703125 28.507812 28.703125 28.53125 28.703125 28.554688 C 28.71875 28.949219 28.738281 29.347656 28.75 29.742188 C 28.753906 29.914062 28.742188 29.925781 28.578125 29.917969 C 27.128906 29.847656 25.679688 29.886719 24.230469 29.886719 C 23.984375 29.886719 23.738281 29.886719 23.496094 29.84375 C 23.375 29.820312 23.308594 29.769531 23.269531 29.660156 C 23.238281 29.558594 23.203125 29.464844 23.195312 29.355469 C 23.121094 27.925781 23.132812 26.496094 23.164062 25.066406 C 23.175781 24.507812 23.203125 23.945312 23.179688 23.386719 C 23.152344 22.703125 23.144531 22.023438 23.164062 21.34375 C 23.199219 19.996094 23.191406 18.648438 23.199219 17.300781 C 23.199219 17.128906 23.253906 16.960938 23.242188 16.789062 C 23.234375 16.703125 23.28125 16.667969 23.363281 16.664062 C 24.042969 16.632812 24.71875 16.605469 25.398438 16.648438 C 25.964844 16.683594 26.53125 16.695312 27.097656 16.636719 C 27.296875 16.613281 27.5 16.609375 27.699219 16.585938 C 28.011719 16.554688 28.324219 16.546875 28.636719 16.53125 C 29.34375 16.488281 30.050781 16.441406 30.761719 16.441406 C 31.234375 16.445312 31.703125 16.511719 32.171875 16.476562 C 32.546875 16.449219 32.917969 16.488281 33.289062 16.488281 C 33.566406 16.488281 33.621094 16.539062 33.664062 16.820312 C 33.707031 17.085938 33.726562 17.355469 33.769531 17.621094 C 33.832031 18.046875 33.910156 18.476562 33.972656 18.902344 C 34.007812 19.132812 34.035156 19.359375 34.046875 19.59375 C 34.128906 21.5625 34.082031 23.53125 34.082031 25.5 C 34.082031 26.132812 34.046875 26.769531 33.96875 27.398438 C 33.921875 27.761719 33.898438 28.128906 33.867188 28.492188 C 33.863281 28.53125 33.871094 28.566406 33.828125 28.609375 Z M 21 29.828125 C 21.140625 29.828125 21.175781 29.796875 21.179688 29.65625 C 21.179688 29.453125 21.222656 29.253906 21.222656 29.054688 C 21.222656 28.15625 21.242188 27.257812 21.191406 26.359375 C 21.160156 25.859375 21.160156 25.359375 21.167969 24.859375 C 21.179688 23.714844 21.183594 22.570312 21.101562 21.425781 C 21.046875 20.636719 21.074219 19.839844 21.101562 19.046875 C 21.109375 18.835938 21.144531 18.625 21.121094 18.417969 C 21.078125 17.992188 21.097656 17.566406 21.085938 17.140625 C 21.082031 17.066406 21.082031 16.992188 21.070312 16.917969 C 21.058594 16.820312 21.023438 16.753906 20.90625 16.742188 C 20.8125 16.734375 20.714844 16.722656 20.617188 16.714844 C 20.03125 16.683594 19.445312 16.777344 18.851562 16.726562 C 18.324219 16.679688 17.796875 16.636719 17.269531 16.636719 C 16.238281 16.632812 15.207031 16.59375 14.175781 16.574219 C 13.472656 16.5625 12.777344 16.664062 12.078125 16.664062 C 11.90625 16.664062 11.734375 16.664062 11.5625 16.664062 C 11.390625 16.664062 11.359375 16.6875 11.304688 16.855469 C 11.289062 16.902344 11.277344 16.957031 11.269531 17.007812 C 11.210938 17.277344 11.179688 17.550781 11.164062 17.828125 C 11.132812 18.347656 11.066406 18.871094 11.050781 19.390625 C 11.027344 20.332031 11.066406 21.273438 11.121094 22.21875 C 11.167969 22.976562 11.121094 23.742188 11.179688 24.503906 C 11.199219 24.757812 11.195312 25.015625 11.234375 25.265625 C 11.328125 25.898438 11.378906 26.539062 11.488281 27.175781 C 11.617188 27.925781 11.808594 28.664062 11.929688 29.414062 C 11.976562 29.707031 12.039062 29.742188 12.335938 29.746094 C 13.203125 29.757812 14.070312 29.730469 14.933594 29.785156 C 15.433594 29.816406 15.933594 29.800781 16.433594 29.824219 C 17.320312 29.863281 18.210938 29.867188 19.3125 29.890625 C 19.734375 29.914062 20.367188 29.824219 21 29.828125 Z M 23.554688 3.902344 C 23.535156 3.898438 23.449219 3.882812 23.402344 3.929688 C 23.378906 3.953125 23.378906 4 23.378906 4.082031 C 23.378906 4.277344 23.398438 4.46875 23.40625 4.664062 C 23.425781 5.34375 23.480469 6.019531 23.496094 6.699219 C 23.519531 7.558594 23.523438 8.421875 23.472656 9.28125 C 23.445312 9.699219 23.457031 10.117188 23.429688 10.535156 C 23.390625 11.074219 23.394531 11.613281 23.378906 12.148438 C 23.371094 12.496094 23.390625 12.839844 23.359375 13.183594 C 23.324219 13.59375 23.332031 14.003906 23.324219 14.414062 C 23.324219 14.59375 23.335938 14.613281 23.519531 14.59375 C 23.753906 14.570312 23.980469 14.597656 24.210938 14.597656 C 24.480469 14.59375 24.746094 14.570312 25.015625 14.566406 C 26.105469 14.554688 27.195312 14.5625 28.285156 14.5625 C 28.414062 14.5625 28.535156 14.59375 28.664062 14.582031 C 29.207031 14.539062 29.753906 14.550781 30.296875 14.523438 C 30.484375 14.515625 30.679688 14.546875 30.875 14.554688 C 31.171875 14.566406 31.472656 14.539062 31.769531 14.589844 C 31.863281 14.605469 31.964844 14.59375 32.058594 14.589844 C 32.421875 14.5625 32.785156 14.53125 33.152344 14.507812 C 33.355469 14.496094 33.382812 14.472656 33.367188 14.269531 C 33.367188 14.222656 33.355469 14.179688 33.347656 14.136719 C 33.28125 13.722656 33.214844 13.3125 33.152344 12.898438 C 33.082031 12.410156 32.988281 11.925781 32.839844 11.453125 C 32.636719 10.789062 32.425781 10.128906 32.222656 9.464844 C 32.074219 8.960938 31.957031 8.453125 31.792969 7.957031 C 31.523438 7.144531 31.234375 6.34375 30.949219 5.542969 C 30.941406 5.527344 30.929688 5.488281 30.910156 5.4375 C 30.910156 5.4375 30.796875 5.171875 30.59375 4.945312 C 30.085938 4.386719 27.308594 3.996094 27.308594 3.996094 C 26.226562 3.84375 25.539062 3.75 24.902344 3.765625 C 24.1875 3.78125 23.753906 3.929688 23.554688 3.902344 Z M 12.683594 31.816406 C 12.480469 31.816406 12.449219 31.851562 12.492188 32.054688 C 12.507812 32.128906 12.527344 32.199219 12.546875 32.273438 C 12.808594 33.183594 13.0625 34.101562 13.394531 34.992188 C 13.679688 35.761719 13.957031 36.535156 14.289062 37.289062 C 14.609375 38.011719 14.96875 38.71875 15.335938 39.425781 C 15.65625 40.050781 16.023438 40.648438 16.441406 41.214844 C 16.617188 41.453125 16.796875 41.566406 16.878906 41.632812 C 17.132812 41.835938 17.53125 42.109375 18.226562 42.34375 C 19.179688 42.664062 19.207031 42.414062 20.53125 42.71875 C 21.121094 42.851562 21.753906 43.050781 21.875 42.847656 C 21.882812 42.828125 21.898438 42.777344 21.890625 42.683594 C 21.855469 42.386719 21.859375 42.085938 21.84375 41.789062 C 21.84375 41.78125 21.84375 41.773438 21.839844 41.765625 C 21.765625 41.15625 21.722656 40.546875 21.679688 39.9375 C 21.648438 39.460938 21.640625 38.980469 21.621094 38.503906 C 21.621094 38.472656 21.621094 38.441406 21.617188 38.414062 C 21.550781 37.824219 21.53125 37.234375 21.503906 36.644531 C 21.472656 35.847656 21.472656 35.046875 21.410156 34.25 C 21.363281 33.660156 21.339844 33.070312 21.304688 32.480469 C 21.296875 32.347656 21.28125 32.214844 21.265625 32.078125 C 21.261719 32 21.222656 31.957031 21.140625 31.953125 C 20.894531 31.9375 20.648438 31.910156 20.402344 31.910156 C 19.671875 31.90625 18.941406 31.90625 18.210938 31.933594 C 17.351562 31.96875 16.496094 31.898438 15.636719 31.867188 C 14.734375 31.835938 13.832031 31.894531 12.929688 31.816406 C 12.847656 31.816406 12.765625 31.816406 12.683594 31.816406 Z M 41.074219 14.332031 C 41.09375 14.285156 41.082031 14.167969 41.046875 14.078125 C 41.039062 14.054688 41.027344 14.035156 41.019531 14.015625 C 40.835938 13.628906 40.628906 13.257812 40.402344 12.898438 C 39.804688 11.953125 39.476562 11.472656 38.96875 10.890625 C 38.515625 10.375 38.640625 10.621094 36.984375 9.078125 C 36.074219 8.230469 35.886719 8.019531 35.394531 7.679688 C 34.984375 7.398438 34.691406 7.195312 34.273438 6.914062 C 34.050781 6.761719 33.828125 6.605469 33.613281 6.4375 C 33.542969 6.382812 33.460938 6.34375 33.378906 6.300781 C 33.347656 6.285156 33.308594 6.277344 33.273438 6.304688 C 33.234375 6.335938 33.261719 6.371094 33.273438 6.40625 C 33.292969 6.445312 33.3125 6.484375 33.332031 6.527344 C 33.449219 6.761719 33.578125 6.988281 33.679688 7.230469 C 33.898438 7.738281 34.035156 8.273438 34.183594 8.808594 C 34.324219 9.335938 34.410156 9.875 34.550781 10.402344 C 34.789062 11.265625 35.019531 12.128906 35.175781 13.015625 C 35.246094 13.402344 35.316406 13.792969 35.386719 14.179688 C 35.414062 14.328125 35.476562 14.421875 35.644531 14.433594 C 35.75 14.441406 35.851562 14.460938 35.957031 14.46875 C 36.203125 14.480469 36.445312 14.4375 36.691406 14.429688 C 37.535156 14.414062 38.378906 14.367188 39.222656 14.382812 C 39.476562 14.386719 39.730469 14.367188 39.984375 14.378906 C 40.53125 14.402344 41.023438 14.476562 41.074219 14.332031 Z M 6.570312 31.835938 C 6.332031 32.34375 6.824219 33.015625 7.402344 33.835938 C 8.695312 35.671875 8.347656 35.289062 8.78125 35.832031 C 9.304688 36.492188 10.300781 37.742188 11.300781 38.425781 C 11.742188 38.722656 12.265625 38.972656 12.5 39.222656 C 12.640625 39.367188 12.832031 39.453125 13.007812 39.550781 C 13.035156 39.566406 13.0625 39.578125 13.085938 39.550781 C 13.109375 39.523438 13.101562 39.496094 13.089844 39.464844 C 13.078125 39.445312 13.070312 39.425781 13.058594 39.40625 C 12.734375 38.808594 12.496094 38.167969 12.25 37.535156 C 11.894531 36.605469 11.539062 35.679688 11.191406 34.75 C 10.835938 33.8125 10.546875 32.855469 10.328125 31.875 C 10.300781 31.742188 10.230469 31.730469 10.125 31.726562 C 9.820312 31.722656 9.511719 31.65625 9.207031 31.691406 C 8.921875 31.726562 8.261719 31.730469 6.714844 31.628906 C 6.671875 31.671875 6.613281 31.742188 6.570312 31.835938 Z M 12.007812 7.230469 C 11.601562 7.507812 11.339844 7.679688 11.132812 7.832031 C 10.726562 8.128906 10.441406 8.386719 10.15625 8.648438 C 9.628906 9.128906 8.898438 9.800781 8.128906 10.84375 C 8.015625 10.996094 7.636719 11.691406 6.886719 13.070312 C 6.886719 13.070312 6.75 13.320312 6.628906 13.929688 C 6.597656 14.078125 6.566406 14.289062 6.664062 14.359375 C 6.710938 14.390625 6.765625 14.382812 6.789062 14.382812 C 7.371094 14.359375 7.953125 14.4375 8.535156 14.429688 C 8.5625 14.429688 8.59375 14.4375 8.621094 14.441406 C 8.910156 14.480469 9.203125 14.457031 9.492188 14.464844 C 9.582031 14.46875 9.632812 14.425781 9.652344 14.339844 C 9.679688 14.214844 9.714844 14.09375 9.738281 13.96875 C 9.882812 13.226562 10.097656 12.503906 10.378906 11.800781 C 10.601562 11.253906 10.847656 10.71875 11.058594 10.167969 C 11.449219 9.136719 11.875 8.125 12.417969 7.167969 C 12.453125 7.105469 12.503906 7.042969 12.457031 6.929688 C 12.351562 7 12.195312 7.105469 12.007812 7.230469 Z M 39.003906 31.726562 C 38.945312 31.726562 38.882812 31.730469 38.828125 31.746094 C 38.71875 31.769531 38.621094 31.828125 38.59375 31.933594 C 38.566406 32.050781 38.683594 32.097656 38.761719 32.144531 C 38.980469 32.277344 39.191406 32.414062 39.394531 32.566406 C 39.789062 32.851562 40.1875 33.128906 40.582031 33.40625 C 40.746094 33.519531 40.816406 33.507812 40.941406 33.351562 C 41.109375 33.140625 41.257812 32.917969 41.378906 32.675781 C 41.488281 32.453125 41.539062 32.210938 41.636719 31.984375 C 41.738281 31.753906 41.628906 31.628906 41.371094 31.652344 C 40.859375 31.707031 40.347656 31.742188 39.832031 31.722656 C 39.554688 31.722656 39.28125 31.722656 39.003906 31.726562 Z M 39.003906 31.726562 " fill-opacity="1" fill-rule="nonzero"/></g></svg>