<svg xmlns="http://www.w3.org/2000/svg" xmlns:xlink="http://www.w3.org/1999/xlink" width="64" zoomAndPan="magnify" viewBox="0 0 48 48" height="64" preserveAspectRatio="xMidYMid meet" version="1.0"><defs><clipPath id="7096cef6a8"><path d="M 40.394531 14.515625 L 45.535156 14.515625 L 45.535156 20.394531 L 40.394531 20.394531 Z M 40.394531 14.515625 " clip-rule="nonzero"/></clipPath><clipPath id="d9bfbdd6a5"><path d="M 43.371094 17.347656 C 43.371094 17.449219 43.320312 17.5 43.214844 17.5 C 43.113281 17.5 43.0625 17.449219 43.0625 17.347656 C 43.0625 17.246094 43.113281 17.195312 43.21875 17.195312 C 43.320312 17.195312 43.371094 17.246094 43.371094 17.347656 Z M 42.910156 17.511719 C 42.816406 17.511719 42.765625 17.558594 42.765625 17.652344 C 42.769531 17.75 42.816406 17.796875 42.910156 17.796875 C 43.007812 17.796875 43.054688 17.75 43.054688 17.652344 C 43.054688 17.558594 43.007812 17.511719 42.910156 17.511719 Z M 42.605469 17.824219 C 42.515625 17.824219 42.472656 17.871094 42.472656 17.960938 C 42.472656 18.050781 42.515625 18.09375 42.605469 18.09375 C 42.695312 18.09375 42.738281 18.050781 42.738281 17.960938 C 42.738281 17.871094 42.695312 17.824219 42.605469 17.824219 Z M 42.300781 18.140625 C 42.21875 18.140625 42.175781 18.183594 42.175781 18.265625 C 42.175781 18.347656 42.21875 18.390625 42.300781 18.390625 C 42.382812 18.390625 42.425781 18.347656 42.425781 18.265625 C 42.425781 18.183594 42.382812 18.140625 42.300781 18.140625 Z M 41.996094 18.457031 C 41.917969 18.457031 41.878906 18.492188 41.878906 18.570312 C 41.878906 18.648438 41.917969 18.683594 41.996094 18.683594 C 42.070312 18.683594 42.109375 18.648438 42.109375 18.570312 C 42.109375 18.492188 42.070312 18.457031 41.992188 18.457031 Z M 41.6875 18.769531 C 41.617188 18.769531 41.582031 18.804688 41.582031 18.875 C 41.582031 18.945312 41.617188 18.980469 41.6875 18.980469 C 41.757812 18.980469 41.792969 18.945312 41.792969 18.875 C 41.792969 18.804688 41.757812 18.769531 41.6875 18.769531 Z M 41.382812 19.085938 C 41.320312 19.085938 41.289062 19.117188 41.289062 19.179688 C 41.289062 19.246094 41.320312 19.277344 41.382812 19.277344 C 41.445312 19.277344 41.476562 19.246094 41.476562 19.179688 C 41.476562 19.117188 41.445312 19.085938 41.382812 19.085938 Z M 41.078125 19.402344 C 41.019531 19.402344 40.992188 19.429688 40.992188 19.488281 C 40.992188 19.546875 41.019531 19.574219 41.078125 19.574219 C 41.132812 19.574219 41.164062 19.542969 41.164062 19.488281 C 41.160156 19.429688 41.132812 19.402344 41.078125 19.402344 Z M 40.769531 19.71875 C 40.71875 19.71875 40.695312 19.742188 40.695312 19.792969 C 40.695312 19.84375 40.71875 19.871094 40.769531 19.871094 C 40.820312 19.871094 40.847656 19.84375 40.847656 19.792969 C 40.847656 19.742188 40.820312 19.71875 40.769531 19.71875 Z M 40.464844 20.03125 C 40.421875 20.03125 40.398438 20.054688 40.398438 20.097656 C 40.398438 20.144531 40.421875 20.164062 40.464844 20.164062 C 40.507812 20.164062 40.53125 20.144531 40.53125 20.097656 C 40.53125 20.054688 40.507812 20.03125 40.464844 20.03125 Z M 43.832031 17.195312 C 43.730469 17.195312 43.679688 17.246094 43.679688 17.347656 C 43.679688 17.449219 43.730469 17.5 43.832031 17.5 C 43.933594 17.5 43.984375 17.449219 43.984375 17.347656 C 43.984375 17.246094 43.933594 17.195312 43.832031 17.195312 Z M 43.527344 17.511719 C 43.429688 17.511719 43.382812 17.558594 43.382812 17.652344 C 43.382812 17.75 43.429688 17.796875 43.527344 17.796875 C 43.621094 17.796875 43.667969 17.75 43.667969 17.652344 C 43.667969 17.558594 43.621094 17.511719 43.527344 17.511719 Z M 43.21875 17.824219 C 43.132812 17.824219 43.085938 17.871094 43.085938 17.960938 C 43.085938 18.046875 43.132812 18.09375 43.21875 18.09375 C 43.308594 18.09375 43.355469 18.046875 43.355469 17.957031 C 43.355469 17.871094 43.308594 17.824219 43.21875 17.824219 Z M 42.914062 18.140625 C 42.832031 18.140625 42.789062 18.183594 42.789062 18.265625 C 42.789062 18.347656 42.832031 18.390625 42.914062 18.390625 C 42.996094 18.390625 43.039062 18.347656 43.039062 18.265625 C 43.039062 18.183594 42.996094 18.140625 42.914062 18.140625 Z M 42.609375 18.457031 C 42.53125 18.457031 42.496094 18.492188 42.496094 18.570312 C 42.496094 18.648438 42.53125 18.683594 42.609375 18.683594 C 42.683594 18.683594 42.722656 18.648438 42.722656 18.570312 C 42.722656 18.492188 42.683594 18.457031 42.609375 18.457031 Z M 42.304688 18.769531 C 42.234375 18.773438 42.199219 18.808594 42.199219 18.875 C 42.199219 18.945312 42.234375 18.980469 42.304688 18.980469 C 42.375 18.980469 42.410156 18.945312 42.410156 18.875 C 42.410156 18.804688 42.375 18.769531 42.304688 18.769531 Z M 41.996094 19.085938 C 41.933594 19.085938 41.902344 19.117188 41.902344 19.179688 C 41.902344 19.246094 41.933594 19.277344 41.996094 19.277344 C 42.0625 19.277344 42.09375 19.246094 42.09375 19.179688 C 42.09375 19.117188 42.0625 19.085938 41.996094 19.085938 Z M 41.691406 19.402344 C 41.632812 19.402344 41.605469 19.429688 41.605469 19.488281 C 41.605469 19.542969 41.632812 19.574219 41.691406 19.574219 C 41.75 19.574219 41.777344 19.542969 41.777344 19.488281 C 41.777344 19.429688 41.75 19.402344 41.691406 19.402344 Z M 41.386719 19.71875 C 41.335938 19.71875 41.308594 19.742188 41.308594 19.792969 C 41.308594 19.84375 41.335938 19.871094 41.386719 19.871094 C 41.4375 19.871094 41.460938 19.84375 41.460938 19.792969 C 41.460938 19.742188 41.4375 19.71875 41.386719 19.71875 Z M 41.082031 20.03125 C 41.035156 20.03125 41.015625 20.054688 41.015625 20.097656 C 41.015625 20.144531 41.035156 20.164062 41.082031 20.164062 C 41.125 20.164062 41.148438 20.144531 41.148438 20.097656 C 41.148438 20.054688 41.125 20.03125 41.082031 20.03125 Z M 44.445312 17.195312 C 44.34375 17.195312 44.292969 17.246094 44.292969 17.347656 C 44.292969 17.449219 44.34375 17.5 44.445312 17.5 C 44.550781 17.5 44.601562 17.449219 44.601562 17.347656 C 44.601562 17.246094 44.550781 17.195312 44.445312 17.195312 Z M 44.140625 17.511719 C 44.046875 17.511719 43.996094 17.558594 43.996094 17.652344 C 43.996094 17.75 44.046875 17.796875 44.140625 17.796875 C 44.238281 17.796875 44.285156 17.75 44.285156 17.652344 C 44.285156 17.558594 44.238281 17.511719 44.140625 17.511719 Z M 43.835938 17.824219 C 43.746094 17.824219 43.699219 17.871094 43.699219 17.960938 C 43.699219 18.046875 43.746094 18.09375 43.835938 18.09375 C 43.925781 18.09375 43.96875 18.046875 43.96875 17.957031 C 43.96875 17.871094 43.925781 17.824219 43.835938 17.824219 Z M 43.53125 18.140625 C 43.445312 18.140625 43.40625 18.183594 43.40625 18.265625 C 43.40625 18.347656 43.445312 18.390625 43.53125 18.390625 C 43.613281 18.390625 43.652344 18.347656 43.652344 18.265625 C 43.652344 18.183594 43.613281 18.140625 43.53125 18.140625 Z M 43.222656 18.457031 C 43.148438 18.457031 43.109375 18.492188 43.109375 18.570312 C 43.109375 18.648438 43.148438 18.683594 43.222656 18.683594 C 43.300781 18.683594 43.339844 18.648438 43.339844 18.570312 C 43.339844 18.492188 43.300781 18.457031 43.222656 18.457031 Z M 42.917969 18.769531 C 42.847656 18.769531 42.8125 18.804688 42.8125 18.875 C 42.8125 18.945312 42.847656 18.980469 42.917969 18.980469 C 42.988281 18.980469 43.023438 18.945312 43.023438 18.875 C 43.023438 18.804688 42.988281 18.769531 42.917969 18.769531 Z M 42.613281 19.085938 C 42.550781 19.085938 42.519531 19.117188 42.519531 19.179688 C 42.519531 19.246094 42.550781 19.277344 42.613281 19.277344 C 42.675781 19.277344 42.707031 19.246094 42.707031 19.179688 C 42.707031 19.117188 42.675781 19.085938 42.613281 19.085938 Z M 42.308594 19.402344 C 42.25 19.402344 42.222656 19.429688 42.222656 19.488281 C 42.222656 19.546875 42.25 19.574219 42.308594 19.574219 C 42.363281 19.574219 42.394531 19.542969 42.394531 19.488281 C 42.390625 19.429688 42.363281 19.402344 42.308594 19.402344 Z M 42 19.71875 C 41.949219 19.71875 41.925781 19.742188 41.925781 19.792969 C 41.925781 19.84375 41.949219 19.871094 42 19.871094 C 42.050781 19.871094 42.078125 19.84375 42.078125 19.792969 C 42.078125 19.742188 42.050781 19.71875 42 19.71875 Z M 41.695312 20.03125 C 41.652344 20.03125 41.628906 20.054688 41.628906 20.097656 C 41.628906 20.144531 41.652344 20.164062 41.695312 20.164062 C 41.738281 20.164062 41.761719 20.144531 41.761719 20.097656 C 41.761719 20.054688 41.738281 20.03125 41.695312 20.03125 Z M 45.0625 17.195312 C 44.960938 17.195312 44.910156 17.246094 44.910156 17.347656 C 44.910156 17.449219 44.960938 17.5 45.0625 17.5 C 45.164062 17.5 45.214844 17.449219 45.214844 17.347656 C 45.214844 17.246094 45.164062 17.195312 45.0625 17.195312 Z M 44.757812 17.511719 C 44.660156 17.511719 44.613281 17.558594 44.613281 17.652344 C 44.613281 17.75 44.660156 17.796875 44.757812 17.796875 C 44.851562 17.796875 44.898438 17.75 44.898438 17.652344 C 44.898438 17.558594 44.851562 17.511719 44.757812 17.511719 Z M 44.449219 17.824219 C 44.363281 17.824219 44.316406 17.871094 44.316406 17.960938 C 44.316406 18.046875 44.363281 18.09375 44.449219 18.09375 C 44.539062 18.09375 44.585938 18.046875 44.585938 17.957031 C 44.585938 17.871094 44.539062 17.824219 44.449219 17.824219 Z M 44.144531 18.140625 C 44.0625 18.140625 44.019531 18.183594 44.019531 18.265625 C 44.023438 18.347656 44.0625 18.390625 44.144531 18.390625 C 44.226562 18.390625 44.269531 18.347656 44.269531 18.265625 C 44.269531 18.179688 44.226562 18.140625 44.144531 18.140625 Z M 43.839844 18.457031 C 43.761719 18.457031 43.726562 18.492188 43.726562 18.570312 C 43.726562 18.648438 43.761719 18.683594 43.839844 18.683594 C 43.914062 18.683594 43.953125 18.648438 43.953125 18.570312 C 43.953125 18.492188 43.914062 18.457031 43.839844 18.457031 Z M 43.535156 18.769531 C 43.464844 18.769531 43.429688 18.804688 43.429688 18.875 C 43.429688 18.945312 43.464844 18.980469 43.535156 18.980469 C 43.601562 18.980469 43.636719 18.945312 43.636719 18.875 C 43.636719 18.804688 43.605469 18.769531 43.535156 18.769531 Z M 43.226562 19.085938 C 43.164062 19.085938 43.132812 19.117188 43.132812 19.179688 C 43.132812 19.246094 43.164062 19.277344 43.226562 19.277344 C 43.292969 19.277344 43.324219 19.246094 43.324219 19.179688 C 43.324219 19.117188 43.292969 19.085938 43.226562 19.085938 Z M 42.921875 19.402344 C 42.863281 19.402344 42.835938 19.429688 42.835938 19.488281 C 42.835938 19.542969 42.863281 19.574219 42.921875 19.574219 C 42.980469 19.574219 43.007812 19.542969 43.007812 19.488281 C 43.007812 19.429688 42.980469 19.402344 42.921875 19.402344 Z M 42.617188 19.71875 C 42.566406 19.71875 42.539062 19.742188 42.539062 19.792969 C 42.539062 19.84375 42.566406 19.871094 42.617188 19.871094 C 42.667969 19.871094 42.691406 19.84375 42.691406 19.792969 C 42.691406 19.742188 42.667969 19.71875 42.617188 19.71875 Z M 42.3125 20.03125 C 42.265625 20.03125 42.246094 20.054688 42.242188 20.097656 C 42.242188 20.144531 42.265625 20.164062 42.3125 20.164062 C 42.355469 20.164062 42.378906 20.144531 42.378906 20.097656 C 42.378906 20.054688 42.355469 20.03125 42.3125 20.03125 Z M 42.910156 16.898438 C 42.816406 16.898438 42.769531 16.945312 42.765625 17.042969 C 42.765625 17.136719 42.816406 17.183594 42.910156 17.183594 C 43.007812 17.1875 43.054688 17.136719 43.054688 17.042969 C 43.054688 16.945312 43.007812 16.898438 42.910156 16.898438 Z M 42.605469 16.601562 C 42.515625 16.601562 42.472656 16.648438 42.472656 16.734375 C 42.472656 16.824219 42.515625 16.871094 42.605469 16.871094 C 42.695312 16.871094 42.738281 16.824219 42.738281 16.734375 C 42.738281 16.648438 42.695312 16.601562 42.605469 16.601562 Z M 42.300781 16.304688 C 42.21875 16.304688 42.175781 16.347656 42.175781 16.429688 C 42.175781 16.511719 42.21875 16.554688 42.300781 16.554688 C 42.382812 16.554688 42.425781 16.511719 42.425781 16.429688 C 42.425781 16.347656 42.382812 16.304688 42.300781 16.304688 Z M 41.992188 16.011719 C 41.917969 16.011719 41.878906 16.046875 41.878906 16.125 C 41.878906 16.199219 41.917969 16.238281 41.992188 16.238281 C 42.070312 16.238281 42.109375 16.199219 42.109375 16.125 C 42.109375 16.046875 42.070312 16.011719 41.992188 16.011719 Z M 41.6875 15.714844 C 41.617188 15.714844 41.582031 15.75 41.582031 15.820312 C 41.582031 15.890625 41.617188 15.925781 41.6875 15.925781 C 41.757812 15.925781 41.792969 15.890625 41.792969 15.820312 C 41.792969 15.75 41.757812 15.714844 41.6875 15.714844 Z M 41.382812 15.417969 C 41.320312 15.417969 41.289062 15.449219 41.289062 15.511719 C 41.289062 15.578125 41.320312 15.609375 41.382812 15.609375 C 41.445312 15.609375 41.476562 15.578125 41.476562 15.511719 C 41.476562 15.449219 41.445312 15.417969 41.382812 15.417969 Z M 41.078125 15.121094 C 41.019531 15.121094 40.992188 15.152344 40.992188 15.207031 C 40.992188 15.265625 41.019531 15.292969 41.078125 15.292969 C 41.132812 15.292969 41.164062 15.265625 41.164062 15.207031 C 41.164062 15.152344 41.132812 15.121094 41.078125 15.121094 Z M 40.769531 14.824219 C 40.71875 14.824219 40.695312 14.851562 40.695312 14.902344 C 40.695312 14.953125 40.71875 14.976562 40.769531 14.976562 C 40.820312 14.976562 40.847656 14.953125 40.847656 14.902344 C 40.847656 14.851562 40.820312 14.824219 40.769531 14.824219 Z M 40.464844 14.53125 C 40.421875 14.53125 40.398438 14.550781 40.398438 14.597656 C 40.398438 14.640625 40.421875 14.664062 40.464844 14.664062 C 40.507812 14.664062 40.53125 14.640625 40.53125 14.597656 C 40.53125 14.550781 40.507812 14.53125 40.464844 14.53125 Z M 43.527344 16.898438 C 43.429688 16.898438 43.382812 16.945312 43.382812 17.042969 C 43.382812 17.136719 43.429688 17.183594 43.527344 17.183594 C 43.621094 17.1875 43.667969 17.136719 43.667969 17.042969 C 43.667969 16.945312 43.621094 16.898438 43.527344 16.898438 Z M 43.21875 16.871094 C 43.308594 16.871094 43.355469 16.824219 43.355469 16.734375 C 43.355469 16.648438 43.308594 16.601562 43.21875 16.601562 C 43.132812 16.601562 43.085938 16.648438 43.085938 16.734375 C 43.085938 16.824219 43.132812 16.871094 43.21875 16.871094 Z M 42.914062 16.554688 C 42.996094 16.554688 43.039062 16.511719 43.039062 16.429688 C 43.039062 16.347656 42.996094 16.304688 42.914062 16.304688 C 42.832031 16.308594 42.789062 16.347656 42.789062 16.429688 C 42.792969 16.511719 42.832031 16.554688 42.914062 16.554688 Z M 42.609375 16.238281 C 42.683594 16.238281 42.722656 16.199219 42.722656 16.125 C 42.722656 16.046875 42.683594 16.011719 42.609375 16.011719 C 42.53125 16.011719 42.496094 16.046875 42.496094 16.125 C 42.496094 16.203125 42.53125 16.238281 42.609375 16.238281 Z M 42.304688 15.925781 C 42.375 15.925781 42.410156 15.890625 42.410156 15.820312 C 42.410156 15.75 42.375 15.714844 42.304688 15.714844 C 42.234375 15.714844 42.199219 15.75 42.199219 15.820312 C 42.199219 15.890625 42.234375 15.925781 42.304688 15.925781 Z M 41.996094 15.609375 C 42.0625 15.609375 42.09375 15.578125 42.09375 15.511719 C 42.09375 15.449219 42.0625 15.417969 41.996094 15.417969 C 41.933594 15.417969 41.902344 15.449219 41.902344 15.511719 C 41.902344 15.578125 41.933594 15.609375 41.996094 15.609375 Z M 41.691406 15.292969 C 41.75 15.292969 41.777344 15.265625 41.777344 15.207031 C 41.777344 15.152344 41.75 15.121094 41.691406 15.121094 C 41.632812 15.121094 41.605469 15.152344 41.605469 15.207031 C 41.605469 15.265625 41.632812 15.292969 41.691406 15.292969 Z M 41.386719 14.976562 C 41.4375 14.976562 41.460938 14.953125 41.460938 14.902344 C 41.460938 14.851562 41.4375 14.824219 41.386719 14.824219 C 41.335938 14.824219 41.308594 14.851562 41.308594 14.902344 C 41.308594 14.953125 41.335938 14.976562 41.386719 14.976562 Z M 41.082031 14.664062 C 41.125 14.664062 41.148438 14.640625 41.148438 14.597656 C 41.148438 14.550781 41.125 14.53125 41.082031 14.53125 C 41.035156 14.53125 41.015625 14.550781 41.015625 14.597656 C 41.015625 14.640625 41.035156 14.664062 41.082031 14.664062 Z M 44.140625 16.898438 C 44.046875 16.898438 43.996094 16.945312 43.996094 17.042969 C 43.996094 17.136719 44.046875 17.183594 44.140625 17.183594 C 44.238281 17.1875 44.285156 17.136719 44.285156 17.042969 C 44.285156 16.945312 44.238281 16.898438 44.140625 16.898438 Z M 43.835938 16.871094 C 43.925781 16.871094 43.96875 16.824219 43.96875 16.734375 C 43.96875 16.648438 43.925781 16.601562 43.835938 16.601562 C 43.746094 16.601562 43.699219 16.648438 43.703125 16.734375 C 43.699219 16.824219 43.746094 16.871094 43.835938 16.871094 Z M 43.53125 16.554688 C 43.613281 16.554688 43.652344 16.511719 43.652344 16.429688 C 43.652344 16.347656 43.613281 16.304688 43.53125 16.304688 C 43.445312 16.304688 43.40625 16.347656 43.40625 16.429688 C 43.40625 16.511719 43.445312 16.554688 43.53125 16.554688 Z M 43.222656 16.238281 C 43.300781 16.238281 43.339844 16.199219 43.339844 16.125 C 43.339844 16.046875 43.300781 16.011719 43.222656 16.011719 C 43.148438 16.011719 43.109375 16.046875 43.109375 16.125 C 43.109375 16.203125 43.148438 16.238281 43.222656 16.238281 Z M 42.917969 15.925781 C 42.988281 15.925781 43.023438 15.890625 43.023438 15.820312 C 43.023438 15.75 42.988281 15.714844 42.917969 15.714844 C 42.847656 15.714844 42.8125 15.75 42.8125 15.820312 C 42.8125 15.890625 42.847656 15.925781 42.917969 15.925781 Z M 42.613281 15.609375 C 42.675781 15.609375 42.707031 15.578125 42.707031 15.511719 C 42.707031 15.449219 42.675781 15.417969 42.613281 15.417969 C 42.550781 15.417969 42.519531 15.449219 42.519531 15.511719 C 42.519531 15.578125 42.550781 15.609375 42.613281 15.609375 Z M 42.308594 15.292969 C 42.363281 15.292969 42.394531 15.265625 42.394531 15.207031 C 42.394531 15.152344 42.363281 15.121094 42.308594 15.121094 C 42.25 15.121094 42.222656 15.152344 42.222656 15.207031 C 42.222656 15.265625 42.25 15.292969 42.308594 15.292969 Z M 42 14.976562 C 42.050781 14.976562 42.078125 14.953125 42.078125 14.902344 C 42.078125 14.851562 42.050781 14.824219 42 14.824219 C 41.949219 14.824219 41.925781 14.851562 41.925781 14.902344 C 41.925781 14.953125 41.949219 14.976562 42 14.976562 Z M 41.695312 14.664062 C 41.738281 14.664062 41.761719 14.640625 41.761719 14.597656 C 41.761719 14.550781 41.738281 14.53125 41.695312 14.53125 C 41.652344 14.53125 41.628906 14.550781 41.628906 14.597656 C 41.628906 14.640625 41.652344 14.664062 41.695312 14.664062 Z M 44.757812 16.898438 C 44.660156 16.898438 44.613281 16.945312 44.613281 17.042969 C 44.613281 17.136719 44.660156 17.183594 44.757812 17.183594 C 44.851562 17.1875 44.898438 17.136719 44.898438 17.042969 C 44.898438 16.945312 44.851562 16.898438 44.757812 16.898438 Z M 44.449219 16.871094 C 44.539062 16.871094 44.585938 16.824219 44.585938 16.734375 C 44.585938 16.648438 44.539062 16.601562 44.449219 16.601562 C 44.363281 16.601562 44.316406 16.648438 44.316406 16.734375 C 44.316406 16.824219 44.363281 16.871094 44.449219 16.871094 Z M 44.144531 16.554688 C 44.226562 16.554688 44.269531 16.511719 44.269531 16.429688 C 44.269531 16.347656 44.226562 16.304688 44.144531 16.304688 C 44.0625 16.304688 44.019531 16.347656 44.019531 16.429688 C 44.019531 16.511719 44.0625 16.554688 44.144531 16.554688 Z M 43.839844 16.238281 C 43.914062 16.238281 43.953125 16.199219 43.953125 16.125 C 43.953125 16.046875 43.914062 16.011719 43.839844 16.011719 C 43.761719 16.011719 43.726562 16.046875 43.726562 16.125 C 43.726562 16.203125 43.761719 16.238281 43.839844 16.238281 Z M 43.535156 15.925781 C 43.605469 15.925781 43.636719 15.890625 43.636719 15.820312 C 43.640625 15.75 43.605469 15.714844 43.535156 15.714844 C 43.464844 15.714844 43.429688 15.75 43.429688 15.820312 C 43.429688 15.890625 43.464844 15.925781 43.535156 15.925781 Z M 43.226562 15.609375 C 43.292969 15.609375 43.324219 15.578125 43.324219 15.511719 C 43.324219 15.449219 43.292969 15.417969 43.226562 15.417969 C 43.164062 15.417969 43.132812 15.449219 43.132812 15.511719 C 43.132812 15.578125 43.164062 15.609375 43.226562 15.609375 Z M 42.921875 15.292969 C 42.980469 15.292969 43.007812 15.265625 43.007812 15.207031 C 43.007812 15.152344 42.980469 15.121094 42.921875 15.121094 C 42.863281 15.121094 42.835938 15.152344 42.835938 15.207031 C 42.835938 15.265625 42.863281 15.292969 42.921875 15.292969 Z M 42.617188 14.976562 C 42.667969 14.976562 42.691406 14.953125 42.691406 14.902344 C 42.691406 14.851562 42.667969 14.824219 42.617188 14.824219 C 42.566406 14.824219 42.539062 14.851562 42.539062 14.902344 C 42.539062 14.953125 42.566406 14.976562 42.617188 14.976562 Z M 42.3125 14.664062 C 42.355469 14.664062 42.378906 14.640625 42.378906 14.597656 C 42.378906 14.550781 42.355469 14.53125 42.3125 14.53125 C 42.265625 14.53125 42.242188 14.550781 42.246094 14.597656 C 42.246094 14.640625 42.265625 14.664062 42.3125 14.664062 Z M 42.3125 14.664062 " clip-rule="nonzero"/></clipPath><linearGradient x1="354.609998" gradientTransform="matrix(0.0135815, 0, 0, 0.0135815, 40.398911, 14.529791)" y1="207.48" x2="-0.0144373" gradientUnits="userSpaceOnUse" y2="207.48" id="48fd0c9a1e"><stop stop-opacity="1" stop-color="rgb(10.198975%, 10.198975%, 10.198975%)" offset="0"/><stop stop-opacity="1" stop-color="rgb(10.198975%, 10.198975%, 10.198975%)" offset="0.0625"/><stop stop-opacity="1" stop-color="rgb(10.198975%, 10.198975%, 10.198975%)" offset="0.09375"/><stop stop-opacity="1" stop-color="rgb(10.198975%, 10.198975%, 10.198975%)" offset="0.101562"/><stop stop-opacity="1" stop-color="rgb(10.545349%, 10.545349%, 10.545349%)" offset="0.105469"/><stop stop-opacity="1" stop-color="rgb(10.891724%, 10.891724%, 10.891724%)" offset="0.109375"/><stop stop-opacity="1" stop-color="rgb(11.26709%, 11.26709%, 11.26709%)" offset="0.113281"/><stop stop-opacity="1" stop-color="rgb(11.642456%, 11.642456%, 11.642456%)" offset="0.117187"/><stop stop-opacity="1" stop-color="rgb(12.017822%, 12.017822%, 12.017822%)" offset="0.121094"/><stop stop-opacity="1" stop-color="rgb(12.393188%, 12.393188%, 12.393188%)" offset="0.125"/><stop stop-opacity="1" stop-color="rgb(12.768555%, 12.768555%, 12.768555%)" offset="0.128906"/><stop stop-opacity="1" stop-color="rgb(13.143921%, 13.143921%, 13.143921%)" offset="0.132812"/><stop stop-opacity="1" stop-color="rgb(13.519287%, 13.519287%, 13.519287%)" offset="0.136719"/><stop stop-opacity="1" stop-color="rgb(13.894653%, 13.894653%, 13.894653%)" offset="0.140625"/><stop stop-opacity="1" stop-color="rgb(14.27002%, 14.27002%, 14.27002%)" offset="0.144531"/><stop stop-opacity="1" stop-color="rgb(14.645386%, 14.645386%, 14.645386%)" offset="0.148437"/><stop stop-opacity="1" stop-color="rgb(15.020752%, 15.020752%, 15.020752%)" offset="0.152344"/><stop stop-opacity="1" stop-color="rgb(15.396118%, 15.396118%, 15.396118%)" offset="0.15625"/><stop stop-opacity="1" stop-color="rgb(15.771484%, 15.771484%, 15.771484%)" offset="0.160156"/><stop stop-opacity="1" stop-color="rgb(16.146851%, 16.146851%, 16.146851%)" offset="0.164062"/><stop stop-opacity="1" stop-color="rgb(16.522217%, 16.522217%, 16.522217%)" offset="0.167969"/><stop stop-opacity="1" stop-color="rgb(16.897583%, 16.897583%, 16.897583%)" offset="0.171875"/><stop stop-opacity="1" stop-color="rgb(17.272949%, 17.272949%, 17.272949%)" offset="0.175781"/><stop stop-opacity="1" stop-color="rgb(17.648315%, 17.648315%, 17.648315%)" offset="0.179687"/><stop stop-opacity="1" stop-color="rgb(18.023682%, 18.023682%, 18.023682%)" offset="0.183594"/><stop stop-opacity="1" stop-color="rgb(18.399048%, 18.399048%, 18.399048%)" offset="0.1875"/><stop stop-opacity="1" stop-color="rgb(18.774414%, 18.774414%, 18.774414%)" offset="0.191406"/><stop stop-opacity="1" stop-color="rgb(19.14978%, 19.14978%, 19.14978%)" offset="0.195312"/><stop stop-opacity="1" stop-color="rgb(19.525146%, 19.525146%, 19.525146%)" offset="0.199219"/><stop stop-opacity="1" stop-color="rgb(19.900513%, 19.900513%, 19.900513%)" offset="0.203125"/><stop stop-opacity="1" stop-color="rgb(20.275879%, 20.275879%, 20.275879%)" offset="0.207031"/><stop stop-opacity="1" stop-color="rgb(20.651245%, 20.651245%, 20.651245%)" offset="0.210937"/><stop stop-opacity="1" stop-color="rgb(21.026611%, 21.026611%, 21.026611%)" offset="0.214844"/><stop stop-opacity="1" stop-color="rgb(21.401978%, 21.401978%, 21.401978%)" offset="0.21875"/><stop stop-opacity="1" stop-color="rgb(21.777344%, 21.777344%, 21.777344%)" offset="0.222656"/><stop stop-opacity="1" stop-color="rgb(22.15271%, 22.15271%, 22.15271%)" offset="0.226562"/><stop stop-opacity="1" stop-color="rgb(22.528076%, 22.528076%, 22.528076%)" offset="0.230469"/><stop stop-opacity="1" stop-color="rgb(22.903442%, 22.903442%, 22.903442%)" offset="0.234375"/><stop stop-opacity="1" stop-color="rgb(23.278809%, 23.278809%, 23.278809%)" offset="0.238281"/><stop stop-opacity="1" stop-color="rgb(23.654175%, 23.654175%, 23.654175%)" offset="0.242187"/><stop stop-opacity="1" stop-color="rgb(24.029541%, 24.029541%, 24.029541%)" offset="0.246094"/><stop stop-opacity="1" stop-color="rgb(24.404907%, 24.404907%, 24.404907%)" offset="0.25"/><stop stop-opacity="1" stop-color="rgb(24.780273%, 24.780273%, 24.780273%)" offset="0.253906"/><stop stop-opacity="1" stop-color="rgb(25.15564%, 25.15564%, 25.15564%)" offset="0.257812"/><stop stop-opacity="1" stop-color="rgb(25.531006%, 25.531006%, 25.531006%)" offset="0.261719"/><stop stop-opacity="1" stop-color="rgb(25.906372%, 25.906372%, 25.906372%)" offset="0.265625"/><stop stop-opacity="1" stop-color="rgb(26.281738%, 26.281738%, 26.281738%)" offset="0.269531"/><stop stop-opacity="1" stop-color="rgb(26.657104%, 26.657104%, 26.657104%)" offset="0.273438"/><stop stop-opacity="1" stop-color="rgb(27.032471%, 27.032471%, 27.032471%)" offset="0.277344"/><stop stop-opacity="1" stop-color="rgb(27.407837%, 27.407837%, 27.407837%)" offset="0.28125"/><stop stop-opacity="1" stop-color="rgb(27.783203%, 27.783203%, 27.783203%)" offset="0.285156"/><stop stop-opacity="1" stop-color="rgb(28.158569%, 28.158569%, 28.158569%)" offset="0.289062"/><stop stop-opacity="1" stop-color="rgb(28.533936%, 28.533936%, 28.533936%)" offset="0.292969"/><stop stop-opacity="1" stop-color="rgb(28.909302%, 28.909302%, 28.909302%)" offset="0.296875"/><stop stop-opacity="1" stop-color="rgb(29.284668%, 29.284668%, 29.284668%)" offset="0.300781"/><stop stop-opacity="1" stop-color="rgb(29.660034%, 29.660034%, 29.660034%)" offset="0.304688"/><stop stop-opacity="1" stop-color="rgb(30.0354%, 30.0354%, 30.0354%)" offset="0.308594"/><stop stop-opacity="1" stop-color="rgb(30.410767%, 30.410767%, 30.410767%)" offset="0.3125"/><stop stop-opacity="1" stop-color="rgb(30.786133%, 30.786133%, 30.786133%)" offset="0.316406"/><stop stop-opacity="1" stop-color="rgb(31.161499%, 31.161499%, 31.161499%)" offset="0.320312"/><stop stop-opacity="1" stop-color="rgb(31.536865%, 31.536865%, 31.536865%)" offset="0.324219"/><stop stop-opacity="1" stop-color="rgb(31.912231%, 31.912231%, 31.912231%)" offset="0.328125"/><stop stop-opacity="1" stop-color="rgb(32.287598%, 32.287598%, 32.287598%)" offset="0.332031"/><stop stop-opacity="1" stop-color="rgb(32.662964%, 32.662964%, 32.662964%)" offset="0.335938"/><stop stop-opacity="1" stop-color="rgb(33.03833%, 33.03833%, 33.03833%)" offset="0.339844"/><stop stop-opacity="1" stop-color="rgb(33.413696%, 33.413696%, 33.413696%)" offset="0.34375"/><stop stop-opacity="1" stop-color="rgb(33.789062%, 33.789062%, 33.789062%)" offset="0.347656"/><stop stop-opacity="1" stop-color="rgb(34.164429%, 34.164429%, 34.164429%)" offset="0.351562"/><stop stop-opacity="1" stop-color="rgb(34.539795%, 34.539795%, 34.539795%)" offset="0.355469"/><stop stop-opacity="1" stop-color="rgb(34.915161%, 34.915161%, 34.915161%)" offset="0.359375"/><stop stop-opacity="1" stop-color="rgb(35.290527%, 35.290527%, 35.290527%)" offset="0.363281"/><stop stop-opacity="1" stop-color="rgb(35.665894%, 35.665894%, 35.665894%)" offset="0.367188"/><stop stop-opacity="1" stop-color="rgb(36.04126%, 36.04126%, 36.04126%)" offset="0.371094"/><stop stop-opacity="1" stop-color="rgb(36.416626%, 36.416626%, 36.416626%)" offset="0.375"/><stop stop-opacity="1" stop-color="rgb(36.791992%, 36.791992%, 36.791992%)" offset="0.378906"/><stop stop-opacity="1" stop-color="rgb(37.167358%, 37.167358%, 37.167358%)" offset="0.382812"/><stop stop-opacity="1" stop-color="rgb(37.542725%, 37.542725%, 37.542725%)" offset="0.386719"/><stop stop-opacity="1" stop-color="rgb(37.918091%, 37.918091%, 37.918091%)" offset="0.390625"/><stop stop-opacity="1" stop-color="rgb(38.293457%, 38.293457%, 38.293457%)" offset="0.394531"/><stop stop-opacity="1" stop-color="rgb(38.668823%, 38.668823%, 38.668823%)" offset="0.398438"/><stop stop-opacity="1" stop-color="rgb(39.044189%, 39.044189%, 39.044189%)" offset="0.402344"/><stop stop-opacity="1" stop-color="rgb(39.419556%, 39.419556%, 39.419556%)" offset="0.40625"/><stop stop-opacity="1" stop-color="rgb(39.794922%, 39.794922%, 39.794922%)" offset="0.410156"/><stop stop-opacity="1" stop-color="rgb(40.170288%, 40.170288%, 40.170288%)" offset="0.414062"/><stop stop-opacity="1" stop-color="rgb(40.544128%, 40.544128%, 40.544128%)" offset="0.417969"/><stop stop-opacity="1" stop-color="rgb(40.919495%, 40.919495%, 40.919495%)" offset="0.421875"/><stop stop-opacity="1" stop-color="rgb(41.294861%, 41.294861%, 41.294861%)" offset="0.425781"/><stop stop-opacity="1" stop-color="rgb(41.670227%, 41.670227%, 41.670227%)" offset="0.429688"/><stop stop-opacity="1" stop-color="rgb(42.045593%, 42.045593%, 42.045593%)" offset="0.433594"/><stop stop-opacity="1" stop-color="rgb(42.420959%, 42.420959%, 42.420959%)" offset="0.4375"/><stop stop-opacity="1" stop-color="rgb(42.796326%, 42.796326%, 42.796326%)" offset="0.441406"/><stop stop-opacity="1" stop-color="rgb(43.171692%, 43.171692%, 43.171692%)" offset="0.445312"/><stop stop-opacity="1" stop-color="rgb(43.547058%, 43.547058%, 43.547058%)" offset="0.449219"/><stop stop-opacity="1" stop-color="rgb(43.922424%, 43.922424%, 43.922424%)" offset="0.453125"/><stop stop-opacity="1" stop-color="rgb(44.297791%, 44.297791%, 44.297791%)" offset="0.457031"/><stop stop-opacity="1" stop-color="rgb(44.673157%, 44.673157%, 44.673157%)" offset="0.460938"/><stop stop-opacity="1" stop-color="rgb(45.048523%, 45.048523%, 45.048523%)" offset="0.464844"/><stop stop-opacity="1" stop-color="rgb(45.423889%, 45.423889%, 45.423889%)" offset="0.46875"/><stop stop-opacity="1" stop-color="rgb(45.799255%, 45.799255%, 45.799255%)" offset="0.472656"/><stop stop-opacity="1" stop-color="rgb(46.174622%, 46.174622%, 46.174622%)" offset="0.476562"/><stop stop-opacity="1" stop-color="rgb(46.549988%, 46.549988%, 46.549988%)" offset="0.480469"/><stop stop-opacity="1" stop-color="rgb(46.925354%, 46.925354%, 46.925354%)" offset="0.484375"/><stop stop-opacity="1" stop-color="rgb(47.30072%, 47.30072%, 47.30072%)" offset="0.488281"/><stop stop-opacity="1" stop-color="rgb(47.676086%, 47.676086%, 47.676086%)" offset="0.492188"/><stop stop-opacity="1" stop-color="rgb(48.051453%, 48.051453%, 48.051453%)" offset="0.496094"/><stop stop-opacity="1" stop-color="rgb(48.426819%, 48.426819%, 48.426819%)" offset="0.5"/><stop stop-opacity="1" stop-color="rgb(48.802185%, 48.802185%, 48.802185%)" offset="0.503906"/><stop stop-opacity="1" stop-color="rgb(49.177551%, 49.177551%, 49.177551%)" offset="0.507812"/><stop stop-opacity="1" stop-color="rgb(49.552917%, 49.552917%, 49.552917%)" offset="0.511719"/><stop stop-opacity="1" stop-color="rgb(49.928284%, 49.928284%, 49.928284%)" offset="0.515625"/><stop stop-opacity="1" stop-color="rgb(50.30365%, 50.30365%, 50.30365%)" offset="0.519531"/><stop stop-opacity="1" stop-color="rgb(50.679016%, 50.679016%, 50.679016%)" offset="0.523437"/><stop stop-opacity="1" stop-color="rgb(51.054382%, 51.054382%, 51.054382%)" offset="0.527344"/><stop stop-opacity="1" stop-color="rgb(51.429749%, 51.429749%, 51.429749%)" offset="0.53125"/><stop stop-opacity="1" stop-color="rgb(51.805115%, 51.805115%, 51.805115%)" offset="0.535156"/><stop stop-opacity="1" stop-color="rgb(52.180481%, 52.180481%, 52.180481%)" offset="0.539062"/><stop stop-opacity="1" stop-color="rgb(52.555847%, 52.555847%, 52.555847%)" offset="0.542969"/><stop stop-opacity="1" stop-color="rgb(52.931213%, 52.931213%, 52.931213%)" offset="0.546875"/><stop stop-opacity="1" stop-color="rgb(53.30658%, 53.30658%, 53.30658%)" offset="0.550781"/><stop stop-opacity="1" stop-color="rgb(53.681946%, 53.681946%, 53.681946%)" offset="0.554687"/><stop stop-opacity="1" stop-color="rgb(54.057312%, 54.057312%, 54.057312%)" offset="0.558594"/><stop stop-opacity="1" stop-color="rgb(54.432678%, 54.432678%, 54.432678%)" offset="0.5625"/><stop stop-opacity="1" stop-color="rgb(54.808044%, 54.808044%, 54.808044%)" offset="0.566406"/><stop stop-opacity="1" stop-color="rgb(55.183411%, 55.183411%, 55.183411%)" offset="0.570312"/><stop stop-opacity="1" stop-color="rgb(55.558777%, 55.558777%, 55.558777%)" offset="0.574219"/><stop stop-opacity="1" stop-color="rgb(55.934143%, 55.934143%, 55.934143%)" offset="0.578125"/><stop stop-opacity="1" stop-color="rgb(56.309509%, 56.309509%, 56.309509%)" offset="0.582031"/><stop stop-opacity="1" stop-color="rgb(56.684875%, 56.684875%, 56.684875%)" offset="0.585937"/><stop stop-opacity="1" stop-color="rgb(57.060242%, 57.060242%, 57.060242%)" offset="0.589844"/><stop stop-opacity="1" stop-color="rgb(57.435608%, 57.435608%, 57.435608%)" offset="0.59375"/><stop stop-opacity="1" stop-color="rgb(57.810974%, 57.810974%, 57.810974%)" offset="0.597656"/><stop stop-opacity="1" stop-color="rgb(58.18634%, 58.18634%, 58.18634%)" offset="0.601562"/><stop stop-opacity="1" stop-color="rgb(58.561707%, 58.561707%, 58.561707%)" offset="0.605469"/><stop stop-opacity="1" stop-color="rgb(58.937073%, 58.937073%, 58.937073%)" offset="0.609375"/><stop stop-opacity="1" stop-color="rgb(59.312439%, 59.312439%, 59.312439%)" offset="0.613281"/><stop stop-opacity="1" stop-color="rgb(59.687805%, 59.687805%, 59.687805%)" offset="0.617187"/><stop stop-opacity="1" stop-color="rgb(60.063171%, 60.063171%, 60.063171%)" offset="0.621094"/><stop stop-opacity="1" stop-color="rgb(60.438538%, 60.438538%, 60.438538%)" offset="0.625"/><stop stop-opacity="1" stop-color="rgb(60.813904%, 60.813904%, 60.813904%)" offset="0.628906"/><stop stop-opacity="1" stop-color="rgb(61.18927%, 61.18927%, 61.18927%)" offset="0.632812"/><stop stop-opacity="1" stop-color="rgb(61.564636%, 61.564636%, 61.564636%)" offset="0.636719"/><stop stop-opacity="1" stop-color="rgb(61.940002%, 61.940002%, 61.940002%)" offset="0.640625"/><stop stop-opacity="1" stop-color="rgb(62.315369%, 62.315369%, 62.315369%)" offset="0.644531"/><stop stop-opacity="1" stop-color="rgb(62.690735%, 62.690735%, 62.690735%)" offset="0.648437"/><stop stop-opacity="1" stop-color="rgb(63.066101%, 63.066101%, 63.066101%)" offset="0.652344"/><stop stop-opacity="1" stop-color="rgb(63.441467%, 63.441467%, 63.441467%)" offset="0.65625"/><stop stop-opacity="1" stop-color="rgb(63.816833%, 63.816833%, 63.816833%)" offset="0.660156"/><stop stop-opacity="1" stop-color="rgb(64.1922%, 64.1922%, 64.1922%)" offset="0.664062"/><stop stop-opacity="1" stop-color="rgb(64.567566%, 64.567566%, 64.567566%)" offset="0.667969"/><stop stop-opacity="1" stop-color="rgb(64.942932%, 64.942932%, 64.942932%)" offset="0.671875"/><stop stop-opacity="1" stop-color="rgb(65.318298%, 65.318298%, 65.318298%)" offset="0.675781"/><stop stop-opacity="1" stop-color="rgb(65.693665%, 65.693665%, 65.693665%)" offset="0.679687"/><stop stop-opacity="1" stop-color="rgb(66.069031%, 66.069031%, 66.069031%)" offset="0.683594"/><stop stop-opacity="1" stop-color="rgb(66.444397%, 66.444397%, 66.444397%)" offset="0.6875"/><stop stop-opacity="1" stop-color="rgb(66.819763%, 66.819763%, 66.819763%)" offset="0.691406"/><stop stop-opacity="1" stop-color="rgb(67.195129%, 67.195129%, 67.195129%)" offset="0.695312"/><stop stop-opacity="1" stop-color="rgb(67.570496%, 67.570496%, 67.570496%)" offset="0.699219"/><stop stop-opacity="1" stop-color="rgb(67.945862%, 67.945862%, 67.945862%)" offset="0.703125"/><stop stop-opacity="1" stop-color="rgb(68.321228%, 68.321228%, 68.321228%)" offset="0.707031"/><stop stop-opacity="1" stop-color="rgb(68.696594%, 68.696594%, 68.696594%)" offset="0.710937"/><stop stop-opacity="1" stop-color="rgb(69.07196%, 69.07196%, 69.07196%)" offset="0.714844"/><stop stop-opacity="1" stop-color="rgb(69.447327%, 69.447327%, 69.447327%)" offset="0.71875"/><stop stop-opacity="1" stop-color="rgb(69.822693%, 69.822693%, 69.822693%)" offset="0.722656"/><stop stop-opacity="1" stop-color="rgb(70.198059%, 70.198059%, 70.198059%)" offset="0.726562"/><stop stop-opacity="1" stop-color="rgb(70.573425%, 70.573425%, 70.573425%)" offset="0.730469"/><stop stop-opacity="1" stop-color="rgb(70.948792%, 70.948792%, 70.948792%)" offset="0.734375"/><stop stop-opacity="1" stop-color="rgb(71.324158%, 71.324158%, 71.324158%)" offset="0.738281"/><stop stop-opacity="1" stop-color="rgb(71.699524%, 71.699524%, 71.699524%)" offset="0.742187"/><stop stop-opacity="1" stop-color="rgb(72.07489%, 72.07489%, 72.07489%)" offset="0.746094"/><stop stop-opacity="1" stop-color="rgb(72.450256%, 72.450256%, 72.450256%)" offset="0.75"/><stop stop-opacity="1" stop-color="rgb(72.825623%, 72.825623%, 72.825623%)" offset="0.753906"/><stop stop-opacity="1" stop-color="rgb(73.200989%, 73.200989%, 73.200989%)" offset="0.757812"/><stop stop-opacity="1" stop-color="rgb(73.576355%, 73.576355%, 73.576355%)" offset="0.761719"/><stop stop-opacity="1" stop-color="rgb(73.951721%, 73.951721%, 73.951721%)" offset="0.765625"/><stop stop-opacity="1" stop-color="rgb(74.327087%, 74.327087%, 74.327087%)" offset="0.769531"/><stop stop-opacity="1" stop-color="rgb(74.702454%, 74.702454%, 74.702454%)" offset="0.773437"/><stop stop-opacity="1" stop-color="rgb(75.07782%, 75.07782%, 75.07782%)" offset="0.777344"/><stop stop-opacity="1" stop-color="rgb(75.453186%, 75.453186%, 75.453186%)" offset="0.78125"/><stop stop-opacity="1" stop-color="rgb(75.828552%, 75.828552%, 75.828552%)" offset="0.785156"/><stop stop-opacity="1" stop-color="rgb(76.203918%, 76.203918%, 76.203918%)" offset="0.789062"/><stop stop-opacity="1" stop-color="rgb(76.579285%, 76.579285%, 76.579285%)" offset="0.792969"/><stop stop-opacity="1" stop-color="rgb(76.954651%, 76.954651%, 76.954651%)" offset="0.796875"/><stop stop-opacity="1" stop-color="rgb(77.330017%, 77.330017%, 77.330017%)" offset="0.800781"/><stop stop-opacity="1" stop-color="rgb(77.705383%, 77.705383%, 77.705383%)" offset="0.804687"/><stop stop-opacity="1" stop-color="rgb(78.08075%, 78.08075%, 78.08075%)" offset="0.808594"/><stop stop-opacity="1" stop-color="rgb(78.456116%, 78.456116%, 78.456116%)" offset="0.8125"/><stop stop-opacity="1" stop-color="rgb(78.831482%, 78.831482%, 78.831482%)" offset="0.816406"/><stop stop-opacity="1" stop-color="rgb(79.206848%, 79.206848%, 79.206848%)" offset="0.820312"/><stop stop-opacity="1" stop-color="rgb(79.582214%, 79.582214%, 79.582214%)" offset="0.824219"/><stop stop-opacity="1" stop-color="rgb(79.957581%, 79.957581%, 79.957581%)" offset="0.828125"/><stop stop-opacity="1" stop-color="rgb(80.332947%, 80.332947%, 80.332947%)" offset="0.832031"/><stop stop-opacity="1" stop-color="rgb(80.708313%, 80.708313%, 80.708313%)" offset="0.835937"/><stop stop-opacity="1" stop-color="rgb(81.083679%, 81.083679%, 81.083679%)" offset="0.839844"/><stop stop-opacity="1" stop-color="rgb(81.459045%, 81.459045%, 81.459045%)" offset="0.84375"/><stop stop-opacity="1" stop-color="rgb(81.834412%, 81.834412%, 81.834412%)" offset="0.847656"/><stop stop-opacity="1" stop-color="rgb(82.209778%, 82.209778%, 82.209778%)" offset="0.851562"/><stop stop-opacity="1" stop-color="rgb(82.585144%, 82.585144%, 82.585144%)" offset="0.855469"/><stop stop-opacity="1" stop-color="rgb(82.96051%, 82.96051%, 82.96051%)" offset="0.859375"/><stop stop-opacity="1" stop-color="rgb(83.335876%, 83.335876%, 83.335876%)" offset="0.863281"/><stop stop-opacity="1" stop-color="rgb(83.711243%, 83.711243%, 83.711243%)" offset="0.867187"/><stop stop-opacity="1" stop-color="rgb(84.085083%, 84.085083%, 84.085083%)" offset="0.871094"/><stop stop-opacity="1" stop-color="rgb(84.460449%, 84.460449%, 84.460449%)" offset="0.875"/><stop stop-opacity="1" stop-color="rgb(84.835815%, 84.835815%, 84.835815%)" offset="0.878906"/><stop stop-opacity="1" stop-color="rgb(85.211182%, 85.211182%, 85.211182%)" offset="0.882812"/><stop stop-opacity="1" stop-color="rgb(85.586548%, 85.586548%, 85.586548%)" offset="0.886719"/><stop stop-opacity="1" stop-color="rgb(85.961914%, 85.961914%, 85.961914%)" offset="0.890625"/><stop stop-opacity="1" stop-color="rgb(86.33728%, 86.33728%, 86.33728%)" offset="0.894531"/><stop stop-opacity="1" stop-color="rgb(86.712646%, 86.712646%, 86.712646%)" offset="0.898437"/><stop stop-opacity="1" stop-color="rgb(87.088013%, 87.088013%, 87.088013%)" offset="0.902344"/><stop stop-opacity="1" stop-color="rgb(87.463379%, 87.463379%, 87.463379%)" offset="0.90625"/><stop stop-opacity="1" stop-color="rgb(87.838745%, 87.838745%, 87.838745%)" offset="0.910156"/><stop stop-opacity="1" stop-color="rgb(88.214111%, 88.214111%, 88.214111%)" offset="0.914062"/><stop stop-opacity="1" stop-color="rgb(88.589478%, 88.589478%, 88.589478%)" offset="0.917969"/><stop stop-opacity="1" stop-color="rgb(88.964844%, 88.964844%, 88.964844%)" offset="0.921875"/><stop stop-opacity="1" stop-color="rgb(89.34021%, 89.34021%, 89.34021%)" offset="0.925781"/><stop stop-opacity="1" stop-color="rgb(89.715576%, 89.715576%, 89.715576%)" offset="0.929687"/><stop stop-opacity="1" stop-color="rgb(90.090942%, 90.090942%, 90.090942%)" offset="0.933594"/><stop stop-opacity="1" stop-color="rgb(90.466309%, 90.466309%, 90.466309%)" offset="0.9375"/><stop stop-opacity="1" stop-color="rgb(90.841675%, 90.841675%, 90.841675%)" offset="0.941406"/><stop stop-opacity="1" stop-color="rgb(91.217041%, 91.217041%, 91.217041%)" offset="0.945312"/><stop stop-opacity="1" stop-color="rgb(91.592407%, 91.592407%, 91.592407%)" offset="0.949219"/><stop stop-opacity="1" stop-color="rgb(91.967773%, 91.967773%, 91.967773%)" offset="0.953125"/><stop stop-opacity="1" stop-color="rgb(92.34314%, 92.34314%, 92.34314%)" offset="0.957031"/><stop stop-opacity="1" stop-color="rgb(92.718506%, 92.718506%, 92.718506%)" offset="0.960937"/><stop stop-opacity="1" stop-color="rgb(93.093872%, 93.093872%, 93.093872%)" offset="0.964844"/><stop stop-opacity="1" stop-color="rgb(93.469238%, 93.469238%, 93.469238%)" offset="0.96875"/><stop stop-opacity="1" stop-color="rgb(93.844604%, 93.844604%, 93.844604%)" offset="0.972656"/><stop stop-opacity="1" stop-color="rgb(94.219971%, 94.219971%, 94.219971%)" offset="0.976563"/><stop stop-opacity="1" stop-color="rgb(94.595337%, 94.595337%, 94.595337%)" offset="0.980469"/><stop stop-opacity="1" stop-color="rgb(94.970703%, 94.970703%, 94.970703%)" offset="0.984375"/><stop stop-opacity="1" stop-color="rgb(95.346069%, 95.346069%, 95.346069%)" offset="0.988281"/><stop stop-opacity="1" stop-color="rgb(95.721436%, 95.721436%, 95.721436%)" offset="0.992187"/><stop stop-opacity="1" stop-color="rgb(96.096802%, 96.096802%, 96.096802%)" offset="0.996094"/><stop stop-opacity="1" stop-color="rgb(96.472168%, 96.472168%, 96.472168%)" offset="1"/></linearGradient><clipPath id="fe0c2e8f2a"><path d="M 35 14.515625 L 47.507812 14.515625 L 47.507812 27 L 35 27 Z M 35 14.515625 " clip-rule="nonzero"/></clipPath><clipPath id="2dd1c33374"><path d="M 0.488281 15 L 15 15 L 15 32.148438 L 0.488281 32.148438 Z M 0.488281 15 " clip-rule="nonzero"/></clipPath><clipPath id="2b6fa01322"><path d="M 29 15 L 47 15 L 47 32.148438 L 29 32.148438 Z M 29 15 " clip-rule="nonzero"/></clipPath></defs><g clip-path="url(#7096cef6a8)"><g clip-path="url(#d9bfbdd6a5)"><path fill="url(#48fd0c9a1e)" d="M 40.398438 14.53125 L 40.398438 20.164062 L 45.214844 20.164062 L 45.214844 14.53125 Z M 40.398438 14.53125 " fill-rule="nonzero"/></g></g><g clip-path="url(#fe0c2e8f2a)"><path fill="#0071bc" d="M 47.109375 14.816406 C 40.359375 14.515625 39.867188 16.671875 38.53125 20.128906 L 35.914062 20.429688 L 35.300781 22.8125 C 35.300781 22.8125 36.679688 21.859375 37.070312 22.152344 C 37.273438 22.3125 36.886719 23.042969 36.886719 23.042969 L 37.683594 23.933594 L 37.671875 23.945312 L 37.734375 24.003906 L 37.792969 24.066406 L 37.804688 24.054688 L 38.714844 24.835938 C 38.714844 24.835938 39.46875 24.457031 39.621094 24.65625 C 39.917969 25.027344 38.949219 26.390625 38.949219 26.390625 L 41.378906 25.789062 L 41.6875 23.222656 C 45.21875 21.921875 47.417969 21.441406 47.109375 14.816406 Z M 44.914062 18.675781 C 44.566406 20.628906 41.992188 20.628906 41.644531 18.675781 C 41.636719 18.613281 41.636719 18.546875 41.644531 18.484375 C 41.992188 16.53125 44.566406 16.53125 44.914062 18.484375 C 44.925781 18.546875 44.925781 18.605469 44.914062 18.675781 Z M 44.914062 18.675781 " fill-opacity="1" fill-rule="nonzero"/></g><path fill="#f15a24" d="M 36.242188 24.125 C 36.621094 23.753906 37.242188 23.753906 37.621094 24.125 C 38 24.496094 38 25.105469 37.621094 25.476562 C 37.242188 25.847656 35.558594 26.148438 35.558594 26.148438 C 35.558594 26.148438 35.863281 24.496094 36.242188 24.125 Z M 36.242188 24.125 " fill-opacity="1" fill-rule="nonzero"/><g clip-path="url(#2dd1c33374)"><path fill="#009245" d="M 14.464844 27 C 14.464844 30.175781 11.878906 32.148438 7.714844 32.148438 C 4.128906 32.148438 1.851562 30.878906 0.769531 28.253906 L 0.582031 27.820312 L 3.84375 26.167969 L 4.058594 26.691406 C 4.566406 27.941406 5.957031 28.683594 7.753906 28.683594 C 8.4375 28.683594 10.65625 28.5625 10.65625 27 C 10.65625 26.671875 10.65625 25.679688 7.683594 25.359375 C 4.566406 24.996094 1.390625 24.125 1.390625 20.449219 C 1.390625 17.203125 4.535156 15.71875 7.652344 15.699219 C 10.738281 15.699219 12.914062 16.800781 13.953125 18.875 L 14.179688 19.316406 L 11.074219 20.878906 L 10.828125 20.46875 C 10.398438 19.808594 9.183594 19.097656 7.734375 19.097656 C 6.128906 19.097656 5.171875 19.628906 5.171875 20.527344 C 5.171875 21.25 5.964844 21.621094 8.019531 21.859375 C 10.113281 22.113281 14.464844 22.632812 14.464844 27 Z M 14.464844 27 " fill-opacity="1" fill-rule="nonzero"/></g><path fill="#fbb03b" d="M 16.324219 16.191406 L 28.46875 16.191406 L 28.46875 19.867188 L 20.132812 19.867188 L 20.132812 22.203125 L 28.171875 22.203125 L 28.171875 25.769531 L 20.132812 25.769531 L 20.132812 28.042969 L 28.46875 28.042969 L 28.46875 31.757812 L 16.324219 31.757812 Z M 16.324219 16.191406 " fill-opacity="1" fill-rule="nonzero"/><g clip-path="url(#2b6fa01322)"><path fill="#ed1c24" d="M 45.75 21.851562 C 45.925781 22.5625 46.015625 23.3125 46.015625 24.074219 C 45.976562 28.074219 43.441406 32.109375 37.886719 32.109375 C 35.324219 32.109375 33.1875 31.25 31.726562 29.617188 C 30.441406 28.183594 29.734375 26.21875 29.734375 24.085938 C 29.734375 21.953125 30.449219 19.957031 31.757812 18.484375 C 33.238281 16.800781 35.363281 15.910156 37.894531 15.910156 C 38.632812 15.910156 39.335938 15.992188 39.992188 16.140625 C 39.195312 17.011719 38.753906 18.144531 38.265625 19.4375 C 38.140625 19.425781 38.019531 19.425781 37.894531 19.425781 C 36.621094 19.425781 35.589844 19.816406 34.820312 20.589844 C 33.964844 21.449219 33.492188 22.742188 33.535156 24.125 C 33.566406 25.167969 33.964844 28.582031 37.894531 28.582031 C 41.042969 28.582031 42.195312 26.269531 42.238281 24.105469 C 42.238281 23.933594 42.238281 23.753906 42.226562 23.585938 L 42.378906 23.523438 C 43.699219 23.035156 44.851562 22.601562 45.75 21.851562 Z M 45.75 21.851562 " fill-opacity="1" fill-rule="nonzero"/></g></svg>