<svg xmlns="http://www.w3.org/2000/svg" xmlns:xlink="http://www.w3.org/1999/xlink" width="500" zoomAndPan="magnify" viewBox="0 0 375 374.999991" height="500" preserveAspectRatio="xMidYMid meet" version="1.0"><defs><clipPath id="3accd5e4f2"><path d="M 240 293.859375 L 242 293.859375 L 242 298 L 240 298 Z M 240 293.859375 " clip-rule="nonzero"/></clipPath><clipPath id="a47090cb73"><path d="M 279 296 L 285.785156 296 L 285.785156 307 L 279 307 Z M 279 296 " clip-rule="nonzero"/></clipPath><clipPath id="126f2a0b3d"><path d="M 279 293.859375 L 281 293.859375 L 281 298 L 279 298 Z M 279 293.859375 " clip-rule="nonzero"/></clipPath><clipPath id="891dcfe3bd"><path d="M 234.785156 306 L 236 306 L 236 310 L 234.785156 310 Z M 234.785156 306 " clip-rule="nonzero"/></clipPath><clipPath id="07ef43dd61"><path d="M 236 336 L 242 336 L 242 337.359375 L 236 337.359375 Z M 236 336 " clip-rule="nonzero"/></clipPath><clipPath id="dbc53f6c16"><path d="M 283 332 L 285 332 L 285 337.359375 L 283 337.359375 Z M 283 332 " clip-rule="nonzero"/></clipPath><clipPath id="62dc1dc77f"><path d="M 234.785156 309 L 243 309 L 243 314 L 234.785156 314 Z M 234.785156 309 " clip-rule="nonzero"/></clipPath><clipPath id="d53c4b7ffb"><path d="M 236 332 L 237 332 L 237 337.359375 L 236 337.359375 Z M 236 332 " clip-rule="nonzero"/></clipPath><clipPath id="c30458f35a"><path d="M 240 293.859375 L 281 293.859375 L 281 295 L 240 295 Z M 240 293.859375 " clip-rule="nonzero"/></clipPath><clipPath id="7d69804514"><path d="M 234.785156 296 L 242 296 L 242 307 L 234.785156 307 Z M 234.785156 296 " clip-rule="nonzero"/></clipPath><clipPath id="f26752a292"><path d="M 234.785156 306 L 285.785156 306 L 285.785156 307 L 234.785156 307 Z M 234.785156 306 " clip-rule="nonzero"/></clipPath><clipPath id="99bcf7d91b"><path d="M 284 306 L 285.785156 306 L 285.785156 310 L 284 310 Z M 284 306 " clip-rule="nonzero"/></clipPath><clipPath id="ccc900dd46"><path d="M 277 309 L 285.785156 309 L 285.785156 314 L 277 314 Z M 277 309 " clip-rule="nonzero"/></clipPath><clipPath id="781bc677f1"><path d="M 240 336 L 281 336 L 281 337.359375 L 240 337.359375 Z M 240 336 " clip-rule="nonzero"/></clipPath><clipPath id="1ad8fd5ef1"><path d="M 279 336 L 285 336 L 285 337.359375 L 279 337.359375 Z M 279 336 " clip-rule="nonzero"/></clipPath><clipPath id="47c37421e0"><path d="M 167 293.859375 L 169 293.859375 L 169 298 L 167 298 Z M 167 293.859375 " clip-rule="nonzero"/></clipPath><clipPath id="05145da94e"><path d="M 206 296 L 212.964844 296 L 212.964844 307 L 206 307 Z M 206 296 " clip-rule="nonzero"/></clipPath><clipPath id="e946f36bfc"><path d="M 206 293.859375 L 208 293.859375 L 208 298 L 206 298 Z M 206 293.859375 " clip-rule="nonzero"/></clipPath><clipPath id="b285270de8"><path d="M 163 336 L 169 336 L 169 337.359375 L 163 337.359375 Z M 163 336 " clip-rule="nonzero"/></clipPath><clipPath id="dc86dc257c"><path d="M 210 332 L 212 332 L 212 337.359375 L 210 337.359375 Z M 210 332 " clip-rule="nonzero"/></clipPath><clipPath id="d339a4dbf3"><path d="M 163 332 L 164 332 L 164 337.359375 L 163 337.359375 Z M 163 332 " clip-rule="nonzero"/></clipPath><clipPath id="5ea3046679"><path d="M 167 293.859375 L 208 293.859375 L 208 295 L 167 295 Z M 167 293.859375 " clip-rule="nonzero"/></clipPath><clipPath id="1fa64c5884"><path d="M 162 306 L 212.964844 306 L 212.964844 307 L 162 307 Z M 162 306 " clip-rule="nonzero"/></clipPath><clipPath id="790183b49e"><path d="M 212 306 L 212.964844 306 L 212.964844 310 L 212 310 Z M 212 306 " clip-rule="nonzero"/></clipPath><clipPath id="57b544077e"><path d="M 205 309 L 212.964844 309 L 212.964844 314 L 205 314 Z M 205 309 " clip-rule="nonzero"/></clipPath><clipPath id="1907a1e819"><path d="M 167 336 L 208 336 L 208 337.359375 L 167 337.359375 Z M 167 336 " clip-rule="nonzero"/></clipPath><clipPath id="c00fccfc9b"><path d="M 206 336 L 212 336 L 212 337.359375 L 206 337.359375 Z M 206 336 " clip-rule="nonzero"/></clipPath><clipPath id="804d51b45d"><path d="M 95 293.859375 L 96 293.859375 L 96 298 L 95 298 Z M 95 293.859375 " clip-rule="nonzero"/></clipPath><clipPath id="06baa242ba"><path d="M 134 296 L 140.457031 296 L 140.457031 307 L 134 307 Z M 134 296 " clip-rule="nonzero"/></clipPath><clipPath id="061cc629b2"><path d="M 134 293.859375 L 135 293.859375 L 135 298 L 134 298 Z M 134 293.859375 " clip-rule="nonzero"/></clipPath><clipPath id="6aca7af92b"><path d="M 89.457031 306 L 91 306 L 91 310 L 89.457031 310 Z M 89.457031 306 " clip-rule="nonzero"/></clipPath><clipPath id="3a561fe1d8"><path d="M 90 336 L 96 336 L 96 337.359375 L 90 337.359375 Z M 90 336 " clip-rule="nonzero"/></clipPath><clipPath id="e2cb6238fb"><path d="M 138 332 L 140 332 L 140 337.359375 L 138 337.359375 Z M 138 332 " clip-rule="nonzero"/></clipPath><clipPath id="66a00338ba"><path d="M 89.457031 309 L 98 309 L 98 314 L 89.457031 314 Z M 89.457031 309 " clip-rule="nonzero"/></clipPath><clipPath id="04c952ac90"><path d="M 90 332 L 92 332 L 92 337.359375 L 90 337.359375 Z M 90 332 " clip-rule="nonzero"/></clipPath><clipPath id="6d1d10d70b"><path d="M 95 293.859375 L 135 293.859375 L 135 295 L 95 295 Z M 95 293.859375 " clip-rule="nonzero"/></clipPath><clipPath id="563c64e750"><path d="M 89.457031 296 L 96 296 L 96 307 L 89.457031 307 Z M 89.457031 296 " clip-rule="nonzero"/></clipPath><clipPath id="354f52778f"><path d="M 89.457031 306 L 140.457031 306 L 140.457031 307 L 89.457031 307 Z M 89.457031 306 " clip-rule="nonzero"/></clipPath><clipPath id="1eec5ea1a2"><path d="M 139 306 L 140.457031 306 L 140.457031 310 L 139 310 Z M 139 306 " clip-rule="nonzero"/></clipPath><clipPath id="3bd1fdb729"><path d="M 132 309 L 140.457031 309 L 140.457031 314 L 132 314 Z M 132 309 " clip-rule="nonzero"/></clipPath><clipPath id="8146dd2a8a"><path d="M 95 336 L 135 336 L 135 337.359375 L 95 337.359375 Z M 95 336 " clip-rule="nonzero"/></clipPath><clipPath id="54f34e7f78"><path d="M 134 336 L 140 336 L 140 337.359375 L 134 337.359375 Z M 134 336 " clip-rule="nonzero"/></clipPath><clipPath id="a6fd935cad"><path d="M 12 5.265625 L 63.808594 5.265625 L 63.808594 59.265625 L 12 59.265625 Z M 12 5.265625 " clip-rule="nonzero"/></clipPath></defs><g clip-path="url(#3accd5e4f2)"><path stroke-linecap="round" transform="matrix(0.200123, 0, 0, 0.199936, 200.846094, 264.539515)" fill="none" stroke-linejoin="round" d="M 199.80683 161.983195 L 199.80683 148.756304 " stroke="#212830" stroke-width="3.711" stroke-opacity="1" stroke-miterlimit="4"/></g><g clip-path="url(#a47090cb73)"><path stroke-linecap="round" transform="matrix(0.200123, 0, 0, 0.199936, 200.846094, 264.539515)" fill="none" stroke-linejoin="round" d="M 394.19902 161.983195 L 422.287218 209.635171 " stroke="#212830" stroke-width="3.711" stroke-opacity="1" stroke-miterlimit="4"/></g><path stroke-linecap="round" transform="matrix(0.200123, 0, 0, 0.199936, 200.846094, 264.539515)" fill="none" stroke-linejoin="round" d="M 283.095461 161.983195 L 279.113534 209.635171 " stroke="#212830" stroke-width="3.711" stroke-opacity="1" stroke-miterlimit="4"/><path stroke-linecap="round" transform="matrix(0.200123, 0, 0, 0.199936, 200.846094, 264.539515)" fill="none" stroke-linejoin="round" d="M 243.276195 209.635171 L 243.276195 224.796275 " stroke="#212830" stroke-width="3.711" stroke-opacity="1" stroke-miterlimit="4"/><path stroke-linecap="round" transform="matrix(0.200123, 0, 0, 0.199936, 200.846094, 264.539515)" fill="none" stroke-linejoin="round" d="M 386.508437 209.635171 L 386.508437 224.796275 " stroke="#212830" stroke-width="3.711" stroke-opacity="1" stroke-miterlimit="4"/><path stroke-linecap="round" transform="matrix(0.200123, 0, 0, 0.199936, 200.846094, 264.539515)" fill="none" stroke-linejoin="round" d="M 207.497414 224.796275 L 207.555971 226.066213 L 207.692606 227.316613 L 207.887799 228.567013 L 208.219626 229.836951 L 208.610011 231.028739 L 209.137031 232.220527 L 209.683569 233.412315 L 210.347224 234.46734 L 211.069436 235.522365 L 211.869725 236.518778 L 212.728572 237.437041 L 213.645977 238.296691 L 214.641458 239.097729 L 215.695498 239.820616 L 216.827614 240.484892 L 217.959731 241.090554 L 219.150405 241.539917 L 220.341079 241.950204 L 221.60983 242.282342 L 222.859062 242.53633 L 224.127813 242.673092 L 226.704354 242.673092 L 227.953586 242.53633 L 229.222337 242.282342 L 230.413011 241.950204 L 231.681762 241.539917 L 232.794359 241.090554 L 233.985033 240.484892 L 235.058592 239.820616 L 236.112631 239.097729 L 237.108113 238.296691 L 238.025518 237.437041 L 238.903884 236.518778 L 239.762731 235.522365 L 240.484943 234.46734 L 241.090039 233.412315 L 241.675617 232.220527 L 242.144079 231.028739 L 242.534464 229.836951 L 242.866291 228.567013 L 243.13956 227.316613 L 243.276195 226.066213 L 243.276195 224.796275 " stroke="#212830" stroke-width="3.711" stroke-opacity="1" stroke-miterlimit="4"/><path stroke-linecap="round" transform="matrix(0.200123, 0, 0, 0.199936, 200.846094, 264.539515)" fill="none" stroke-linejoin="round" d="M 350.671097 224.796275 L 350.729655 225.792688 L 350.807732 226.7891 L 350.944367 227.785513 L 351.139559 228.781926 L 351.39331 229.758801 L 351.725137 230.696601 L 352.056964 231.614864 L 352.466868 232.552664 L 352.915811 233.470927 L 353.46235 234.330577 L 353.98937 235.131615 L 354.574947 235.991265 L 355.238602 236.714153 L 355.980333 237.437041 L 356.702545 238.179466 L 357.424757 238.765591 L 358.225046 239.371254 L 359.083893 239.957379 L 359.94274 240.484892 L 360.801587 240.953792 L 361.738511 241.344542 L 362.655916 241.676679 L 363.651397 242.008817 L 364.588321 242.282342 L 365.583803 242.477717 L 366.579285 242.594942 L 367.574766 242.673092 L 369.624287 242.673092 L 370.619769 242.594942 L 371.615251 242.477717 L 372.610732 242.282342 L 373.528137 242.008817 L 374.523619 241.676679 L 375.460542 241.344542 L 376.377947 240.953792 L 377.236794 240.484892 L 378.095641 239.957379 L 378.954488 239.371254 L 379.754777 238.765591 L 380.555066 238.179466 L 381.277278 237.437041 L 382.604587 235.991265 L 383.209684 235.131615 L 383.736704 234.330577 L 384.263723 233.470927 L 384.732185 232.552664 L 385.12257 231.614864 L 385.532474 230.696601 L 385.786225 229.758801 L 386.059494 228.781926 L 386.254687 227.785513 L 386.391321 226.7891 L 386.508437 224.796275 " stroke="#212830" stroke-width="3.711" stroke-opacity="1" stroke-miterlimit="4"/><path stroke-linecap="round" transform="matrix(0.200123, 0, 0, 0.199936, 200.846094, 264.539515)" fill="none" stroke-linejoin="round" d="M 394.19902 343.213095 L 394.19902 239.488479 " stroke="#212830" stroke-width="3.711" stroke-opacity="1" stroke-miterlimit="4"/><path stroke-linecap="round" transform="matrix(0.200123, 0, 0, 0.199936, 200.846094, 264.539515)" fill="none" stroke-linejoin="round" d="M 177.808638 343.213095 L 199.80683 343.213095 " stroke="#212830" stroke-width="3.711" stroke-opacity="1" stroke-miterlimit="4"/><path stroke-linecap="round" transform="matrix(0.200123, 0, 0, 0.199936, 200.846094, 264.539515)" fill="none" stroke-linejoin="round" d="M 222.663869 261.741697 L 269.236795 261.741697 L 269.236795 343.213095 L 222.663869 343.213095 Z M 222.663869 261.741697 " stroke="#212830" stroke-width="3.711" stroke-opacity="1" stroke-miterlimit="4"/><g clip-path="url(#126f2a0b3d)"><path stroke-linecap="round" transform="matrix(0.200123, 0, 0, 0.199936, 200.846094, 264.539515)" fill="none" stroke-linejoin="round" d="M 394.19902 148.756304 L 394.19902 161.983195 " stroke="#212830" stroke-width="3.711" stroke-opacity="1" stroke-miterlimit="4"/></g><path stroke-linecap="round" transform="matrix(0.200123, 0, 0, 0.199936, 200.846094, 264.539515)" fill="none" stroke-linejoin="round" d="M 227.563201 161.983195 L 207.497414 209.635171 " stroke="#212830" stroke-width="3.711" stroke-opacity="1" stroke-miterlimit="4"/><path stroke-linecap="round" transform="matrix(0.200123, 0, 0, 0.199936, 200.846094, 264.539515)" fill="none" stroke-linejoin="round" d="M 338.608202 161.983195 L 350.671097 209.635171 " stroke="#212830" stroke-width="3.711" stroke-opacity="1" stroke-miterlimit="4"/><g clip-path="url(#891dcfe3bd)"><path stroke-linecap="round" transform="matrix(0.200123, 0, 0, 0.199936, 200.846094, 264.539515)" fill="none" stroke-linejoin="round" d="M 171.718632 209.635171 L 171.718632 224.796275 " stroke="#212830" stroke-width="3.711" stroke-opacity="1" stroke-miterlimit="4"/></g><path stroke-linecap="round" transform="matrix(0.200123, 0, 0, 0.199936, 200.846094, 264.539515)" fill="none" stroke-linejoin="round" d="M 314.892316 209.635171 L 314.892316 224.796275 " stroke="#212830" stroke-width="3.711" stroke-opacity="1" stroke-miterlimit="4"/><path stroke-linecap="round" transform="matrix(0.200123, 0, 0, 0.199936, 200.846094, 264.539515)" fill="none" stroke-linejoin="round" d="M 279.113534 224.796275 L 279.113534 226.066213 L 279.250169 227.316613 L 279.503919 228.567013 L 279.835747 229.836951 L 280.245651 231.028739 L 280.694594 232.220527 L 281.29969 233.412315 L 281.963345 234.46734 L 282.685557 235.522365 L 283.485846 236.518778 L 284.344693 237.437041 L 285.281617 238.296691 L 286.277098 239.097729 L 287.331138 239.820616 L 288.385177 240.484892 L 289.575851 241.090554 L 290.707968 241.539917 L 291.976719 241.950204 L 293.167393 242.282342 L 294.416625 242.53633 L 295.743934 242.673092 L 298.261917 242.673092 L 299.511149 242.53633 L 300.7799 242.282342 L 302.029132 241.950204 L 303.239325 241.539917 L 304.429999 241.090554 L 305.542596 240.484892 L 306.674713 239.820616 L 307.728752 239.097729 L 308.724234 238.296691 L 309.661158 237.437041 L 310.520004 236.518778 L 311.320294 235.522365 L 312.042506 234.46734 L 312.70616 233.412315 L 313.311257 232.220527 L 313.7602 231.028739 L 314.170104 229.836951 L 314.501931 228.567013 L 314.697124 227.316613 L 314.833758 226.066213 L 314.892316 224.796275 " stroke="#212830" stroke-width="3.711" stroke-opacity="1" stroke-miterlimit="4"/><path stroke-linecap="round" transform="matrix(0.200123, 0, 0, 0.199936, 200.846094, 264.539515)" fill="none" stroke-linejoin="round" d="M 199.80683 239.488479 L 199.80683 343.213095 " stroke="#212830" stroke-width="3.711" stroke-opacity="1" stroke-miterlimit="4"/><g clip-path="url(#07ef43dd61)"><path stroke-linecap="round" transform="matrix(0.200123, 0, 0, 0.199936, 200.846094, 264.539515)" fill="none" stroke-linejoin="round" d="M 199.80683 362.20355 L 177.808638 362.20355 " stroke="#212830" stroke-width="3.711" stroke-opacity="1" stroke-miterlimit="4"/></g><g clip-path="url(#dbc53f6c16)"><path stroke-linecap="round" transform="matrix(0.200123, 0, 0, 0.199936, 200.846094, 264.539515)" fill="none" stroke-linejoin="round" d="M 416.197213 362.20355 L 416.197213 343.213095 " stroke="#212830" stroke-width="3.711" stroke-opacity="1" stroke-miterlimit="4"/></g><path stroke-linecap="round" transform="matrix(0.200123, 0, 0, 0.199936, 200.846094, 264.539515)" fill="none" stroke-linejoin="round" d="M 394.19902 161.983195 L 199.80683 161.983195 " stroke="#212830" stroke-width="3.711" stroke-opacity="1" stroke-miterlimit="4"/><path stroke-linecap="round" transform="matrix(0.200123, 0, 0, 0.199936, 200.846094, 264.539515)" fill="none" stroke-linejoin="round" d="M 255.319571 161.983195 L 243.276195 209.635171 " stroke="#212830" stroke-width="3.711" stroke-opacity="1" stroke-miterlimit="4"/><path stroke-linecap="round" transform="matrix(0.200123, 0, 0, 0.199936, 200.846094, 264.539515)" fill="none" stroke-linejoin="round" d="M 366.44265 161.983195 L 386.508437 209.635171 " stroke="#212830" stroke-width="3.711" stroke-opacity="1" stroke-miterlimit="4"/><path stroke-linecap="round" transform="matrix(0.200123, 0, 0, 0.199936, 200.846094, 264.539515)" fill="none" stroke-linejoin="round" d="M 207.497414 209.635171 L 207.497414 224.796275 " stroke="#212830" stroke-width="3.711" stroke-opacity="1" stroke-miterlimit="4"/><path stroke-linecap="round" transform="matrix(0.200123, 0, 0, 0.199936, 200.846094, 264.539515)" fill="none" stroke-linejoin="round" d="M 350.671097 209.635171 L 350.671097 224.796275 " stroke="#212830" stroke-width="3.711" stroke-opacity="1" stroke-miterlimit="4"/><g clip-path="url(#62dc1dc77f)"><path stroke-linecap="round" transform="matrix(0.200123, 0, 0, 0.199936, 200.846094, 264.539515)" fill="none" stroke-linejoin="round" d="M 171.718632 224.796275 L 171.718632 225.792688 L 171.77719 226.7891 L 172.167575 228.781926 L 172.382287 229.758801 L 172.694595 230.696601 L 173.026422 231.614864 L 173.494884 232.552664 L 173.904788 233.470927 L 174.431808 234.330577 L 175.017385 235.131615 L 175.622482 235.991265 L 176.208059 236.714153 L 176.949791 237.437041 L 177.672003 238.179466 L 178.394215 238.765591 L 179.253062 239.371254 L 180.053351 239.957379 L 180.912198 240.484892 L 181.849122 240.953792 L 182.766527 241.344542 L 183.70345 241.676679 L 184.620855 242.008817 L 185.616337 242.282342 L 186.611818 242.477717 L 187.6073 242.594942 L 188.602782 242.673092 L 190.593745 242.673092 L 191.589227 242.594942 L 192.584708 242.477717 L 193.58019 242.282342 L 194.575672 242.008817 L 195.493076 241.676679 L 196.43 241.344542 L 197.347405 240.953792 L 198.284329 240.484892 L 199.143176 239.957379 L 199.943465 239.371254 L 200.724235 238.765591 L 201.524524 238.179466 L 202.246736 237.437041 L 203.574045 235.991265 L 204.179142 235.131615 L 204.764719 234.330577 L 205.233181 233.470927 L 205.701643 232.552664 L 206.170105 231.614864 L 206.501932 230.696601 L 206.833759 229.758801 L 207.028952 228.781926 L 207.224144 227.785513 L 207.497414 225.792688 L 207.497414 224.796275 " stroke="#212830" stroke-width="3.711" stroke-opacity="1" stroke-miterlimit="4"/></g><path stroke-linecap="round" transform="matrix(0.200123, 0, 0, 0.199936, 200.846094, 264.539515)" fill="none" stroke-linejoin="round" d="M 314.892316 224.796275 L 314.950874 226.066213 L 315.087508 227.316613 L 315.282701 228.567013 L 315.614528 229.836951 L 316.024432 231.028739 L 316.473375 232.220527 L 317.078472 233.412315 L 317.742126 234.46734 L 318.464338 235.522365 L 319.264628 236.518778 L 320.123474 237.437041 L 321.060398 238.296691 L 322.05588 239.097729 L 323.109919 239.820616 L 324.242036 240.484892 L 325.354633 241.090554 L 326.545307 241.539917 L 327.7555 241.950204 L 329.004732 242.282342 L 330.273483 242.53633 L 331.522715 242.673092 L 334.099256 242.673092 L 335.368007 242.53633 L 336.617239 242.282342 L 337.827432 241.950204 L 339.076664 241.539917 L 340.208781 241.090554 L 341.399455 240.484892 L 342.453494 239.820616 L 343.507533 239.097729 L 344.503015 238.296691 L 345.439939 237.437041 L 346.298786 236.518778 L 347.157633 235.522365 L 347.879845 234.46734 L 348.484942 233.412315 L 349.090038 232.220527 L 349.538981 231.028739 L 349.948885 229.836951 L 350.280713 228.567013 L 350.534463 227.316613 L 350.671097 226.066213 L 350.671097 224.796275 " stroke="#212830" stroke-width="3.711" stroke-opacity="1" stroke-miterlimit="4"/><path stroke-linecap="round" transform="matrix(0.200123, 0, 0, 0.199936, 200.846094, 264.539515)" fill="none" stroke-linejoin="round" d="M 199.80683 343.213095 L 394.19902 343.213095 " stroke="#212830" stroke-width="3.711" stroke-opacity="1" stroke-miterlimit="4"/><g clip-path="url(#d53c4b7ffb)"><path stroke-linecap="round" transform="matrix(0.200123, 0, 0, 0.199936, 200.846094, 264.539515)" fill="none" stroke-linejoin="round" d="M 177.808638 362.20355 L 177.808638 343.213095 " stroke="#212830" stroke-width="3.711" stroke-opacity="1" stroke-miterlimit="4"/></g><path stroke-linecap="round" transform="matrix(0.200123, 0, 0, 0.199936, 200.846094, 264.539515)" fill="none" stroke-linejoin="round" d="M 416.197213 343.213095 L 394.19902 343.213095 " stroke="#212830" stroke-width="3.711" stroke-opacity="1" stroke-miterlimit="4"/><g clip-path="url(#c30458f35a)"><path stroke-linecap="round" transform="matrix(0.200123, 0, 0, 0.199936, 200.846094, 264.539515)" fill="none" stroke-linejoin="round" d="M 199.80683 148.756304 L 394.19902 148.756304 " stroke="#212830" stroke-width="3.711" stroke-opacity="1" stroke-miterlimit="4"/></g><g clip-path="url(#7d69804514)"><path stroke-linecap="round" transform="matrix(0.200123, 0, 0, 0.199936, 200.846094, 264.539515)" fill="none" stroke-linejoin="round" d="M 199.80683 161.983195 L 171.718632 209.635171 " stroke="#212830" stroke-width="3.711" stroke-opacity="1" stroke-miterlimit="4"/></g><g clip-path="url(#f26752a292)"><path stroke-linecap="round" transform="matrix(0.200123, 0, 0, 0.199936, 200.846094, 264.539515)" fill="none" stroke-linejoin="round" d="M 171.718632 209.635171 L 422.287218 209.635171 " stroke="#212830" stroke-width="3.711" stroke-opacity="1" stroke-miterlimit="4"/></g><path stroke-linecap="round" transform="matrix(0.200123, 0, 0, 0.199936, 200.846094, 264.539515)" fill="none" stroke-linejoin="round" d="M 310.851832 161.983195 L 314.892316 209.635171 " stroke="#212830" stroke-width="3.711" stroke-opacity="1" stroke-miterlimit="4"/><path stroke-linecap="round" transform="matrix(0.200123, 0, 0, 0.199936, 200.846094, 264.539515)" fill="none" stroke-linejoin="round" d="M 279.113534 209.635171 L 279.113534 224.796275 " stroke="#212830" stroke-width="3.711" stroke-opacity="1" stroke-miterlimit="4"/><g clip-path="url(#99bcf7d91b)"><path stroke-linecap="round" transform="matrix(0.200123, 0, 0, 0.199936, 200.846094, 264.539515)" fill="none" stroke-linejoin="round" d="M 422.287218 209.635171 L 422.287218 224.796275 " stroke="#212830" stroke-width="3.711" stroke-opacity="1" stroke-miterlimit="4"/></g><path stroke-linecap="round" transform="matrix(0.200123, 0, 0, 0.199936, 200.846094, 264.539515)" fill="none" stroke-linejoin="round" d="M 243.276195 224.796275 L 243.334753 226.066213 L 243.471388 227.316613 L 243.725138 228.567013 L 243.998407 229.836951 L 244.388792 231.028739 L 244.915812 232.220527 L 245.462351 233.412315 L 246.126005 234.46734 L 246.848218 235.522365 L 247.648507 236.518778 L 248.565911 237.437041 L 249.502835 238.296691 L 250.498317 239.097729 L 251.552356 239.820616 L 252.606396 240.484892 L 253.738512 241.090554 L 254.929186 241.539917 L 256.11986 241.950204 L 257.388611 242.282342 L 258.637843 242.53633 L 259.906594 242.673092 L 262.483135 242.673092 L 263.732367 242.53633 L 265.001118 242.282342 L 266.25035 241.950204 L 267.460543 241.539917 L 268.651218 241.090554 L 269.763815 240.484892 L 270.895931 239.820616 L 271.891413 239.097729 L 272.886894 238.296691 L 273.882376 237.437041 L 274.741223 236.518778 L 275.541512 235.522365 L 276.263724 234.46734 L 276.927379 233.412315 L 277.981418 231.028739 L 278.391322 229.836951 L 278.72315 228.567013 L 278.918342 227.316613 L 279.054977 226.066213 L 279.113534 224.796275 " stroke="#212830" stroke-width="3.711" stroke-opacity="1" stroke-miterlimit="4"/><g clip-path="url(#ccc900dd46)"><path stroke-linecap="round" transform="matrix(0.200123, 0, 0, 0.199936, 200.846094, 264.539515)" fill="none" stroke-linejoin="round" d="M 386.508437 224.796275 L 386.508437 225.597313 L 386.586514 226.39835 L 386.645071 227.17985 L 386.918341 228.781926 L 387.113533 229.563426 L 387.386803 230.286314 L 387.640553 231.087352 L 387.913823 231.810239 L 388.24565 232.552664 L 389.02642 233.99844 L 389.436324 234.662715 L 389.904786 235.32699 L 390.431806 235.991265 L 390.880748 236.577391 L 392.012865 237.710566 L 392.617961 238.296691 L 393.203539 238.765591 L 393.867193 239.293104 L 394.530848 239.762004 L 395.194502 240.152754 L 395.916714 240.563042 L 396.658446 240.953792 L 397.380658 241.285929 L 398.122389 241.539917 L 398.844601 241.813442 L 399.644891 242.06743 L 400.425661 242.282342 L 401.22595 242.399567 L 402.026239 242.53633 L 402.826528 242.61448 L 403.607298 242.673092 L 405.207876 242.673092 L 405.988646 242.61448 L 406.788935 242.53633 L 407.589225 242.399567 L 408.389514 242.282342 L 409.170284 242.06743 L 409.912015 241.813442 L 410.692785 241.539917 L 411.434516 241.285929 L 412.156729 240.953792 L 412.878941 240.563042 L 413.542595 240.152754 L 414.284327 239.762004 L 414.947981 239.293104 L 415.533558 238.765591 L 416.197213 238.296691 L 416.80231 237.710566 L 417.329329 237.183053 L 417.856349 236.577391 L 418.383369 235.991265 L 419.788755 233.99844 L 420.179139 233.275552 L 420.510967 232.552664 L 420.842794 231.810239 L 421.174621 231.087352 L 421.428371 230.286314 L 421.643083 229.563426 L 421.838276 228.781926 L 422.033468 227.980888 L 422.170103 227.17985 L 422.228661 226.39835 L 422.306738 225.597313 L 422.306738 224.796275 " stroke="#212830" stroke-width="3.711" stroke-opacity="1" stroke-miterlimit="4"/></g><g clip-path="url(#781bc677f1)"><path stroke-linecap="round" transform="matrix(0.200123, 0, 0, 0.199936, 200.846094, 264.539515)" fill="none" stroke-linejoin="round" d="M 199.80683 362.20355 L 394.19902 362.20355 " stroke="#212830" stroke-width="3.711" stroke-opacity="1" stroke-miterlimit="4"/></g><g clip-path="url(#1ad8fd5ef1)"><path stroke-linecap="round" transform="matrix(0.200123, 0, 0, 0.199936, 200.846094, 264.539515)" fill="none" stroke-linejoin="round" d="M 394.19902 362.20355 L 416.197213 362.20355 " stroke="#212830" stroke-width="3.711" stroke-opacity="1" stroke-miterlimit="4"/></g><path stroke-linecap="round" transform="matrix(0.200123, 0, 0, 0.199936, 200.846094, 264.539515)" fill="none" stroke-linejoin="round" d="M 286.667483 261.741697 L 367.438131 261.741697 L 367.438131 313.223024 L 286.667483 313.223024 Z M 286.667483 261.741697 " stroke="#212830" stroke-width="3.711" stroke-opacity="1" stroke-miterlimit="4"/><g clip-path="url(#47c37421e0)"><path stroke-linecap="round" transform="matrix(0.200123, 0, 0, 0.199936, 128.029597, 264.539515)" fill="none" stroke-linejoin="round" d="M 199.807283 161.983195 L 199.807283 148.756304 " stroke="#212830" stroke-width="3.711" stroke-opacity="1" stroke-miterlimit="4"/></g><g clip-path="url(#05145da94e)"><path stroke-linecap="round" transform="matrix(0.200123, 0, 0, 0.199936, 128.029597, 264.539515)" fill="none" stroke-linejoin="round" d="M 394.199473 161.983195 L 422.287671 209.635171 " stroke="#212830" stroke-width="3.711" stroke-opacity="1" stroke-miterlimit="4"/></g><path stroke-linecap="round" transform="matrix(0.200123, 0, 0, 0.199936, 128.029597, 264.539515)" fill="none" stroke-linejoin="round" d="M 283.095914 161.983195 L 279.113987 209.635171 " stroke="#212830" stroke-width="3.711" stroke-opacity="1" stroke-miterlimit="4"/><path stroke-linecap="round" transform="matrix(0.200123, 0, 0, 0.199936, 128.029597, 264.539515)" fill="none" stroke-linejoin="round" d="M 243.276648 209.635171 L 243.276648 224.796275 " stroke="#212830" stroke-width="3.711" stroke-opacity="1" stroke-miterlimit="4"/><path stroke-linecap="round" transform="matrix(0.200123, 0, 0, 0.199936, 128.029597, 264.539515)" fill="none" stroke-linejoin="round" d="M 386.508889 209.635171 L 386.508889 224.796275 " stroke="#212830" stroke-width="3.711" stroke-opacity="1" stroke-miterlimit="4"/><path stroke-linecap="round" transform="matrix(0.200123, 0, 0, 0.199936, 128.029597, 264.539515)" fill="none" stroke-linejoin="round" d="M 207.497866 224.796275 L 207.556424 226.066213 L 207.693059 227.316613 L 207.888251 228.567013 L 208.220078 229.836951 L 208.610463 231.028739 L 209.137483 232.220527 L 209.684022 233.412315 L 210.328157 234.46734 L 211.069889 235.522365 L 211.870178 236.518778 L 212.729025 237.437041 L 213.646429 238.296691 L 214.641911 239.097729 L 215.69595 239.820616 L 216.828067 240.484892 L 217.960183 241.090554 L 219.150857 241.539917 L 220.341531 241.950204 L 221.610283 242.282342 L 222.859514 242.53633 L 224.128266 242.673092 L 226.704806 242.673092 L 227.954038 242.53633 L 229.222789 242.282342 L 230.413463 241.950204 L 231.682214 241.539917 L 232.794812 241.090554 L 233.985486 240.484892 L 235.059044 239.820616 L 236.113084 239.097729 L 237.108565 238.296691 L 238.02597 237.437041 L 238.904336 236.518778 L 239.763183 235.522365 L 240.485395 234.46734 L 241.090492 233.412315 L 241.676069 232.220527 L 242.144531 231.028739 L 242.534916 229.836951 L 242.866744 228.567013 L 243.140013 227.316613 L 243.276648 226.066213 L 243.276648 224.796275 " stroke="#212830" stroke-width="3.711" stroke-opacity="1" stroke-miterlimit="4"/><path stroke-linecap="round" transform="matrix(0.200123, 0, 0, 0.199936, 128.029597, 264.539515)" fill="none" stroke-linejoin="round" d="M 350.67155 224.796275 L 350.730108 225.792688 L 350.808185 226.7891 L 350.94482 227.785513 L 351.140012 228.781926 L 351.393762 229.758801 L 351.725589 230.696601 L 352.057417 231.614864 L 352.467321 232.552664 L 352.916264 233.470927 L 353.462803 234.330577 L 353.989822 235.131615 L 354.5754 235.991265 L 355.239054 236.714153 L 355.980786 237.437041 L 356.702998 238.179466 L 357.42521 238.765591 L 358.225499 239.371254 L 359.084346 239.957379 L 359.943193 240.484892 L 360.80204 240.953792 L 361.738964 241.344542 L 362.656368 241.676679 L 363.65185 242.008817 L 364.588774 242.282342 L 365.584256 242.477717 L 366.579737 242.594942 L 367.575219 242.673092 L 369.62474 242.673092 L 370.620221 242.594942 L 371.615703 242.477717 L 372.611185 242.282342 L 373.528589 242.008817 L 374.524071 241.676679 L 375.460995 241.344542 L 376.3784 240.953792 L 377.237247 240.484892 L 378.096093 239.957379 L 378.95494 239.371254 L 379.75523 238.765591 L 380.555519 238.179466 L 381.277731 237.437041 L 382.60504 235.991265 L 383.210136 235.131615 L 383.737156 234.330577 L 384.264176 233.470927 L 384.732638 232.552664 L 385.123023 231.614864 L 385.532927 230.696601 L 385.786677 229.758801 L 386.059947 228.781926 L 386.255139 227.785513 L 386.391774 226.7891 L 386.508889 224.796275 " stroke="#212830" stroke-width="3.711" stroke-opacity="1" stroke-miterlimit="4"/><path stroke-linecap="round" transform="matrix(0.200123, 0, 0, 0.199936, 128.029597, 264.539515)" fill="none" stroke-linejoin="round" d="M 394.199473 343.213095 L 394.199473 239.488479 " stroke="#212830" stroke-width="3.711" stroke-opacity="1" stroke-miterlimit="4"/><path stroke-linecap="round" transform="matrix(0.200123, 0, 0, 0.199936, 128.029597, 264.539515)" fill="none" stroke-linejoin="round" d="M 177.80909 343.213095 L 199.807283 343.213095 " stroke="#212830" stroke-width="3.711" stroke-opacity="1" stroke-miterlimit="4"/><path stroke-linecap="round" transform="matrix(0.200123, 0, 0, 0.199936, 128.029597, 264.539515)" fill="none" stroke-linejoin="round" d="M 222.664322 261.741697 L 269.237248 261.741697 L 269.237248 343.213095 L 222.664322 343.213095 Z M 222.664322 261.741697 " stroke="#212830" stroke-width="3.711" stroke-opacity="1" stroke-miterlimit="4"/><g clip-path="url(#e946f36bfc)"><path stroke-linecap="round" transform="matrix(0.200123, 0, 0, 0.199936, 128.029597, 264.539515)" fill="none" stroke-linejoin="round" d="M 394.199473 148.756304 L 394.199473 161.983195 " stroke="#212830" stroke-width="3.711" stroke-opacity="1" stroke-miterlimit="4"/></g><path stroke-linecap="round" transform="matrix(0.200123, 0, 0, 0.199936, 128.029597, 264.539515)" fill="none" stroke-linejoin="round" d="M 227.563653 161.983195 L 207.497866 209.635171 " stroke="#212830" stroke-width="3.711" stroke-opacity="1" stroke-miterlimit="4"/><path stroke-linecap="round" transform="matrix(0.200123, 0, 0, 0.199936, 128.029597, 264.539515)" fill="none" stroke-linejoin="round" d="M 338.608655 161.983195 L 350.67155 209.635171 " stroke="#212830" stroke-width="3.711" stroke-opacity="1" stroke-miterlimit="4"/><path stroke-linecap="round" transform="matrix(0.200123, 0, 0, 0.199936, 128.029597, 264.539515)" fill="none" stroke-linejoin="round" d="M 171.699566 209.635171 L 171.699566 224.796275 " stroke="#212830" stroke-width="3.711" stroke-opacity="1" stroke-miterlimit="4"/><path stroke-linecap="round" transform="matrix(0.200123, 0, 0, 0.199936, 128.029597, 264.539515)" fill="none" stroke-linejoin="round" d="M 314.892769 209.635171 L 314.892769 224.796275 " stroke="#212830" stroke-width="3.711" stroke-opacity="1" stroke-miterlimit="4"/><path stroke-linecap="round" transform="matrix(0.200123, 0, 0, 0.199936, 128.029597, 264.539515)" fill="none" stroke-linejoin="round" d="M 279.113987 224.796275 L 279.113987 226.066213 L 279.250622 227.316613 L 279.504372 228.567013 L 279.836199 229.836951 L 280.246103 231.028739 L 280.695046 232.220527 L 281.300143 233.412315 L 281.963797 234.46734 L 282.686009 235.522365 L 283.486299 236.518778 L 284.345145 237.437041 L 285.282069 238.296691 L 286.277551 239.097729 L 287.33159 239.820616 L 288.38563 240.484892 L 289.576304 241.090554 L 290.70842 241.539917 L 291.957652 241.950204 L 293.167846 242.282342 L 294.417077 242.53633 L 295.744386 242.673092 L 298.262369 242.673092 L 299.511601 242.53633 L 300.780352 242.282342 L 302.029584 241.950204 L 303.239778 241.539917 L 304.430452 241.090554 L 305.543049 240.484892 L 306.675165 239.820616 L 307.729205 239.097729 L 308.724686 238.296691 L 309.66161 237.437041 L 310.520457 236.518778 L 311.320746 235.522365 L 312.042958 234.46734 L 312.706613 233.412315 L 313.311709 232.220527 L 313.760652 231.028739 L 314.170556 229.836951 L 314.502384 228.567013 L 314.697576 227.316613 L 314.834211 226.066213 L 314.892769 224.796275 " stroke="#212830" stroke-width="3.711" stroke-opacity="1" stroke-miterlimit="4"/><path stroke-linecap="round" transform="matrix(0.200123, 0, 0, 0.199936, 128.029597, 264.539515)" fill="none" stroke-linejoin="round" d="M 199.807283 239.488479 L 199.807283 343.213095 " stroke="#212830" stroke-width="3.711" stroke-opacity="1" stroke-miterlimit="4"/><g clip-path="url(#b285270de8)"><path stroke-linecap="round" transform="matrix(0.200123, 0, 0, 0.199936, 128.029597, 264.539515)" fill="none" stroke-linejoin="round" d="M 199.807283 362.20355 L 177.80909 362.20355 " stroke="#212830" stroke-width="3.711" stroke-opacity="1" stroke-miterlimit="4"/></g><g clip-path="url(#dc86dc257c)"><path stroke-linecap="round" transform="matrix(0.200123, 0, 0, 0.199936, 128.029597, 264.539515)" fill="none" stroke-linejoin="round" d="M 416.197665 362.20355 L 416.197665 343.213095 " stroke="#212830" stroke-width="3.711" stroke-opacity="1" stroke-miterlimit="4"/></g><path stroke-linecap="round" transform="matrix(0.200123, 0, 0, 0.199936, 128.029597, 264.539515)" fill="none" stroke-linejoin="round" d="M 394.199473 161.983195 L 199.807283 161.983195 " stroke="#212830" stroke-width="3.711" stroke-opacity="1" stroke-miterlimit="4"/><path stroke-linecap="round" transform="matrix(0.200123, 0, 0, 0.199936, 128.029597, 264.539515)" fill="none" stroke-linejoin="round" d="M 255.320024 161.983195 L 243.276648 209.635171 " stroke="#212830" stroke-width="3.711" stroke-opacity="1" stroke-miterlimit="4"/><path stroke-linecap="round" transform="matrix(0.200123, 0, 0, 0.199936, 128.029597, 264.539515)" fill="none" stroke-linejoin="round" d="M 366.443102 161.983195 L 386.508889 209.635171 " stroke="#212830" stroke-width="3.711" stroke-opacity="1" stroke-miterlimit="4"/><path stroke-linecap="round" transform="matrix(0.200123, 0, 0, 0.199936, 128.029597, 264.539515)" fill="none" stroke-linejoin="round" d="M 207.497866 209.635171 L 207.497866 224.796275 " stroke="#212830" stroke-width="3.711" stroke-opacity="1" stroke-miterlimit="4"/><path stroke-linecap="round" transform="matrix(0.200123, 0, 0, 0.199936, 128.029597, 264.539515)" fill="none" stroke-linejoin="round" d="M 350.67155 209.635171 L 350.67155 224.796275 " stroke="#212830" stroke-width="3.711" stroke-opacity="1" stroke-miterlimit="4"/><path stroke-linecap="round" transform="matrix(0.200123, 0, 0, 0.199936, 128.029597, 264.539515)" fill="none" stroke-linejoin="round" d="M 171.699566 224.796275 L 171.699566 225.792688 L 171.777643 226.7891 L 172.168027 228.781926 L 172.36322 229.758801 L 172.695047 230.696601 L 173.026874 231.614864 L 173.495336 232.552664 L 173.905241 233.470927 L 174.43226 234.330577 L 175.017838 235.131615 L 175.622934 235.991265 L 176.208512 236.714153 L 176.950243 237.437041 L 177.672455 238.179466 L 178.394668 238.765591 L 179.253514 239.371254 L 180.053804 239.957379 L 180.912651 240.484892 L 181.849574 240.953792 L 182.766979 241.344542 L 183.703903 241.676679 L 184.621308 242.008817 L 185.616789 242.282342 L 186.612271 242.477717 L 187.607753 242.594942 L 188.603234 242.673092 L 190.594198 242.673092 L 191.589679 242.594942 L 192.585161 242.477717 L 193.580642 242.282342 L 194.576124 242.008817 L 195.493529 241.676679 L 196.430453 241.344542 L 197.347857 240.953792 L 198.284781 240.484892 L 199.143628 239.957379 L 199.943917 239.371254 L 200.724687 238.765591 L 201.524976 238.179466 L 202.247189 237.437041 L 203.574497 235.991265 L 204.179594 235.131615 L 204.765172 234.330577 L 205.233634 233.470927 L 205.702095 232.552664 L 206.170557 231.614864 L 206.502385 230.696601 L 206.834212 229.758801 L 207.029404 228.781926 L 207.224597 227.785513 L 207.497866 225.792688 L 207.497866 224.796275 " stroke="#212830" stroke-width="3.711" stroke-opacity="1" stroke-miterlimit="4"/><path stroke-linecap="round" transform="matrix(0.200123, 0, 0, 0.199936, 128.029597, 264.539515)" fill="none" stroke-linejoin="round" d="M 314.892769 224.796275 L 314.951326 226.066213 L 315.087961 227.316613 L 315.283154 228.567013 L 315.614981 229.836951 L 316.024885 231.028739 L 316.473828 232.220527 L 317.078924 233.412315 L 317.742579 234.46734 L 318.464791 235.522365 L 319.26508 236.518778 L 320.123927 237.437041 L 321.060851 238.296691 L 322.056333 239.097729 L 323.110372 239.820616 L 324.242488 240.484892 L 325.355085 241.090554 L 326.54576 241.539917 L 327.755953 241.950204 L 329.005185 242.282342 L 330.273936 242.53633 L 331.523168 242.673092 L 334.099709 242.673092 L 335.36846 242.53633 L 336.617692 242.282342 L 337.808366 241.950204 L 339.077117 241.539917 L 340.209233 241.090554 L 341.399907 240.484892 L 342.453947 239.820616 L 343.507986 239.097729 L 344.503468 238.296691 L 345.440392 237.437041 L 346.299239 236.518778 L 347.158085 235.522365 L 347.880298 234.46734 L 348.485394 233.412315 L 349.090491 232.220527 L 349.539434 231.028739 L 349.949338 229.836951 L 350.281165 228.567013 L 350.534915 227.316613 L 350.67155 226.066213 L 350.67155 224.796275 " stroke="#212830" stroke-width="3.711" stroke-opacity="1" stroke-miterlimit="4"/><path stroke-linecap="round" transform="matrix(0.200123, 0, 0, 0.199936, 128.029597, 264.539515)" fill="none" stroke-linejoin="round" d="M 199.807283 343.213095 L 394.199473 343.213095 " stroke="#212830" stroke-width="3.711" stroke-opacity="1" stroke-miterlimit="4"/><g clip-path="url(#d339a4dbf3)"><path stroke-linecap="round" transform="matrix(0.200123, 0, 0, 0.199936, 128.029597, 264.539515)" fill="none" stroke-linejoin="round" d="M 177.80909 362.20355 L 177.80909 343.213095 " stroke="#212830" stroke-width="3.711" stroke-opacity="1" stroke-miterlimit="4"/></g><path stroke-linecap="round" transform="matrix(0.200123, 0, 0, 0.199936, 128.029597, 264.539515)" fill="none" stroke-linejoin="round" d="M 416.197665 343.213095 L 394.199473 343.213095 " stroke="#212830" stroke-width="3.711" stroke-opacity="1" stroke-miterlimit="4"/><g clip-path="url(#5ea3046679)"><path stroke-linecap="round" transform="matrix(0.200123, 0, 0, 0.199936, 128.029597, 264.539515)" fill="none" stroke-linejoin="round" d="M 199.807283 148.756304 L 394.199473 148.756304 " stroke="#212830" stroke-width="3.711" stroke-opacity="1" stroke-miterlimit="4"/></g><path stroke-linecap="round" transform="matrix(0.200123, 0, 0, 0.199936, 128.029597, 264.539515)" fill="none" stroke-linejoin="round" d="M 199.807283 161.983195 L 171.699566 209.635171 " stroke="#212830" stroke-width="3.711" stroke-opacity="1" stroke-miterlimit="4"/><g clip-path="url(#1fa64c5884)"><path stroke-linecap="round" transform="matrix(0.200123, 0, 0, 0.199936, 128.029597, 264.539515)" fill="none" stroke-linejoin="round" d="M 171.699566 209.635171 L 422.287671 209.635171 " stroke="#212830" stroke-width="3.711" stroke-opacity="1" stroke-miterlimit="4"/></g><path stroke-linecap="round" transform="matrix(0.200123, 0, 0, 0.199936, 128.029597, 264.539515)" fill="none" stroke-linejoin="round" d="M 310.852284 161.983195 L 314.892769 209.635171 " stroke="#212830" stroke-width="3.711" stroke-opacity="1" stroke-miterlimit="4"/><path stroke-linecap="round" transform="matrix(0.200123, 0, 0, 0.199936, 128.029597, 264.539515)" fill="none" stroke-linejoin="round" d="M 279.113987 209.635171 L 279.113987 224.796275 " stroke="#212830" stroke-width="3.711" stroke-opacity="1" stroke-miterlimit="4"/><g clip-path="url(#790183b49e)"><path stroke-linecap="round" transform="matrix(0.200123, 0, 0, 0.199936, 128.029597, 264.539515)" fill="none" stroke-linejoin="round" d="M 422.287671 209.635171 L 422.287671 224.796275 " stroke="#212830" stroke-width="3.711" stroke-opacity="1" stroke-miterlimit="4"/></g><path stroke-linecap="round" transform="matrix(0.200123, 0, 0, 0.199936, 128.029597, 264.539515)" fill="none" stroke-linejoin="round" d="M 243.276648 224.796275 L 243.335206 226.066213 L 243.47184 227.316613 L 243.72559 228.567013 L 243.99886 229.836951 L 244.389245 231.028739 L 244.916265 232.220527 L 245.462804 233.412315 L 246.126458 234.46734 L 246.84867 235.522365 L 247.648959 236.518778 L 248.566364 237.437041 L 249.503288 238.296691 L 250.49877 239.097729 L 251.552809 239.820616 L 252.606848 240.484892 L 253.738965 241.090554 L 254.929639 241.539917 L 256.120313 241.950204 L 257.389064 242.282342 L 258.638296 242.53633 L 259.907047 242.673092 L 262.483588 242.673092 L 263.73282 242.53633 L 265.001571 242.282342 L 266.250803 241.950204 L 267.460996 241.539917 L 268.65167 241.090554 L 269.764267 240.484892 L 270.896384 239.820616 L 271.891865 239.097729 L 272.887347 238.296691 L 273.882829 237.437041 L 274.741675 236.518778 L 275.541965 235.522365 L 276.264177 234.46734 L 276.927831 233.412315 L 277.981871 231.028739 L 278.391775 229.836951 L 278.723602 228.567013 L 278.918795 227.316613 L 279.055429 226.066213 L 279.113987 224.796275 " stroke="#212830" stroke-width="3.711" stroke-opacity="1" stroke-miterlimit="4"/><g clip-path="url(#57b544077e)"><path stroke-linecap="round" transform="matrix(0.200123, 0, 0, 0.199936, 128.029597, 264.539515)" fill="none" stroke-linejoin="round" d="M 386.508889 224.796275 L 386.508889 225.597313 L 386.586966 226.39835 L 386.645524 227.17985 L 386.918794 228.781926 L 387.113986 229.563426 L 387.387255 230.286314 L 387.641006 231.087352 L 387.914275 231.810239 L 388.246102 232.552664 L 389.026872 233.99844 L 389.436777 234.662715 L 389.905238 235.32699 L 390.432258 235.991265 L 390.881201 236.577391 L 392.013317 237.710566 L 392.618414 238.296691 L 393.203991 238.765591 L 393.867646 239.293104 L 394.5313 239.762004 L 395.194955 240.152754 L 395.917167 240.563042 L 396.658898 240.953792 L 397.38111 241.285929 L 398.103323 241.539917 L 398.845054 241.813442 L 399.645343 242.06743 L 400.426113 242.282342 L 401.226402 242.399567 L 402.026691 242.53633 L 402.807461 242.61448 L 403.607751 242.673092 L 405.208329 242.673092 L 405.989099 242.61448 L 406.789388 242.53633 L 407.589677 242.399567 L 408.389966 242.282342 L 409.170736 242.06743 L 409.912468 241.813442 L 410.693238 241.539917 L 411.434969 241.285929 L 412.157181 240.953792 L 412.879393 240.563042 L 413.543048 240.152754 L 414.284779 239.762004 L 414.948434 239.293104 L 415.534011 238.765591 L 416.197665 238.296691 L 416.802762 237.710566 L 417.329782 237.183053 L 417.856802 236.577391 L 418.383821 235.991265 L 419.320745 234.662715 L 419.769688 233.99844 L 420.179592 233.275552 L 420.511419 232.552664 L 420.843246 231.810239 L 421.175074 231.087352 L 421.428824 230.286314 L 421.643536 229.563426 L 421.838728 228.781926 L 422.033921 227.980888 L 422.170555 227.17985 L 422.229113 226.39835 L 422.287671 225.597313 L 422.287671 224.796275 " stroke="#212830" stroke-width="3.711" stroke-opacity="1" stroke-miterlimit="4"/></g><g clip-path="url(#1907a1e819)"><path stroke-linecap="round" transform="matrix(0.200123, 0, 0, 0.199936, 128.029597, 264.539515)" fill="none" stroke-linejoin="round" d="M 199.807283 362.20355 L 394.199473 362.20355 " stroke="#212830" stroke-width="3.711" stroke-opacity="1" stroke-miterlimit="4"/></g><g clip-path="url(#c00fccfc9b)"><path stroke-linecap="round" transform="matrix(0.200123, 0, 0, 0.199936, 128.029597, 264.539515)" fill="none" stroke-linejoin="round" d="M 394.199473 362.20355 L 416.197665 362.20355 " stroke="#212830" stroke-width="3.711" stroke-opacity="1" stroke-miterlimit="4"/></g><path stroke-linecap="round" transform="matrix(0.200123, 0, 0, 0.199936, 128.029597, 264.539515)" fill="none" stroke-linejoin="round" d="M 286.667936 261.741697 L 367.438584 261.741697 L 367.438584 313.223024 L 286.667936 313.223024 Z M 286.667936 261.741697 " stroke="#212830" stroke-width="3.711" stroke-opacity="1" stroke-miterlimit="4"/><g clip-path="url(#804d51b45d)"><path stroke-linecap="round" transform="matrix(0.200123, 0, 0, 0.199936, 55.520912, 264.539515)" fill="none" stroke-linejoin="round" d="M 199.811642 161.983195 L 199.811642 148.756304 " stroke="#212830" stroke-width="3.711" stroke-opacity="1" stroke-miterlimit="4"/></g><g clip-path="url(#06baa242ba)"><path stroke-linecap="round" transform="matrix(0.200123, 0, 0, 0.199936, 55.520912, 264.539515)" fill="none" stroke-linejoin="round" d="M 394.203832 161.983195 L 422.29203 209.635171 " stroke="#212830" stroke-width="3.711" stroke-opacity="1" stroke-miterlimit="4"/></g><path stroke-linecap="round" transform="matrix(0.200123, 0, 0, 0.199936, 55.520912, 264.539515)" fill="none" stroke-linejoin="round" d="M 283.080753 161.983195 L 279.118346 209.635171 " stroke="#212830" stroke-width="3.711" stroke-opacity="1" stroke-miterlimit="4"/><path stroke-linecap="round" transform="matrix(0.200123, 0, 0, 0.199936, 55.520912, 264.539515)" fill="none" stroke-linejoin="round" d="M 243.261488 209.635171 L 243.261488 224.796275 " stroke="#212830" stroke-width="3.711" stroke-opacity="1" stroke-miterlimit="4"/><path stroke-linecap="round" transform="matrix(0.200123, 0, 0, 0.199936, 55.520912, 264.539515)" fill="none" stroke-linejoin="round" d="M 386.513248 209.635171 L 386.513248 224.796275 " stroke="#212830" stroke-width="3.711" stroke-opacity="1" stroke-miterlimit="4"/><path stroke-linecap="round" transform="matrix(0.200123, 0, 0, 0.199936, 55.520912, 264.539515)" fill="none" stroke-linejoin="round" d="M 207.482706 224.796275 L 207.560783 226.066213 L 207.677899 227.316613 L 207.89261 228.567013 L 208.224437 229.836951 L 208.614822 231.028739 L 209.668862 233.412315 L 210.332516 234.46734 L 211.074248 235.522365 L 211.855018 236.518778 L 212.713864 237.437041 L 213.650788 238.296691 L 214.64627 239.097729 L 215.700309 239.820616 L 216.832426 240.484892 L 217.964542 241.090554 L 219.155216 241.539917 L 220.34589 241.950204 L 221.595122 242.282342 L 222.863873 242.53633 L 224.113105 242.673092 L 226.709165 242.673092 L 227.958397 242.53633 L 229.227148 242.282342 L 230.417822 241.950204 L 231.667054 241.539917 L 232.799171 241.090554 L 233.989845 240.484892 L 235.043884 239.820616 L 236.117443 239.097729 L 237.112924 238.296691 L 238.030329 237.437041 L 238.889176 236.518778 L 239.748023 235.522365 L 240.489754 234.46734 L 241.075332 233.412315 L 241.680428 232.220527 L 242.14889 231.028739 L 242.539275 229.836951 L 242.871103 228.567013 L 243.144372 227.316613 L 243.261488 226.066213 L 243.261488 224.796275 " stroke="#212830" stroke-width="3.711" stroke-opacity="1" stroke-miterlimit="4"/><path stroke-linecap="round" transform="matrix(0.200123, 0, 0, 0.199936, 55.520912, 264.539515)" fill="none" stroke-linejoin="round" d="M 350.675909 224.796275 L 350.734467 225.792688 L 350.812544 226.7891 L 350.929659 227.785513 L 351.144371 228.781926 L 351.398121 229.758801 L 351.729948 230.696601 L 352.061776 231.614864 L 352.452161 232.552664 L 352.920623 233.470927 L 353.447642 234.330577 L 353.994181 235.131615 L 354.579759 235.991265 L 355.243413 236.714153 L 356.707357 238.179466 L 357.429569 238.765591 L 358.229858 239.371254 L 359.088705 239.957379 L 359.947552 240.484892 L 360.806399 240.953792 L 361.743323 241.344542 L 362.660727 241.676679 L 363.656209 242.008817 L 364.593133 242.282342 L 365.588615 242.477717 L 366.564577 242.594942 L 367.560059 242.673092 L 369.629099 242.673092 L 370.62458 242.594942 L 371.600543 242.477717 L 372.596025 242.282342 L 373.532948 242.008817 L 374.52843 241.676679 L 375.445835 241.344542 L 376.382759 240.953792 L 377.241606 240.484892 L 378.100452 239.957379 L 378.959299 239.371254 L 379.759589 238.765591 L 380.559878 238.179466 L 381.28209 237.437041 L 382.609399 235.991265 L 383.214495 235.131615 L 383.741515 234.330577 L 384.268535 233.470927 L 384.736997 232.552664 L 385.127382 231.614864 L 385.517767 230.696601 L 385.791036 229.758801 L 386.044786 228.781926 L 386.259498 227.785513 L 386.376614 226.7891 L 386.454691 225.792688 L 386.513248 224.796275 " stroke="#212830" stroke-width="3.711" stroke-opacity="1" stroke-miterlimit="4"/><path stroke-linecap="round" transform="matrix(0.200123, 0, 0, 0.199936, 55.520912, 264.539515)" fill="none" stroke-linejoin="round" d="M 394.203832 343.213095 L 394.203832 239.488479 " stroke="#212830" stroke-width="3.711" stroke-opacity="1" stroke-miterlimit="4"/><path stroke-linecap="round" transform="matrix(0.200123, 0, 0, 0.199936, 55.520912, 264.539515)" fill="none" stroke-linejoin="round" d="M 177.813449 343.213095 L 199.811642 343.213095 " stroke="#212830" stroke-width="3.711" stroke-opacity="1" stroke-miterlimit="4"/><path stroke-linecap="round" transform="matrix(0.200123, 0, 0, 0.199936, 55.520912, 264.539515)" fill="none" stroke-linejoin="round" d="M 222.668681 261.741697 L 269.241607 261.741697 L 269.241607 343.213095 L 222.668681 343.213095 Z M 222.668681 261.741697 " stroke="#212830" stroke-width="3.711" stroke-opacity="1" stroke-miterlimit="4"/><g clip-path="url(#061cc629b2)"><path stroke-linecap="round" transform="matrix(0.200123, 0, 0, 0.199936, 55.520912, 264.539515)" fill="none" stroke-linejoin="round" d="M 394.203832 148.756304 L 394.203832 161.983195 " stroke="#212830" stroke-width="3.711" stroke-opacity="1" stroke-miterlimit="4"/></g><path stroke-linecap="round" transform="matrix(0.200123, 0, 0, 0.199936, 55.520912, 264.539515)" fill="none" stroke-linejoin="round" d="M 227.568012 161.983195 L 207.482706 209.635171 " stroke="#212830" stroke-width="3.711" stroke-opacity="1" stroke-miterlimit="4"/><path stroke-linecap="round" transform="matrix(0.200123, 0, 0, 0.199936, 55.520912, 264.539515)" fill="none" stroke-linejoin="round" d="M 338.613014 161.983195 L 350.675909 209.635171 " stroke="#212830" stroke-width="3.711" stroke-opacity="1" stroke-miterlimit="4"/><g clip-path="url(#6aca7af92b)"><path stroke-linecap="round" transform="matrix(0.200123, 0, 0, 0.199936, 55.520912, 264.539515)" fill="none" stroke-linejoin="round" d="M 171.703925 209.635171 L 171.703925 224.796275 " stroke="#212830" stroke-width="3.711" stroke-opacity="1" stroke-miterlimit="4"/></g><path stroke-linecap="round" transform="matrix(0.200123, 0, 0, 0.199936, 55.520912, 264.539515)" fill="none" stroke-linejoin="round" d="M 314.897128 209.635171 L 314.897128 224.796275 " stroke="#212830" stroke-width="3.711" stroke-opacity="1" stroke-miterlimit="4"/><path stroke-linecap="round" transform="matrix(0.200123, 0, 0, 0.199936, 55.520912, 264.539515)" fill="none" stroke-linejoin="round" d="M 279.118346 224.796275 L 279.118346 226.066213 L 279.254981 227.316613 L 279.508731 228.567013 L 279.840558 229.836951 L 280.230943 231.028739 L 280.699405 232.220527 L 281.304502 233.412315 L 281.968156 234.46734 L 282.690368 235.522365 L 283.490658 236.518778 L 284.349505 237.437041 L 285.266909 238.296691 L 286.262391 239.097729 L 287.335949 239.820616 L 288.389989 240.484892 L 289.580663 241.090554 L 290.712779 241.539917 L 291.962011 241.950204 L 293.152685 242.282342 L 294.421436 242.53633 L 295.748745 242.673092 L 298.266728 242.673092 L 299.51596 242.53633 L 300.784711 242.282342 L 302.033943 241.950204 L 303.224617 241.539917 L 304.415291 241.090554 L 305.547408 240.484892 L 306.679524 239.820616 L 307.733564 239.097729 L 308.729045 238.296691 L 309.665969 237.437041 L 310.524816 236.518778 L 311.305586 235.522365 L 312.047317 234.46734 L 312.710972 233.412315 L 313.296549 232.220527 L 313.765011 231.028739 L 314.155396 229.836951 L 314.487223 228.567013 L 314.701935 227.316613 L 314.819051 226.066213 L 314.897128 224.796275 " stroke="#212830" stroke-width="3.711" stroke-opacity="1" stroke-miterlimit="4"/><path stroke-linecap="round" transform="matrix(0.200123, 0, 0, 0.199936, 55.520912, 264.539515)" fill="none" stroke-linejoin="round" d="M 199.811642 239.488479 L 199.811642 343.213095 " stroke="#212830" stroke-width="3.711" stroke-opacity="1" stroke-miterlimit="4"/><g clip-path="url(#3a561fe1d8)"><path stroke-linecap="round" transform="matrix(0.200123, 0, 0, 0.199936, 55.520912, 264.539515)" fill="none" stroke-linejoin="round" d="M 199.811642 362.20355 L 177.813449 362.20355 " stroke="#212830" stroke-width="3.711" stroke-opacity="1" stroke-miterlimit="4"/></g><g clip-path="url(#e2cb6238fb)"><path stroke-linecap="round" transform="matrix(0.200123, 0, 0, 0.199936, 55.520912, 264.539515)" fill="none" stroke-linejoin="round" d="M 416.202024 362.20355 L 416.202024 343.213095 " stroke="#212830" stroke-width="3.711" stroke-opacity="1" stroke-miterlimit="4"/></g><path stroke-linecap="round" transform="matrix(0.200123, 0, 0, 0.199936, 55.520912, 264.539515)" fill="none" stroke-linejoin="round" d="M 394.203832 161.983195 L 199.811642 161.983195 " stroke="#212830" stroke-width="3.711" stroke-opacity="1" stroke-miterlimit="4"/><path stroke-linecap="round" transform="matrix(0.200123, 0, 0, 0.199936, 55.520912, 264.539515)" fill="none" stroke-linejoin="round" d="M 255.324383 161.983195 L 243.261488 209.635171 " stroke="#212830" stroke-width="3.711" stroke-opacity="1" stroke-miterlimit="4"/><path stroke-linecap="round" transform="matrix(0.200123, 0, 0, 0.199936, 55.520912, 264.539515)" fill="none" stroke-linejoin="round" d="M 366.447461 161.983195 L 386.513248 209.635171 " stroke="#212830" stroke-width="3.711" stroke-opacity="1" stroke-miterlimit="4"/><path stroke-linecap="round" transform="matrix(0.200123, 0, 0, 0.199936, 55.520912, 264.539515)" fill="none" stroke-linejoin="round" d="M 207.482706 209.635171 L 207.482706 224.796275 " stroke="#212830" stroke-width="3.711" stroke-opacity="1" stroke-miterlimit="4"/><path stroke-linecap="round" transform="matrix(0.200123, 0, 0, 0.199936, 55.520912, 264.539515)" fill="none" stroke-linejoin="round" d="M 350.675909 209.635171 L 350.675909 224.796275 " stroke="#212830" stroke-width="3.711" stroke-opacity="1" stroke-miterlimit="4"/><g clip-path="url(#66a00338ba)"><path stroke-linecap="round" transform="matrix(0.200123, 0, 0, 0.199936, 55.520912, 264.539515)" fill="none" stroke-linejoin="round" d="M 171.703925 224.796275 L 171.703925 225.792688 L 171.782002 226.7891 L 172.172386 228.781926 L 172.367579 229.758801 L 172.699406 230.696601 L 173.031233 231.614864 L 173.499695 232.552664 L 173.89008 233.470927 L 174.4171 234.330577 L 175.022197 235.131615 L 175.627293 235.991265 L 176.212871 236.714153 L 177.676814 238.179466 L 178.399027 238.765591 L 179.257873 239.371254 L 180.058163 239.957379 L 180.91701 240.484892 L 181.853933 240.953792 L 182.771338 241.344542 L 183.708262 241.676679 L 184.625667 242.008817 L 185.621148 242.282342 L 186.61663 242.477717 L 187.612112 242.594942 L 188.607593 242.673092 L 190.598557 242.673092 L 191.594038 242.594942 L 192.58952 242.477717 L 193.565482 242.282342 L 194.560964 242.008817 L 195.497888 241.676679 L 196.415292 241.344542 L 197.352216 240.953792 L 198.269621 240.484892 L 199.147987 239.957379 L 199.928757 239.371254 L 200.729046 238.765591 L 201.529335 238.179466 L 202.251548 237.437041 L 203.578856 235.991265 L 204.183953 235.131615 L 204.769531 234.330577 L 205.237993 233.470927 L 205.706454 232.552664 L 206.155397 231.614864 L 206.487224 230.696601 L 206.819052 229.758801 L 207.033763 228.781926 L 207.228956 227.785513 L 207.365591 226.7891 L 207.482706 225.792688 L 207.482706 224.796275 " stroke="#212830" stroke-width="3.711" stroke-opacity="1" stroke-miterlimit="4"/></g><path stroke-linecap="round" transform="matrix(0.200123, 0, 0, 0.199936, 55.520912, 264.539515)" fill="none" stroke-linejoin="round" d="M 314.897128 224.796275 L 314.955685 226.066213 L 315.09232 227.316613 L 315.287513 228.567013 L 315.61934 229.836951 L 316.009725 231.028739 L 316.478187 232.220527 L 317.083283 233.412315 L 317.746938 234.46734 L 318.46915 235.522365 L 319.269439 236.518778 L 320.128286 237.437041 L 321.045691 238.296691 L 322.041172 239.097729 L 323.114731 239.820616 L 324.227328 240.484892 L 325.359444 241.090554 L 326.550119 241.539917 L 327.740793 241.950204 L 329.009544 242.282342 L 330.258776 242.53633 L 331.527527 242.673092 L 334.104068 242.673092 L 335.372819 242.53633 L 336.622051 242.282342 L 337.812725 241.950204 L 339.081476 241.539917 L 340.194073 241.090554 L 341.404266 240.484892 L 342.458306 239.820616 L 343.512345 239.097729 L 344.507827 238.296691 L 345.444751 237.437041 L 346.303598 236.518778 L 347.162444 235.522365 L 347.884657 234.46734 L 348.489753 233.412315 L 349.075331 232.220527 L 349.543793 231.028739 L 349.934178 229.836951 L 350.266005 228.567013 L 350.539274 227.316613 L 350.675909 226.066213 L 350.675909 224.796275 " stroke="#212830" stroke-width="3.711" stroke-opacity="1" stroke-miterlimit="4"/><path stroke-linecap="round" transform="matrix(0.200123, 0, 0, 0.199936, 55.520912, 264.539515)" fill="none" stroke-linejoin="round" d="M 199.811642 343.213095 L 394.203832 343.213095 " stroke="#212830" stroke-width="3.711" stroke-opacity="1" stroke-miterlimit="4"/><g clip-path="url(#04c952ac90)"><path stroke-linecap="round" transform="matrix(0.200123, 0, 0, 0.199936, 55.520912, 264.539515)" fill="none" stroke-linejoin="round" d="M 177.813449 362.20355 L 177.813449 343.213095 " stroke="#212830" stroke-width="3.711" stroke-opacity="1" stroke-miterlimit="4"/></g><path stroke-linecap="round" transform="matrix(0.200123, 0, 0, 0.199936, 55.520912, 264.539515)" fill="none" stroke-linejoin="round" d="M 416.202024 343.213095 L 394.203832 343.213095 " stroke="#212830" stroke-width="3.711" stroke-opacity="1" stroke-miterlimit="4"/><g clip-path="url(#6d1d10d70b)"><path stroke-linecap="round" transform="matrix(0.200123, 0, 0, 0.199936, 55.520912, 264.539515)" fill="none" stroke-linejoin="round" d="M 199.811642 148.756304 L 394.203832 148.756304 " stroke="#212830" stroke-width="3.711" stroke-opacity="1" stroke-miterlimit="4"/></g><g clip-path="url(#563c64e750)"><path stroke-linecap="round" transform="matrix(0.200123, 0, 0, 0.199936, 55.520912, 264.539515)" fill="none" stroke-linejoin="round" d="M 199.811642 161.983195 L 171.703925 209.635171 " stroke="#212830" stroke-width="3.711" stroke-opacity="1" stroke-miterlimit="4"/></g><g clip-path="url(#354f52778f)"><path stroke-linecap="round" transform="matrix(0.200123, 0, 0, 0.199936, 55.520912, 264.539515)" fill="none" stroke-linejoin="round" d="M 171.703925 209.635171 L 422.29203 209.635171 " stroke="#212830" stroke-width="3.711" stroke-opacity="1" stroke-miterlimit="4"/></g><path stroke-linecap="round" transform="matrix(0.200123, 0, 0, 0.199936, 55.520912, 264.539515)" fill="none" stroke-linejoin="round" d="M 310.856643 161.983195 L 314.897128 209.635171 " stroke="#212830" stroke-width="3.711" stroke-opacity="1" stroke-miterlimit="4"/><path stroke-linecap="round" transform="matrix(0.200123, 0, 0, 0.199936, 55.520912, 264.539515)" fill="none" stroke-linejoin="round" d="M 279.118346 209.635171 L 279.118346 224.796275 " stroke="#212830" stroke-width="3.711" stroke-opacity="1" stroke-miterlimit="4"/><g clip-path="url(#1eec5ea1a2)"><path stroke-linecap="round" transform="matrix(0.200123, 0, 0, 0.199936, 55.520912, 264.539515)" fill="none" stroke-linejoin="round" d="M 422.29203 209.635171 L 422.29203 224.796275 " stroke="#212830" stroke-width="3.711" stroke-opacity="1" stroke-miterlimit="4"/></g><path stroke-linecap="round" transform="matrix(0.200123, 0, 0, 0.199936, 55.520912, 264.539515)" fill="none" stroke-linejoin="round" d="M 243.261488 224.796275 L 243.339565 226.066213 L 243.476199 227.316613 L 243.729949 228.567013 L 244.003219 229.836951 L 244.393604 231.028739 L 245.447643 233.412315 L 246.111298 234.46734 L 246.853029 235.522365 L 247.633799 236.518778 L 248.570723 237.437041 L 249.488128 238.296691 L 250.483609 239.097729 L 251.557168 239.820616 L 252.611207 240.484892 L 253.743324 241.090554 L 254.933998 241.539917 L 256.124672 241.950204 L 257.373904 242.282342 L 258.642655 242.53633 L 259.891887 242.673092 L 262.487947 242.673092 L 263.737179 242.53633 L 265.00593 242.282342 L 266.255162 241.950204 L 267.445836 241.539917 L 268.63651 241.090554 L 269.768626 240.484892 L 270.900743 239.820616 L 271.896224 239.097729 L 272.891706 238.296691 L 273.887188 237.437041 L 274.746035 236.518778 L 275.526804 235.522365 L 276.268536 234.46734 L 276.93219 233.412315 L 277.98623 231.028739 L 278.376615 229.836951 L 278.708442 228.567013 L 278.923154 227.316613 L 279.040269 226.066213 L 279.118346 224.796275 " stroke="#212830" stroke-width="3.711" stroke-opacity="1" stroke-miterlimit="4"/><g clip-path="url(#3bd1fdb729)"><path stroke-linecap="round" transform="matrix(0.200123, 0, 0, 0.199936, 55.520912, 264.539515)" fill="none" stroke-linejoin="round" d="M 386.513248 224.796275 L 386.513248 225.597313 L 386.591325 226.39835 L 386.649883 227.17985 L 386.923153 228.781926 L 387.118345 229.563426 L 387.372095 230.286314 L 387.645365 231.087352 L 387.918634 231.810239 L 388.230942 232.552664 L 388.640846 233.275552 L 389.031231 233.99844 L 389.441136 234.662715 L 389.890078 235.32699 L 390.417098 235.991265 L 390.88556 236.577391 L 392.603254 238.296691 L 393.20835 238.765591 L 393.872005 239.293104 L 394.535659 239.762004 L 395.199314 240.152754 L 395.921526 240.563042 L 396.663257 240.953792 L 397.385469 241.285929 L 398.107682 241.539917 L 398.849413 241.813442 L 399.630183 242.06743 L 400.430472 242.282342 L 401.230761 242.399567 L 402.03105 242.53633 L 402.81182 242.61448 L 403.61211 242.673092 L 405.193169 242.673092 L 405.993458 242.61448 L 406.793747 242.53633 L 407.594036 242.399567 L 408.374806 242.282342 L 409.175095 242.06743 L 409.897307 241.813442 L 410.697597 241.539917 L 411.439328 241.285929 L 412.16154 240.953792 L 412.883752 240.563042 L 413.547407 240.152754 L 414.289138 239.762004 L 414.933273 239.293104 L 415.53837 238.765591 L 416.202024 238.296691 L 416.807121 237.710566 L 417.334141 237.183053 L 417.861161 236.577391 L 418.38818 235.991265 L 419.325104 234.662715 L 419.774047 233.99844 L 420.183951 233.275552 L 420.515778 232.552664 L 420.847605 231.810239 L 421.179433 231.087352 L 421.433183 230.286314 L 421.628375 229.563426 L 421.823568 228.781926 L 422.03828 227.980888 L 422.155395 227.17985 L 422.233472 226.39835 L 422.29203 225.597313 L 422.29203 224.796275 " stroke="#212830" stroke-width="3.711" stroke-opacity="1" stroke-miterlimit="4"/></g><g clip-path="url(#8146dd2a8a)"><path stroke-linecap="round" transform="matrix(0.200123, 0, 0, 0.199936, 55.520912, 264.539515)" fill="none" stroke-linejoin="round" d="M 199.811642 362.20355 L 394.203832 362.20355 " stroke="#212830" stroke-width="3.711" stroke-opacity="1" stroke-miterlimit="4"/></g><g clip-path="url(#54f34e7f78)"><path stroke-linecap="round" transform="matrix(0.200123, 0, 0, 0.199936, 55.520912, 264.539515)" fill="none" stroke-linejoin="round" d="M 394.203832 362.20355 L 416.202024 362.20355 " stroke="#212830" stroke-width="3.711" stroke-opacity="1" stroke-miterlimit="4"/></g><path stroke-linecap="round" transform="matrix(0.200123, 0, 0, 0.199936, 55.520912, 264.539515)" fill="none" stroke-linejoin="round" d="M 286.672295 261.741697 L 367.442943 261.741697 L 367.442943 313.223024 L 286.672295 313.223024 Z M 286.672295 261.741697 " stroke="#212830" stroke-width="3.711" stroke-opacity="1" stroke-miterlimit="4"/><g clip-path="url(#a6fd935cad)"><path fill="#ffcf6e" d="M 44.65625 5.617188 C 43.890625 5.300781 43.128906 6.230469 42.335938 7.042969 L 41.269531 8.113281 L 32.65625 16.601562 C 30.414062 18.816406 26.828125 17.824219 23.945312 17.125 L 21.023438 16.472656 C 19.355469 16.191406 15.433594 15.398438 14.273438 15.382812 C 11.308594 15.339844 13.355469 18.378906 14.253906 20.050781 L 18.097656 27.421875 C 19.503906 30.171875 20.023438 31.84375 19.917969 33.273438 C 19.808594 34.722656 19.078125 35.855469 17.992188 37.542969 C 17.253906 38.6875 16.367188 40.070312 15.378906 41.925781 C 14.632812 43.335938 13.003906 46.183594 12.648438 47.265625 C 12.226562 48.546875 12.789062 49.144531 14.085938 49.097656 C 14.769531 49.074219 15.683594 48.898438 16.878906 48.675781 L 16.886719 48.671875 C 19.929688 48.09375 23.726562 47.53125 26.933594 47.035156 C 31.441406 46.339844 33.101562 47.980469 35.683594 51.132812 L 35.683594 51.136719 C 36.519531 52.140625 37.449219 53.261719 38.605469 54.4375 L 41.023438 57.011719 C 41.835938 57.894531 42.898438 59.238281 43.777344 59.117188 C 44.738281 58.988281 44.925781 57.714844 45.335938 55.046875 L 46.738281 46.339844 C 47.878906 39.339844 50.082031 39.496094 55.683594 37.164062 C 57.296875 36.488281 59.191406 35.539062 60.808594 34.792969 L 60.816406 34.789062 C 62.808594 33.867188 63.804688 33.40625 63.808594 32.597656 C 63.808594 32.210938 63.59375 31.90625 63.160156 31.597656 C 62.449219 31.085938 59.503906 29.722656 58.335938 29.128906 L 50.875 25.339844 C 46.679688 23.207031 46.472656 18.84375 46.175781 14.542969 C 46.125 13.792969 46.074219 13.023438 46 12.238281 C 45.871094 10.796875 45.640625 9.34375 45.476562 7.933594 C 45.316406 6.566406 45.238281 5.859375 44.65625 5.617188 Z M 44.65625 5.617188 " fill-opacity="1" fill-rule="nonzero"/></g><path fill="#ffffff" d="M 20.769531 40.523438 C 21.332031 39.222656 22.867188 36.917969 23.636719 35.085938 C 24.402344 33.25 24.410156 31.886719 23.902344 30.371094 C 23.394531 28.855469 22.371094 27.183594 21.4375 25.636719 C 20.503906 24.089844 19.660156 22.667969 19.441406 21.800781 C 19.222656 20.933594 19.632812 20.621094 20.527344 21.242188 C 21.425781 21.867188 22.804688 23.429688 24.019531 25.011719 C 25.234375 26.59375 26.28125 28.199219 26.804688 29.421875 C 27.328125 30.644531 27.328125 31.488281 27.035156 32.550781 C 26.738281 33.617188 26.15625 34.902344 25.328125 36.371094 C 24.503906 37.839844 23.4375 39.488281 22.679688 40.53125 C 21.921875 41.574219 21.472656 42.003906 21.042969 42.070312 C 20.613281 42.128906 20.207031 41.828125 20.769531 40.523438 Z M 46.636719 27.476562 C 47.789062 27.363281 49.796875 28.195312 51.730469 28.96875 C 53.664062 29.738281 55.519531 30.449219 56.511719 30.976562 C 57.507812 31.5 57.640625 31.84375 56.789062 31.957031 C 55.9375 32.066406 54.105469 31.949219 52.277344 31.734375 C 50.449219 31.527344 48.625 31.222656 47.394531 30.867188 C 46.160156 30.515625 45.523438 30.117188 45.351562 29.382812 C 45.179688 28.652344 45.480469 27.589844 46.636719 27.476562 Z M 36.058594 17.90625 C 36.988281 16.570312 39.171875 14.246094 40.445312 12.988281 C 41.71875 11.734375 42.082031 11.554688 42.289062 11.707031 C 42.492188 11.859375 42.539062 12.339844 42.246094 13.253906 C 41.960938 14.171875 41.332031 15.519531 40.90625 16.667969 C 40.476562 17.820312 40.25 18.777344 39.957031 19.421875 C 39.667969 20.066406 39.308594 20.394531 38.601562 20.421875 C 37.890625 20.449219 36.832031 20.171875 36.140625 19.867188 C 35.453125 19.566406 35.128906 19.234375 36.058594 17.90625 Z M 36.058594 17.90625 " fill-opacity="1" fill-rule="evenodd"/></svg>